<mxfile host="Electron" modified="2023-06-04T22:17:21.021Z" agent="Mozilla/5.0 (X11; Linux x86_64) AppleWebKit/537.36 (KHTML, like Gecko) draw.io/21.2.8 Chrome/112.0.5615.165 Electron/24.2.0 Safari/537.36" etag="ihOg91-RSZwoX-Yq466y" version="21.2.8" type="device">
  <diagram name="Page-1" id="7fJ1IS7ts1eKgqAjQXvY">
    <mxGraphModel dx="758" dy="1203" grid="1" gridSize="10" guides="1" tooltips="1" connect="1" arrows="1" fold="1" page="1" pageScale="1" pageWidth="850" pageHeight="1100" math="0" shadow="0">
      <root>
        <mxCell id="0" />
        <mxCell id="1" parent="0" />
        <mxCell id="Ea116FxkHDpsLCeJhvra-1" value="poky" style="rounded=1;whiteSpace=wrap;html=1;fillColor=#dae8fc;strokeColor=#6c8ebf;" vertex="1" parent="1">
          <mxGeometry x="320" y="480" width="180" height="60" as="geometry" />
        </mxCell>
        <mxCell id="Ea116FxkHDpsLCeJhvra-2" value="meta-tegra" style="rounded=1;whiteSpace=wrap;html=1;fillColor=#fff2cc;strokeColor=#d6b656;" vertex="1" parent="1">
          <mxGeometry x="320" y="420" width="60" height="60" as="geometry" />
        </mxCell>
        <mxCell id="Ea116FxkHDpsLCeJhvra-3" value="meta-ros" style="rounded=1;whiteSpace=wrap;html=1;fillColor=#fff2cc;strokeColor=#d6b656;" vertex="1" parent="1">
          <mxGeometry x="380" y="420" width="60" height="60" as="geometry" />
        </mxCell>
        <mxCell id="Ea116FxkHDpsLCeJhvra-4" value="meta-rauc" style="rounded=1;whiteSpace=wrap;html=1;fillColor=#fff2cc;strokeColor=#d6b656;" vertex="1" parent="1">
          <mxGeometry x="440" y="420" width="60" height="60" as="geometry" />
        </mxCell>
        <mxCell id="Ea116FxkHDpsLCeJhvra-5" value="Yocto Layers" style="text;html=1;strokeColor=none;fillColor=none;align=center;verticalAlign=middle;whiteSpace=wrap;rounded=0;" vertex="1" parent="1">
          <mxGeometry x="370" y="390" width="80" height="30" as="geometry" />
        </mxCell>
        <mxCell id="Ea116FxkHDpsLCeJhvra-18" style="edgeStyle=orthogonalEdgeStyle;rounded=0;orthogonalLoop=1;jettySize=auto;html=1;entryX=0.5;entryY=1;entryDx=0;entryDy=0;" edge="1" parent="1" source="Ea116FxkHDpsLCeJhvra-6" target="Ea116FxkHDpsLCeJhvra-8">
          <mxGeometry relative="1" as="geometry" />
        </mxCell>
        <mxCell id="Ea116FxkHDpsLCeJhvra-19" style="edgeStyle=orthogonalEdgeStyle;rounded=0;orthogonalLoop=1;jettySize=auto;html=1;entryX=0.5;entryY=1;entryDx=0;entryDy=0;" edge="1" parent="1" source="Ea116FxkHDpsLCeJhvra-6" target="Ea116FxkHDpsLCeJhvra-9">
          <mxGeometry relative="1" as="geometry" />
        </mxCell>
        <mxCell id="Ea116FxkHDpsLCeJhvra-20" style="edgeStyle=orthogonalEdgeStyle;rounded=0;orthogonalLoop=1;jettySize=auto;html=1;entryX=0.5;entryY=1;entryDx=0;entryDy=0;" edge="1" parent="1" source="Ea116FxkHDpsLCeJhvra-6" target="Ea116FxkHDpsLCeJhvra-10">
          <mxGeometry relative="1" as="geometry" />
        </mxCell>
        <mxCell id="Ea116FxkHDpsLCeJhvra-21" style="edgeStyle=orthogonalEdgeStyle;rounded=0;orthogonalLoop=1;jettySize=auto;html=1;entryX=0;entryY=0.5;entryDx=0;entryDy=0;" edge="1" parent="1" source="Ea116FxkHDpsLCeJhvra-6" target="Ea116FxkHDpsLCeJhvra-15">
          <mxGeometry relative="1" as="geometry" />
        </mxCell>
        <mxCell id="Ea116FxkHDpsLCeJhvra-22" style="edgeStyle=orthogonalEdgeStyle;rounded=0;orthogonalLoop=1;jettySize=auto;html=1;entryX=0;entryY=0.5;entryDx=0;entryDy=0;" edge="1" parent="1" source="Ea116FxkHDpsLCeJhvra-6" target="Ea116FxkHDpsLCeJhvra-14">
          <mxGeometry relative="1" as="geometry" />
        </mxCell>
        <mxCell id="Ea116FxkHDpsLCeJhvra-23" style="edgeStyle=orthogonalEdgeStyle;rounded=0;orthogonalLoop=1;jettySize=auto;html=1;entryX=0;entryY=0.5;entryDx=0;entryDy=0;" edge="1" parent="1" source="Ea116FxkHDpsLCeJhvra-6" target="Ea116FxkHDpsLCeJhvra-13">
          <mxGeometry relative="1" as="geometry" />
        </mxCell>
        <mxCell id="Ea116FxkHDpsLCeJhvra-24" style="edgeStyle=orthogonalEdgeStyle;rounded=0;orthogonalLoop=1;jettySize=auto;html=1;entryX=0.5;entryY=0;entryDx=0;entryDy=0;" edge="1" parent="1" source="Ea116FxkHDpsLCeJhvra-6" target="Ea116FxkHDpsLCeJhvra-16">
          <mxGeometry relative="1" as="geometry" />
        </mxCell>
        <mxCell id="Ea116FxkHDpsLCeJhvra-25" style="edgeStyle=orthogonalEdgeStyle;rounded=0;orthogonalLoop=1;jettySize=auto;html=1;" edge="1" parent="1" source="Ea116FxkHDpsLCeJhvra-6" target="Ea116FxkHDpsLCeJhvra-11">
          <mxGeometry relative="1" as="geometry" />
        </mxCell>
        <mxCell id="Ea116FxkHDpsLCeJhvra-26" style="edgeStyle=orthogonalEdgeStyle;rounded=0;orthogonalLoop=1;jettySize=auto;html=1;entryX=0.5;entryY=0;entryDx=0;entryDy=0;" edge="1" parent="1" source="Ea116FxkHDpsLCeJhvra-6" target="Ea116FxkHDpsLCeJhvra-12">
          <mxGeometry relative="1" as="geometry" />
        </mxCell>
        <mxCell id="Ea116FxkHDpsLCeJhvra-6" value="" style="shape=image;verticalLabelPosition=bottom;labelBackgroundColor=default;verticalAlign=top;aspect=fixed;imageAspect=0;image=data:image/jpeg,/9j/4AAQSkZJRgABAQEAYABgAAD//gA7Q1JFQVRPUjogZ2QtanBlZyB2MS4wICh1c2luZyBJSkcgSlBFRyB2ODApLCBxdWFsaXR5ID0gOTkK/9sAQwABAQEBAQEBAQEBAQEBAQEBAQEBAQEBAQEBAQEBAQEBAQEBAQECAgEBAgEBAQICAgICAgICAgECAgICAgICAgIC/9sAQwEBAQEBAQEBAQEBAgEBAQICAgICAgICAgICAgICAgICAgICAgICAgICAgICAgICAgICAgICAgICAgICAgICAgIC/8IAEQgBkAJYAwERAAIRAQMRAf/EAB0AAQABBQEBAQAAAAAAAAAAAAAGAgMEBQcBCAn/xAAcAQEAAwEBAQEBAAAAAAAAAAAAAQIDBAUGBwj/2gAMAwEAAhADEAAAAf38AAAAAAAAAAAAAAAAAAAAAAAAAAAAAAh4eRCBJBPiPRLyXsVLJVTIAAAAAAAAAAAAAAAAAAAAAAAAAAAAAHkMPmc+8Ll0fn57He+t54zd2+7r2qJN6esC8DmmXu9Gl4KYGOfUvqez2QAAAAAAAAAAAAAAAAAAAAAAAAAAAAAooj3kZfAX88/NQnxcftH9u9351/OPOmvra/P/AMF5u69XplPVGq43QPpOnk3xXm7b0uj9Lv6h+pq1kAAAAAAAAAAAAAAAAAAAAAAAAAAAAAarlpy/4/m+Qvxnw+a/LcP1r+0e/iYZTv3N4H83hyj5bl12FOqfRdcS8rLj3xvnbSbfqf8A1/8AY1ayAAAAAAAAAAAAAAAAAAAAAAAAAAAAAIj4GH5nfzF8z1r6rp5H8xz/AFd+uetgceU59rf48/JvKxuWnRvb1hPi59m+57tbwV+dvzzy/wBeP7G+yq0kAAAAAAAAAAAAAAAAAAAAAAAAAAAAAWaTGfHw3PdaJePnlaTtfQ0vws1rTm2nbfQeblsuzS1EabkrOPc29kAAAAAAAAAAAAAAEE1LBEUxNVgAAAAAAAAAAAoo+bvg+Cd+jpDPGys9V9/tPSvoejmfgc3sW6T9FpuuzSG+TG/2m7012XXpm6SAAAAAAAAAAAAAAh4RbGY9jfVTG6vEq0rvNCQIJAAAAAAAAAFrOPm/834Oc+Zj9Mfb92DyV+fPjvO+z/172fmL818+b+5ry/5rnlHp6RDxrQvl5pn3X+tv1b1M3WQAAAAAAAB5ED0Q8mfIamjUUvGMLQ/K/MuXS7EQfK8Vx00OOsjtHu2dSvQemnTevKUbUlGucp1jfXitICCwAAAAAAafzqcR+Z4+f/O4zz1N+YeHz9i+o6ei/Qb83+ew5H87ybCZzNLzru2iGFZD2afRv6H2eyAAAAAAACFkjGFrUOScu2XWeT8d9TXSGc2ubasQzverbe2rDTIzmY700MIzW0mRbvMKx09is32zv3iFY36j15d79DklG1ZRrWT6RIdIuSAAAAAAs5V9maaWprlVN/dCkeTZWPKPda+zNNIqvN3W3oAPKx5L1PsxRD2FqttHVr6251x6+I45ydGHnMawvFotgY3396xeumvzTHaI9DR0vN7ZauJjFLzXXO1NYfleYWjN0rCMdZNekp1pE4tpqWlE0x9awbDXKqmu1L1oybUn3Tj03pzk21ZLtlJrzJtK37SEkEgAAgkAAEEgAAgKDXUiG46eHFuDo394+c/O69hMRjHS5NIllrk1tvdKQ6lvM5mGmUZm2py0mt6a+0xjKZjeLsZwqN5PFNxpnCM77WYl22cKi/mdpnrSPROnzTq7XTEVpeaWru98ofXXAySbXPDi0IxvkWiba0rsy7Zz3oy6Z14yTaJPrSS6RJdIyxIAAAAAAADi3DvBcJj+d8GLeRPLubbTYaRnG1mtpBZrSOUmR2jMtWH532kpNpnEMtbVKzbauhrOgzmbXeXpDcbyaa77ekFx12Csz0zh8WwqXneuWni0Wx0m+lL+tYPlaQ2iSWrBa3vRM3vnGJnS43nXTTY2pCcrWq3kd8tfMwfPTMhN988uadC7cpTrlvdkm0rJNIkt6SXSM+aoe2jxb0AAAA/LH5T1t/NpXtnKdK5elfYzpXomILhpAebbHpMfyvi1tJtKW0RbK++vO91yh2d7mczLTPQJ0eV5jel29IbXXfxSS7ITlNa02vnoazHM7zbbO9eIRjeQIlG1INnp4Tq9dBExetpzet+0QXntvbUle8Quk4tLTvSLu+cX57dG6sui9eNEQu9PENAtRPOubboPTn2rr55LpWTa12kgAAB+S/ynraqmldbXiQ2ylOlZVpWU6Vy70w4ty7n33ulPbRAObXDxvpKtdS8jtXLvESytsIiU60i8MPO8ttnRoieN97esk0pDctURNdK6iUapMts2V6QbLbYxSZb1iud9Rlaba0ptSFU1kc1lGtYLS2PWZ9rlpYtEcrTG07rWsFznIiZxvSpnnaJv1YbbswxujNL2XtNL0RVjf2ltlasktWSaVk2sSW8buapeTH5P/KexoqaV1t6V2zqXF6KSGyV3pLtaSbWmTKq9Ka1t2tBsdOdcu+DnOqrprMrbu9dpekTyveJVemplo8rSOzaa5Q7LXIiZlrnokaHLWV3ps9KwjPTOhMtcY5F9FlpMtc8q8QfO20rMz1rE6zpM7TbXG9a0EpbbVTHSsQW0tLznTK9pMIxttYTLXKnRttM5v047Xrzx7xdymut/YUreK27s5Xd2nofRl+f/AM36MZz19hdV9aVHrMCo9L5Ir1ll4lmucm1i+zr0UzSmt4TS3NuTo1eWmDRqcp2l43mlYzS9qsya1Ldqxmmu2nOS61jGdsHO8r2pdRD8r7O6Wa1jNZ1VLS6YzLxCKWz4TLXOOUmP0tLdK7a9YHnrkViX711dUTprJ7ZyPSkHjazknmtMW1YZTXexSXaxZtnbX6j2craNYaWlobMxezXaU5fRXya77j232dr8X9KWdRWenh4XJeQqRfJJeks0SrbKTaVybRXaPIjyUKxvzbm30eGmLWdTWc5O90rooYmV99pXMvWL0vdqlWmeuI9nfd2jf6VieV7ETLta0TESztskS2+cbnTS53lN6bPWIVlarOZrvTWrRPO+9mJVpjEFtblpMds/bTBea2V0RCePfed2PBfM6Pof6Dz4zpTRWr5F/bphrl0HbmipkrR/Ozk3xuPa/wA1ttTSqry1PYn0AHpUD0yESa9JVest3zk1q39FU0ph5Mw+t+Z8e0cyvTTTT0nJmu9u10RqKX20xudKRyt7MJHat2UTpbKiJVdqojQxO7JDrEVrOLneT6Uy9UNxtkQl+tdaiMZ33N0Wx0lnRh868nV1Lq5/n/j6Om9uHFPM7On+zw8Z8fs+hPpvL80j0F06F0YzXTCEFafVKk5MzYq1PPp5x9ODybbzCb8SPQUlZUeHh7NfYsMq1JLpSWWiW6Uke2d5HPsd4Pz79H7OXK0cy5NYny6ltXSa4nc2palpaWyk7vTLWWvgZW2iu23iO0m1RIbRlaIvS16JlF6aCk490Fx0z4tqNaQPi6Mztyh/LrZ3yzKzHq2nXVjzjzevqvs8PJfI7O8fTeX7ePD0uHVOjGX6c8BWqtPkPYiqzaznqaGjOhpsr4vH0WeTW1y6SDK/sSkkh4enh6z8aD0GSiT3zlmtJbrWR2i/pSq1fIExus8y5t4ZjvbznXRNdW10rcRpKWvG5vFi0wnnvK9I1FZ2Vqaq9eG+d29i9Xi+bPH9Dq/scPGPH7eiezxQLyuyX+nw6Pi7MzqyzqNZmnHZnqufSV+ryWqM7rp7MURNlMa1p37qx6HXHm8W+VKzu9HfEZlSawqHUNa64pztVMXZi5F9Bz285dsbj2y+bXaVt6AGdLQCkCaUxapXLtWVWiW7Ul+lJDpneveuM/LqTQZ6cuw1gPLsrbFrbJmOdZayCkO2nzd5e/0N6nJ8u+P3di9fm4d4/T2D3eHkPhej1/3OHl/h9nS/b44Z5PZNfW4sXm23Xbz5l5ytcvdYqVuJ1t5w9aZW+fnRno985BrH0pnWScuvL4cAzd11R2tfnfzeP5/w4NP29P3Pr2dg00vSoB4eHhkROtpbV4a+cuuJxbyHG2RWF58rZL0pPGYoaVHjMep2Nqyq9ZZrSZa03ukXLRgzOFER+l/kLy+3jHn9nV/V4fnPxvQ7B7fF8++R1/QXscPGfD9Dtvu+fxbwPQ7b7/n8x8Xv6n73nx7zOiV+vx053yerFQ1vTFY7pSveMnpzr1y3XRTZyt6B7Vr4fUdG95b8qTxmjrsosrAfNr+fPPz/ACl6eX6Hedw/dnq+vIJ0FJ4UlRm8m/DvP6pB63DMbVJwot5y62ePanm0kOU3GlAZ+HjTw8ZhaaKwvVF/axsdIprrxku9XPo7xHeXflfieh2T2+Difheh3P6Dz/nfwu/6S9zg5b4vf1z2/O0PHvKPR5aM7XN8149mMWbx3WuX0Z1b5Oikh3jHV15ZtOZWN8ZGi6V0aer6+hsuVyU8Mcx625Tzcvyfy+f8oa5/bPB6v2B6+u+008RTMeFMLkPgbg6/oPy+3A9ngl3DtyzLbvHveXkxEhhcvEd596uTbF49Nljrss1MF48qFJ4UgpKSFtvnvTPonXjkGn59uUeD39p97zue+R2dR9zi0HDvJ+/muHls65vUavSNZrS90R50ZZPXlurxrpa6jW2aqGkq01piJCYjtB27RLaKpWD64oy+dyItFss0mmYpI3FOb483VtOn5rrrw4/RW9aSkrJjFuccOmB11+R+HpyuLo+l/d8z5uo+ALz3m79DZpPqRkJ1lbazDajm1xuPSRc97kKSkpBSUECbcC0z6b1Y3ZU52s8m2w7cbtI90VM/bX0UnTne6K+dWO10jO1rhRXWy0dZ0ctIaaHP6ubQid0aRqC3adWZR+1lngPsiizzuOFotFEN1K2awxYeFqHPSTxf8w6x02H07aOr0nbWZWkbGkwfKc3anCcr/nzrHFLR+tE1+hqvgbj36P0Z/V1qjIhHqaW+a9vj3x+TSS53pmtEaW5z59Xo4Vrn0zr5smlvbTXWtN2l1rf2irqydNZDpldhaKdHhZNOQOjhhzSEVIuanRjmnNTDAlsbR3Gz6BifvEphdPtTNp8XEzHLAzU3ZEr5soawxYWyxWbV3NJjn0r2NvzOo/Tq8Z1J6NM9I1pwWjnvu8nTPP36Hx65p+XPPp1Xqp930qkLZaLstJS8V57yHn2jHFff8+8UrryHXOd9PPrdq2+nLY9NcjbPfbRRaGc+xWq81Q9PNAsEVPmzJ+dJKJVmnstw3d3Z9Hajvcu7RExs1dJqKIZR9u5vOe3zAR+K3bqq6D22fp6emZRt7o3VsjX2eFOa5owKvkSj4d0fspR83U0/MT7fw559r8/+p35p9P1nwO/8msujt/Vj96ZhSUFJQfnblfk3TT9aKNGnitW15t4D0U6H05UGxlcKwXD09PSs9BUWjWnOD4Xs5BLrNndLV7zLsMW29WRDJM2zJMQtlNWcfdFX0lR4cghwGjgcaRozbZ1lR6VwUV2bEybMw02bM0XM1uxZq80XtXkldPmiz6+tTsFJ/KPm37N14fedFJ6elJaPgvm351en6a7ZrTi1c6z15fvn0LWuEbErPSoqPSsunpWVHpQWjJlZuuQzLMsu1VGXZkQ2Bdsxi1Vjlozz70o7/AADksPnujgNUUrOZK5W9ZXKouM6jKNqV6LZr82Obazd2Ryi2WpfMeOkbvn9gy8PSkoPJfBnLrwzrz/V6r1GOtznO3OenOd3RAmh6el49KysrPT0F08KTYStGxuqhlSyj0tFEsgzIXzSlJq6JCfoKdsgAAAhy2J+dM3z9S0KTs5XS5XO4e2XS4bAzDUmXZIrNXRimJDY2a2qo8PT08KJfAfLrzvev6d3ztxNlbnudufdOc1uh5NYVyrKy8VArPT08B6XjbXZpclhw8lSZ0LsrMrpiQyTSZrxclnn6OnWoAAAABDmcPnHO3AqOf0nY2X03S/bOorPTKs3QqxDANhowswFR6eFs/MaukR1z/WWi0WiCZ6QXppLbxD6pZ5PZuPS58fbO4VAFQPQegzzJ0XSoyzCBbqtFVtNTmvTngQoi2OS6zrx97xWYgAAAAQSCrnsT83Un5+znnCdtbO6Xy8VlZ6C6S/RkyheT0qPAVGks1kJXZRRZIXnaE9NZPdEaulcPTre3m8uqKj08BQVA9KTZG00Y5ZLRQUFmrRlFdMAkB3+sd8mPoNEsmAAAAAAAAAEIIfOGVvnyI5jEbaGRK+eF4qKy6D0qB6el89LBTKyRmukM2z390KWmqvpUeHp4enh4C2eFtp4b+2dg1ddKzQw1hhw7gj6ER9Fo7FaPQAAAAAAAAAAAIgQus/N8Pn3Ny02BkF4uF0rPT0qPSs3BbNeUS9NJXSFbZ7W6ErTNUeg8PD0tgtFgslppZPTFI/ROj6GtX6JiPoyY24kAAAAAAAAAAAAAAAhEj5uyt8+Q5NEbPNk2vdsrZ3T0qKzNKSyeF0wa6QvXPJuhhLrKD0FJbKCksysLY0MeGEms7xEfQx9JWr0UAAAAAAAAAAAAAAAAAACAjNXzen59ytx6s7JW+XrVulZWVFQMoqrpBtc6boUS6ygoLRSWS0WCxE6xfq8R3s+iZr3UykBIAAAAAAAAAAAAAAAAAAAAAR6Hzlnb59ONUrnwyIXpeyvFwzDOaQSzBtnCrWk9q0GO0oMesYBJFe+J+gIfQ1olMwAAAAAAAAAAAAAAAAAAAAAAAAABpaPnWHz5S/FKTmWzyj02huGkDs09s9Ta1Vq45arp2hHe0fQx1uaBJUtIAAAAAAAAAAAAAAAAAAAAAAAAAAA1cPnek/PWc8QhvrWkkRzuyNXpKD6Cm3fkd9tGyAAAAAAAAAAAAAAAAAAAAAAAAAAAAAAAAglr6x8/VvzirSy6xpX6MM6QAAAAAAAAAAAAAAAAAAAAAAAAAAAAAAAAAAAAAAAAAAAAAAAAAAAAAAAAAAAAAAAAAAAAAAAAAAAAAAAAAAAAAAAAAAAAAAAAAAAAAAAAAAAAAAAAAAAAAAAAAAAAAAAAAAAAAAAAAAAAAAAAAAAAAAAAAAAAAAAAAAAAAAAAAAAAAAAAAAAAAAAAAAAAAAAAAAAAAAAAAAAAAAAAAAAAAAAAAAAAAAAAAAAAAAAAAAAAAAAAAAAAAAAAAAAAAAAAAAAAAAAAAAAAAAAAAAAAAAAAAAAAAAAAAAAAAAAAAAAAAAAAAAAAAAAAAAH/8QAORAAAAcAAQIDBgQFBAEFAAAAAAECAwQFBhEHEhATFRQWICEiMSMkMDQlMjVAUCYzNkE3J0RgcJD/2gAIAQEAAQUC/wDoh51DDVZrs/cyXd/lGHYG1zdnLc6gZNpcPcZmwlWemo6Y6vU0VyudYwq1mJt8xOes7eBTxqnT0t4tewzzVl/nrX+mdMv+Sxa5m11tR09qKex32UgUCMBk4EqI6TNnq7qhl5++6mzX37zW5KJn4FnNfndMcJZem6Ww/wDIpfb/ADkuSxCjp1NJewumX/JVMzn9HiqvZw7fq3+w6af8X1uJiW7+X2Fhm5nUk+7T9Tf6K9/4uahK93WZqbLYl9v85dRXJ1TS3L2be6XV8hds3Y+j6il6lHb2vVv9j02/4ss52Q1VlKlbS/6kU0qJO0Orf0sW8rH6npvjK71THZ/+vF9v87Lp6qaptlphC85n3FMUNJGdmV0CwTFiRILUqBCnIiwIMBK20OJi0lRBclQok5qJXQYCE56ibd/z25l2XfaaFMPMN5m9Uw7YWl3lrXTJPOVcRcKvopcivt6OXIuriPb1cpTMhmQ0tyumWK7Subku2EKOtp1t9v8Av5txW1y16muSPe6Pyzp6twM2MGR/dR7WoXp/akOZS2nXEIs5eOXsbPFD98R1F5S03XQ7LI2Pu4xaUs30OlainUyYllinaCqYa0N6y02w3/bmPb4XdZ3VfUtx9dWyDuNi/GkQupC3HbK4m3bvn6aCqbfeatEqheNtOhB3F/FCNhUd0HQxFhrQ2zQa1rpBrUVrgZtK5/8AtJkhEWLl87Xyaa3pCK0Z31d7PUzbCuo7PN+TnKi1YtqugL1u0t0u0x3unqZjmniLPSaBrzNTA0TNNT1TUpjW/wBklSVCfc11apm+q3hZb5iNKY39e8ly81RKm7aQ/EalMOEtegST82rIMPsKC/eI0PqqCEdyGEO6lspU6IoFBxM1TdLdIJxzYsFIlZ8xHazxhpnWoT65oYgVoGn36iwdJ5q+tmSa1kgg1qYCwzb1jwSolF+qZeHA7R2jgcDgdo7RwOB2/qqUSSK1rTVb3cCliMb2reXc61xqKjqFYRF22r94CTI0kUTbtl51t6pdHdp0JkzY5BpVC4bfvOkpLxBo8ytTPvDxJXKCDyqlx/WBJ9UId+W746pwfK84dVmEqjdwKRrmEyJtG4E1GMlqRSaVknpOvZJ+XmFKjR8+YbY2LSfXtHEDW3pVKh31Y6bVzaMk1qZiQ1qYag1dVbwQtDhf3XJCVKjwo7epp3FWmmra2va6ltqXO2S5tfL02zgOyN8m1hNN94dkaWKTltQvKZYhOGatfGTIsakzZYonTQjXMJkzWiDScs+bDWlbKTKmEEnkH1R2LZJSXr1IU5knVxmXQ8vUIS87m1HGaiA/e5KJDtQIyKIwlvVGmSpoMnmFKY94eJKphAlZM1xysh7bqoyX5uWeNFFkpRppNbHS9N1jSXpuTcONBzygiNs2Eev6WIGtxSqVEvamQbNtZsk1qJyQ1qo5hq9q3Q28y8X9lY6pKFuX9u6HJcx0IUttVit61YezyyCve2CHtBG7yby8w0QdRHTJt7Jsu/FzhHqrFIdna2KSrDISlRquCozPcwikWdOZsw8y+ptjZxkyrJZBCcXLONCvmykzL9BG9i5SosJwg67sGUPSsytUaLVmfG0YRJl15BlrLumw1qmylSJRBPua+qMzbkJLmiSTjmQcXFaSHPe9CJDtFzGTTctnru2S40GvdNxbCL/hdlpIxPTMbKU3ncvIUVLtIhP2OraS5Oxjyo1dnVGiLt4yUXepYODYuzB9g1Z2LIa0tggNapsw1f1boakx3/1vUZcZxnROkGb2EsNSGXh9I4HAUhK0ysxSSw7iDZV2bqsEjQRFqKJjJwZqdNGKRcaBhPtOHsBGpQqRuoCXrbOPKarM3IUiPt4ZS7dQS1iJojV162UidpmSOTipiotayFObiImRYUKzZh5t02mtnHKXPc5QWLlHGh3aBIlaRBLfxr6osNogpW1ZRIlUhiPHzizab2TSZUl0ILFvqjR7ghJd0qQ47kVKjNRwZ7NDch+pEdvNLNpvVIJ23vmC9uw0lyrbyzK/LVx8HPHgszSn3u2UVyt3Wndfa1Qa0VY4GpsR/wDRnfTLHIJRkbNpOaDWhcIM3cJwNyGnS+kSfaEsFM2ZrhO6B92VlqGWHcIls/Z93ViTo0GaY2JsAxSXkcnLXWxEHYYuebFJWrPje1pSbyApSYWMmmxWaiMmRbaBkvacPPEaoLk3t1BS/a59xTVfmJCm4u0iplWkwgXuPNOLXWSCel6+Ol2bk3lRoFUZpLcRSlWMUNs42UbETRtlJmX6Ap7FyVRYSCC1baOmRMpAxGzDhss69spUqcQ7sU+qNHmEHndc0h+VmjONHpDDadk0R6K5iBjZUTxsWFXMBxy48kh2uEO5RDzQSyMc+DUuWwG9BZthrVKDekrVhqwgv/BZl22PxJUpJtW05kM6JRBm7hOBDzbhfSO0cA0EZS8xRTQ/gWCP2Hd1Yk6WQkEWEsRHz85AVP3NaS7nKS1NU2alGiFuYCZN/KSC9xLERqOcgLnbiCS7XKSVtVOdfNEbdwUyrt4gksHPEaotGw9N2cRLljkZCmKyjcNDW7iJlWqQlrDzRGrrtsn5msZS5Mxr6o9dVKNKd5FKVYshDWJlHHhXyCky9Q2TkjGvLjQK4EW7YRJmxghGMkHGj3yRJk6VsnJGPcVGh1vKC27CT09nEOPsc/IDE+ulA2B5SSBJIvA/H5ctyZEcI0s9gVOpiz3rou238C+HnxS4tAZuJ7Ya0YZuoTgS8hY5SOPDjkpebo5okdP4nPpe4qg/p7NkidwlkGc38/P6gVYe0NLIWmsxs4NU2shpevNJGSU3DWIYoIKz/wDUCsEm/grUUPETgxT6NgnrbWRknYYqcbFLUuAm9/AEq7a5SzhpwjVN20T0/XRUrsMdJWxV0jhoa3cQpVuowlGFnCNWWTYdl7OKl6wy7qmK/OOmy1tWBKsZo5w8w4te8kLe3EZEifRmGo2UeDEfVtlJmXiQp/FSFRoMQgXvzGT71T4wibqlkSWp9fIJctlIVYB6zNAev4aQ5pUhq5myZO/994unqpehfgIs4XcfJ/qIcW0bVzOaDWiIM3EJwJeSovpMcDgcfKXnaScJPT+CY9E2lUHtPexUFMwtmGs1BdPt6g1Qf08ZxXs2EsAxnbpgKttvXEd1kZykUmYlmmu3MBMnRWTRE7grER6AwcjqBWB+/o3VJr8XNDNRqYxP2+pjJ9QxE02KeqWZN76CmVdJBN4acI9RaNhyZtoZO2mXeU3W5h8NQtnGKTa3CR5+GmHHq2RzvYaZNpA5THxUw41detlMs9RBZK3xk8Tqoo0OBvLpCtSqBcQKu4djvu6SUsO2k94GfPjSI8y20Bfx5KlJCnfNSdVVc+xWTYVIlRxHmw5R/qNuutBm6nNBnRoDNzDdCXUKIu0xxyOB9hLoKaeJXT+tWfu7r6sL0unr0eq4iyCM3RSjKDvqspGplpIlYCyNnMK59o6hVIe0tPIWVfhrA2c/pYpOXWxgJ9Wxc826POSTTA3kApOhsGy83A2Ij58ufM6g1okX1Y4pMTETRHptAwHbLZRErtMhJU3UZt824W4iJk3Vqkiewk8M07XL2z0NLLg2tVpBdNu0ljQ6UkR7VbMeyq7eaiG+s0zk/sIR90j4cuXdodIXF+RD7eH2CXXEh9uHNHpbBGbNy0FWTTIadbeR+o286ybN3PaDOkSYZuYToJ1CiI0i6b1SjZa6g8U6b9LcukqJ4lYCqdHutqawz0OwrC9dyFmCz+WnBNLta1LuovoafbsJZhGYq3x7N1BqhI1bg4wNmTOXdIe0dQaoPaaofWUHDTwxntBHJdvtq8jusjNUilysw0VW0gpl62xhqZfxdy5oYkjNrpNtZG/tzhOnn7lcWVq7Fywbp5TnmXp8HSn3pu/3lV+2lJ5m8fw+ujqOZ8BDGI8zTalPGh+BJcnOjFGd4BchMhxIdr6l9fp0hANVqwEWcBSv1OQ0+6ybN5ObDOkbMMW8N4E6gwXaOPGXT1c8SsBTOg8doq8/W9tUD3mzVmPR8ZYBvN6qCR6PYVpeuYyzCc9l5oTTbetS5qdBERJuMk9JRmqaSdhZ6vKnG3DdieupYrMKsvH2HtTa19pWwZrrbtvZzJsGC4onrX9jV/uLv9pSF+Lel3CjTwzasLdlQGTZjHVEp/sLsbYZa+Bx5phJXte4Om78mRrdanjRDTs6CfuvO6rUQr5RT4JuNE7LklGYpNRQaI3nGXU8eJLWkLdJ5HpNYPZLZoKmvxxHnQpfwcfpNSH2QzezWwzo2TDFrFeBOkCNJjgceEuprJ5S8BSvBWKv4J+rbunB7CksTbqcTbLumbTJO1G/tPN6gxIEqHW2zrT17oCs66JINLkqU9KYjLPz3P2cUz86aXEOAX5myLmFUIP2mxYU+zWwnIwfityQyy2wj4H5kSKE2BOji3dHsDixV0UWsFckkMdPE863ZJ40fAmfLqrVyXvPof6R1Br49hcWl1Z5+Ji5JYa1hbzKS3UmlSePDgceHzBPONiS3Amj0ttINF2wDtozQadaeR8PHxfIvBmZKYDOgloDOhirDFlGeCXSMG42RHKZCpgkWiGBunayWKu1XHkaO9kWcKG+onJjjkiNFWfn/wDtGOfOUX5aOn8Z0vy8WK77Q+35zUWrNlxSErJDTTfwdxcLuK1Cky5749muHR6XGMRmIUQeYZjkHyOBXp/K9NEd2o2qf9R8C1qp3vbEsaVcyiL+FXSiRqeqLdi1IlsuRZ1DT2FpnKlCUVQPwMcc+DTLRqvriAw9VWKJ0dTpNJas0LDlZTyFemzWgbtrHDdtXuL+rnw4+Hgvibmy2BJvZ6Yxba9NblzaSiNRmdp+whn+LOL8rG/3pBflYiDU92/gR4bpvmj6GalltwyIwlCEGOPB59mOn1mGsyVcvj2CesFU1BGh5tglSlKByCIe1pDclKgn5jj58DgVLUlqH0tT3aHal/qPgcBbaHEtstR29LnpVu9q8RPsGJeGfjMZGO2rKVH9L+H/AL66FcN2c49CkYuO8uKvRZWfNs/earEJ83W5VjArw279LikSEekVxA41wyFT3WBHmw5f6avtOM0xmT/MI+wsS5hQ0cyH0d7EWqeN1SO9LVTEbUOVePAkToUUFZE6Oy8dHpalhqtp4qjlK4VI5CpJEFzEkFzyC7AKnmJejr4QV1KrmDouoECbHh3FTOBEOBHL8PpUj+MbZP8AqHxMvD7CbT1lgcrFsGIEdyJB6mXlxnyy3WW2kWgP5eHyC4q2is4L0pFVAYrI9T090tR1Lvs3HhRq9o22+rae6NLvrCm0tV1b2kMszee8lGEuuJEiLXzB6WSB23TI9WitmhaHUfEr7WKuIrBcyE/YdpLJEWM2ovkD7lGOBx8l2lc2opkp4ez27o9JjrDEWDECnlGFOBb/AAHJiSDliQXYmFzjE7S1UIO7uKoOaTSSg8zaTAiPSxFevQEBOjsHyqlWcyzP7mXyZL6OlKPzW4Li/wDga8pbaYZuDyXTT4KJKikZXPyJFkyuTXokdR8mIHWadGFDvM/fuWN/CpI1fbQpjREl1yTVxpsaRTsyXiZU2N7m7HQxLnpPdSpNhhthny6VOOuYIdTNSmO70n0UnQ1ILuIE8sicrKl1fsM5sG/ZMEi4rFrMj8Vfy2n7WN+4T4cDgLUhpHqkJRk5ZvD2OwcHpFaYbJuORqMxz4cAw6rgSXzI7HWU0Nb+4JYevdPLD0aRIIlUcMKvmAi3sZQT7co2GoiEwGnJKqnp5u7YZzo1JrZnAV/KhPCelKfp3fyvTMcjkcjkNvuNG28SCaXGWUhCEBDS3AtCkAwZEorHHZ6yFX09Yo7PqXn7HQ0B1t3Qu9M7qZfZe66kU+Yt6bV5+7JUlPbqdDJonIvVSlXIgP5a4XHj+zNDqF6J690H/onh8gZGPmO9aRZToMWLDi0s5r2e5ZKx00GjTCtau2ZtVH5MRB+ep9hgHZs+et62OT7C8sN11Y0rzFcfPw4+HgKISue2/mSGCjyHmR7wSmWXZ1w+p1tS1EmG2qDGmy113Tja2B1fRZtsVnTPJVyY1fHgoab7Fn9+AsvoT9ulqOIezzmhtLawh21QEvpWXmDzB3fPuHI5HIZeJo2pCFkDjrJvw4DzEWTDjRY0JrqJ05n6adNx2oplwFPqr+p0mNBSjb2cGYzrM5OGFfak5cdUIc2bc9BufROPD7fB1sOfKndF3TVuPsLGtgW7MbppkK+zsq2O2iI02bjTDbRLL8wRDj4OPg4HA7RwHWe4rDOsWBT+k2jhtrzOpZdjdLddZCB0ZgpOt6eZWApmGhln2fgzb8o/p8lhJmj2ZwOt+WvgLL6EkOmSO2n8LPC5i1Ox6W2LIsai7pwh9tZEodw7hyO4dw5DUt1sKfbWh5KFNpb8wcSYwS60s/LYUJKj8wW1JVXseX02zUhnQ9FoPk4OndoMoOqsmxrrXoL/AEP5fBx4dUj40fRuwhvXPgv7W3Pkwi/ESQUX5ocfDwOBwOB/1wOAaQmKo1HG+RNDyEpQlpJtOGkjbJZp8h1ZpjMgkJbHmF3eb9Ej/fDn8pDpwntoPhtcRmLg7HpRMaFjRaGlDchtwu8dw7hyORyO4Num2FS0rZcMnApjvNSVoB8pOO35p+wtuK8o+xZdih1Ey6ruL0ionqGCPv8ABwOpxErRdEIshOt+fgv+W2/2IKfrDT0pd94cAiHA4+XAIvh4HAN8+7vV2oWff5D6kpjoIElCQtxIJ8jURyFI8ou5LSByhIdcJaxOKUpohgEdmc/Qtsbmro7LpK+gWWd0tKGpTTpd47hyO4cgvBuQbZe2KUpz+ZhsnATclsFI7W5C0OLEQ+2R8J+HVJXF/wBF7R2boD8Ffa1L8KGn6+AyX8eJPI4BECHA4HB8cfE22bhlGaIeW02FOcA30kO93hTK+PLT3fS0PObCXHlKUZqb5YHcCUO/k0K5GHTxmf07bIZy8Oy6RqSLLL6mmDUtp0EsgSwSh3Aj8W3VtGzYqbDTrPlyfk6Ek4y59vhMEOuDsiNd9B0rLWj5g/tZly3GT9SSEdP8d8+A0p5tLb/HgQ4/Qj/fzXFIU24CaQREnyy89pIJ1YLzFDsQTTz5tOnIXwa2/J80edwPbE96KjROOQOnuulihrVVFT+tbZbPXosukLYs8lrKc2pjTh947gShyORyORz8wiaTgW3Fda+A/v8AITamruExqCvqpngYs0/hMJ4MvtFLm7bfiGkzNauP04vzUt5vnz+VKW+YaS0qR3kmIh1Kx57BGp76nJBuKVIQgV1ZdXR1vSbUTSrukGajCtpKinR/aW2aob0rPpFGMWWN11OG5bSlEsEsEY7hyORyO4c/E2f4jh/iF42KT7GU/UIZc3H6XI7h3BKiNRcIWSuQ7KWhTkgorypZ+V7V2Ey8uY/WdONxait6JsEKrA5CmP8Au7XP0l4my6RQFiyxOxqAUtvzCc5BLHI7gR+HI58Pn4MNNupfj+SXhwJ5fhITwYgl/Ffj/wC+4dw7gagah38BEk2gcxZB+e2g63L667FZ0UvpAq+kGLrxDgQq5j/A2lHT3Tdn0iq3BZYPY1I9qJDhLIdw7h3Dnw/65DTzrQcecdPkfIF8zmJ+gk8GIH9S+Dkcjkcg1A1A1A3At9JCEzYWy63pPtrEVnRGjZFRk81Qf4mxqKu4as+kdK8LLp/saoKk+S8lZGO4dw5HI58CHIb+8xP0GXAMV/7/AMOQZg1A1DuHcDc4ByUqcrcLtLcVvROQ4KvpliqsNtoaR/jrCsrrVmz6SUUgWXTvX1ZuPnGfS4RjuHI5HI5DXzVK47Vl8zFfCXCkmY7hyO4GoOSENlW1F7dit6Q6eYK3o/lYgrqapp2/8rNr4NkzZ9J87KFj0311aH3XYTxOkY7wSgx/PJL6Xvuah3fid/yNfAjm7Ndrum+1sxW9F4iRV4bJ0x/5yVDiT2bPpTmpgsummtrhIW/XuxVko5Bl2ST+alirzOlvBW9HLd8VvSvHV4jRIsJn/wCBSY0aYzO6aUKlzOnN6sM9JbZ867pVl4YYYZjNf/jv/8QAOxEAAQMCAwUECQQCAgIDAAAAAQACAxESBBMxITIzQUIQIiOBBSAwQENQUVNhFFJxoSSRYsFg0TSQ8P/aAAgBAwEBPwH59oqV59um2vbqgA1Atqj/ACt75/8An6JuKw0mwPqU/HYSPZmbfNNxmGdo+pTsbhBrIo8ZhZdgdUqTE4aPYXUKixTJTQOUkzYx3jRDH4d5pcnzwsbdyUGKw04Nrqr9XhmvLb9vz4bVNUNf/BXovvYmUH8/9psLX41wJ5qLBRXV0IXpbBMDAQ6i9FYNuWZ67QrzNjnNmNG1UuGdFjGOgdVq9JzudiY2aFYvD5EUbvqppLvRo+q9GS5MzYjoViNnpIfSqHz18uWCeQRxLZA+nIFejf8A5UlPyrZTjXWa1WEZjg/xhQfyvTDYxG2921eiajDU5LHYBsniQmkiweL/AE0wim2lekS39cyQbQV6UdWCLZSoTxT0Z5qOI5QxPMJj8/EteTtr8+mZdC4BRSTYeSTu1BBC9HRvEr5iKVV8kM5ltrtWH9IvxEgBZaF6ZvMbbRVejWluFonOnhxJNKgFESYzEhxbRY+GTD2vaLqUUuJlx8TGOZbapYnw+jw0bVhI3Pw0jSOSw2HfHiSabK/Pg4UIKMMTjUtQDI6MA1T4InzBtoWXCHdxoaQixjxR4TQ2IUGiLIn7SKoQxtbcxoT2tfH3hUL9PEN1oHkixpFpFQmsbGKAUWQyt1vyG730bNqxM7tGhPlrhhI1tCmw4k0mElEXvyr6d4IzZkWzeKib4fe2lRPLZXtdpyWHvcXyXd1Mluqy7aqt+qNtdUS13Us1rdl6r8gEddArD9FYrSqe89BQe0yPB2ck59IBEHVIP/tGWZrGhsd4UMrZg5+gCgH+Y46R8lSp7u6seQALN7/pNjBiY6N9GnVS5eYxkR73NMLqOaTtCfcKbeSjfDY43G7zUDYZ31J0H/dP/wB/6QFPddVp20d9E1jllOPSmwHm6idhXDUpoY3YW1VGHTYmRHlJTyQZTUVREfOJWYc6LIB3QnYef9uxZJGqMbf3VRaP21VCtv19zfsYsPDVxcVOx9+wJmIcGUOqgicMOW9RKdAf09o1CYe5RNjq4uO1ZmSS2mxSSte5haKUOtCpoj+obQ7Cp4yS0fhRuy4ywjaoWGN155j/AL90Daqw/RMw5KdhnBCL8bUIBzRjahQckGj99Vp01VWnmtvJqNft/wBru820QYBpKvE5OqswHWK1VhOslh/hAfSW5OMw0iuCrEdY6K2E9VEI2fsUkY5RrL/CsVqofbnvIUZVdx4QYyumxWgbOS/48laAt3an94hUoi2sleScAXIxtO1Ag7Kae0DUWO+iY2uiOGedE2B3NtEMMDzomwCPeYrYDqKIQA8KX+lbM3Vt6q0bwQY525iMvyXic25iow6x2eaa09D6ItlG93k4t64k207psQLufi/0nBh1gp5qjOTrP7QL+Ul3knFnXEmlh3DYgHHcl/pOa4bwvTrOTstNzOmW5Vn6xULMi64KlXR9PdTWyHa2aiL3jiR3qodpBRZUZ0ev055FOhk5sWXTUURiaOqqIodgVvvrWErJd9EyFxNF+lKGGcNdEyFlKOCbhLSrGt5IZXSKLLkO6U7NG+1Vh6jRAXaPqjnM0guH8qsL9W5aDacOVd4aNvRDTxIqea8PlJYqP5OzE7bvsy0I4uU/9IXDcN6c553olVnI5aaHnSW5FsnOO7zRLBq2wprndJuRLjvRf2iGneFiDWDdlVrxrHf5qsbdWZf9q6Domr5IZp3KFPMp3oKKyPq7qDZGcOS9ZmL6hsV8de8y1f4v3rUL+l9yL8SPgXD+UXRHWOishPVajhvyjhisv8KxWqnujYfqsunJUH0WxNFu2izwNVdG7QUWWTo6ipON87FdF1hUYeD3UBiR13f6RfTiQrwXaOyyg0j49yJeOi4IfpuqrT5qyvBxFAqv6xVX4bqZtQYNY5aLxm6+IiacSJeEd02FWyjV94Vaaw180BE/c8IoCZm5NcP4Tn04kGarozpHk/2ht4cqrONW5ivA34Kea7jt1+Wr39TcxOy+cVqpF01jPmg2bpmuH8J1Bvx1QMR0qxDMO7KiXjfbeiYeTbUHu5TU8lV51bmJzYzvRWqxg3XWLxBuy3q9/OOqfIOcCDYOmTag2Xo2q+ZvGjuCdLB9iiLWosCt/Cs/Cy1lrLVCqfhaIezaKosRYrU4IMXicxRXf8kJvqaoTs5tqi+N+93E2NvRKqTM0OYi8HiRJrML0Hai1/Q9F5PGw9Ef0x3e7/tUePyriPh1RMDtRYgz7cyunbocxF9eLFRBsVdklEGDlP8A0qzs3obgqwv3/CKAt4c9fJXSHVmYvAdq3LQ2cORVxAHJ/wDpOLDxY6FCzlJZ5Kj+l2YiZuqC4fyqw9fhlAAcN+YnSS84ESx2+2xNsG7Ihnc2VTnDnB/aaWHSSxUedH5i8TqjvVzObctNEnKRH9T+CPJHI+3aUWxHSa1CHEt3JL08YjrFF313lcrleFeFcFb+U3DYf7v9J+Hg+6rPorT7Jqd6hjqrCixAdjcj6pzYeRQxBCGM/CvhdoKFZdd16P6vrNR5K5vW1WwdJ2q2XokRfTiRKkDtDloM+3MvGbqMxXQjiRq3Du3e4vH6HVWZTitqv8Y6sLf9prCeBJREz9YqrouuNAMPCfQqmJb9H/6Tn/chQyTobE1h6J6pznt3mZgV2GO73T5psZduz0VZm6tzESXaxWK08p/6TWzU2SVRJHFZUL/FP1b/ALTWD4cyOe3UXou/fD/aaGO3X5aAm5uDgiBzhu81awbr8td/lLejdzbmLuc4rUYozo9DDnknRS82Ix/ii/TyjqVJhzV8qEsiEqD1X8K2qtViy1QqlOwFNTvUqj2FisCMLRzRYFQItVJeexbebtqE8w51QxDhq2qEmHd+EGQO0koqTM0OYEX/AHIV4L9W2IMpw5ldKPh1RMDuKLVQ/CdVUn6hVOeTxo7Qv8Y7r7T5qk/I1V0w1jqiY37zMpZTeidATN0OYnPHxIk0YZ3/AAQjcOFJVOd+6Ciph9XAg+aawnSaxeMzddmourrDRBsXN9qEUjd2TMXf64Kp2SdW2JrPtzK7Ej/mPJPcw8WOhTcg7r6LLJ2tnXfGsV6uj0LMtWN5S2oVGjsxF0fOO1NGGOs1vkvE5PuV2J+xcF3Ha7FkxHmjh38kYJVk05K2i0QKB7K/hWq2uqygnMtUdU6qJ9larVlkKn47a9jZnBNxVFnROVkB6tqpM3qqsx41ZVXYY7zbT5qwu2wvXjDe2oyxjeiQEDuCbCrZR8SqMrviRKsTtO4gyvDmXjN1F6vb8SKqLWP3DYgyYaSVRM45VVYX77rVYBwpkDP0GqL6cZqpB0SUKsl6J0XT9bNirH1ChTY68KZETt1GYi77kKpC7Q5asd0Tq57N5mYnOb1somtjduTZfkvGGpvTpPrh7lXDHd7p801p6cRReMNW5icXc4rFaw8Keh/hBmJHxL0XkcWG5UgdpFasqOV30UmFcB4SdCQtFaqKgVAidiGICGJBVQhT2lKq38K38Ix0VOygVY1UfVCRw0dVDFyDZbVZ8D99tFY13CdRZeJbqaoSyjWKqrh3b4sQZD0SLxW6eIjIPiQrwHajLQZ9uaqLsU34dyvYeMLE1kXRKi2fo2hEhnFiVYH7jaIMPwn1RE3WLgqwH4dCrYToaKycddyvmGsFyrC7VuWU1p+HKqTt0N6L/uwq3DO52IMeOFJVF2KHw71Vh4sFD/KAPJ9FbNylTnHqw9FbhzvC0+aaw8pbV440OaiY3b0OWmtA3JEROzQ3BNeDxdifCxzax6qF8rHEO2qRgonM29lyqVUpw2IaI6KqEtEJ0MQELTzQa1GqJPs7fwixZaLFSiqVVXIPLeaGKeOSE7X7HBZUDttdqsmb1VCzpBsLKq6F3EbRZDHcJ9EGTN3HVTpXDisqrsMdW0KEZPAfReMN/vIyxjeiqrYNWGitlp3ZFmyN4sdQhJhncrSrPtPtVZ26uuCzj1Q0VYefdQZXhzLx27wzFfD1xq2B24ctUmGk9yvxA6L1m4d3EgLT5qkXw5LUBjOo3DyRkDdj2IxRSbicJot1RuDlOznoozWJqmb4rUNwqTeTx3UR3j6siGiOnZRW9gkcEJnJuJqhKD7OvaQi1ZdUWItP0RFFG5nNOfh+kJ23QoSuHVVNxUo2W1X6hjuK2ithdw3UWU9u2N9UHTDfbVGWB2+yiDWu4T6LLxLedUJZRvRVV8B/Cy4XaSUVHM3XZiM378OvBfqbUI6cJ1VWYbxqs4dUNV4DtRlprftzVVZh0VTnQnjCxMjiO4U5mIbuPUUgeaStU0DDtjYoTIdla0TgabWrDFoOxTucRsWF/KxVAoB4QWJNJmobik3k891E94+rKm9lCqHtBRPa2VwQxNEJqoPCqCrQqU9oQCrFlqlFaq07Kkc02ZwQxVNV+ohfqrIHaFZbx1K6UflZgdqyishcdrqFWSt4bqrNe3isqs2J+yyiymHrtWW4aPuRfK34dyZSRpHNDD2ElRyuLtqe0ObtTBR6ce4m8cJ+8o95SbGrDEhyxTjasJtWL2KF9Ap3VP8ACdPUJzqlOmJVxVT9FUruouaOalkuTeypVT2hqLe3YvLsvKE5QxCzUD7MHsqqVVqywixEKgVAu4q00KE0w5oYl41QxN282iphHbzqFZT28J1VfM3iNqmyxSbLaJ+FjdtuoVHnc20oiH02uogHMfqjtbVF7Q7YtWoHvoCrEzjhP3lFvFTnuqKQByxEotTJMpSSZqDiETVCvZ3aJ0oas4LPVzijcefrO7ztqxz3tbSPamYydmwhDGO5pssUm0u7yNJdnIevUlVI1QmQnWY0runmqld72dfwra8kWItVhWWrarLQYrVBqn6JnHXUiO8ulHiBfDQ2vQZ3UNj1eLEx1CSjPsTH05p0qvKqUadlyzUZyjMVU+uPUcL9rUx7GmkixhgDu6FltLNidgpr72nYoj3A3mPXiZVHD1CLKKhVHhCRwQxKGICr7KirRXVQHZRNjT2gdhKgK1Cbx11K6rkNrUeIFUZeqJtcjiKCic/vJ0uzsIQCtqi9qzgNiMqzkXE9lWrZ9PaA2KaLN0TsPLHtJqjiXx7Cyqw2PiLKHVMdG5xKGqPqh2iieKbdql2zfhMFHqSPulUo49tzgmTEIYhZwV4VPytoVT7Fqk7cOU6hCZscUJtiDqFCdVKuP1VShtRRerws9HEVRlPr0KofaEVQIaqRnnVFjT0I4OONRsjaEEfVuQkorqyouo8J0lWpx7yYnqrUSFbRbRohKUJ0MQhKPYtUnaw2rNQ5olUVO3MARxFFnVV5VVbXsqPp69Qqj3W9XKitVqIohLRGSqpVAxsRc1yLUBTsjTvUEjghiU2dZlVa1UIR7GhSBW9lOyqzUZUZEX1RqefuNQqj3LVW1WirRXK5E1QjqsuiJogI9SpvSGGgNCUydj9Hj/aP1QFUDRO9S4dlKJpTZHDVDFAbEH1QAPNNcpHKoVyMtFmLMVeyhVtPcqBUHrVV3usQbSj16S9CYbGGt1Cf5UnoH0hhHh0GJLwF6O/UBgbiGVoupcvXbyRFe2p+quP1WY5OlPutqt+RUQyupBrCO6muNaF1PJHeR09g0IjsoVQoEJxHyqhVD7lX2DNFbRadjfllSqn3pmiLkT2N+YXK5UCoPeie2OKjap+w+82q1XK73Cqu95J9RsxpRVuJ94qrlX3a5U/PvA92qrlX5m33O5V+SXK5UKofegFarVQKgVyu+VVVT22q33UDtqqqvzC5Xe0b6tAqBUVyqq/+At9Wqr20CoPnVVcqdlAqDtuVf/BKqqqFX/6ev//EAEkRAAEDAgEICAIHBgMGBwAAAAEAAgMEERIFEyExMjNBgQYQFCJCQ1GRIGEjJDA0QHGxBxVQU6HBUtHhFkRiY3LwVGBzgpDC8f/aAAgBAgEBPwH+OE2WtaL2JQJub6Ar3bdpXguVbEzvabrQRhBVmt4IfIWV3ce8VZx2kRzK0/x7Wp5xTtLnaGt0lZP6V5GynVyUlJVYpINegqfp/wBHYJpaeeqwvj0HQVQ9OMg18magqrn8ip+n/R+jnME9YBb5FUPTjIOUpxDR1eIn5FZR6UZEyU4drrA0lZP6VZGym8No6kOuso5Vocnx46mcRhUnTjo5VzCCCrBkJtpuP1WUMr0eTYBU1M1oXcVkvpPkrKz3RZPnzpbpOv8Aun9LcjMrv3c6p+tg2tpQNwD6/wAd744Yv6LLunI9ZjFjhK6Aua3pBWtadHf/AEKZk1mVOls8M78EbnLJHQHJOTp4qiKfOuI1L9o3Rqhya3tjGEmQ+pXQLozSOoBlEAmoaCVXs7f0omhyjKWR3tpuv3HlDJOV6X92PMlLe9x7rp9lGtnraKkdKWtNgeYC6SdHIsh5MydlOFxxnSdfyWVcoz5Q6DRS3OJoX7PsquyblbDI6zZ9CrpCenUYB0PeFDuo/wDpH6fx2qq4qCF088mCFmvQpuk2ScsZMrocnz56VrTddABH+/q0eLvfoVVRV9V0pqIqFxbLi0W9V0Gyb0no6wvysS6LhpX7WyP3dA0mxcf7hfs4Dm5Ajda4K6YdD6TKsktXkyZra7XYHTddG+lFfkeuhyZlYYtOG5C6cSCo6R0kuO0TiP7Lp+W/7PZOHhsP7KoD4egkbm7P+qo6TNZH/e7B3oD+pWTa/t/SPJtUdp7lDuo/+kfp/HekEEtTkyqp7YsTTayoq2s6Nz10XZXPztxx43X7OsmVclVV174TE1wJ9wVNWyZG6UT1baYy2dfjwXR79o8mWK2OjbkowA6L3/0C/a2zHRQ2YS4+l/kv2eRSN6PyQuBa9zVXT5T6L5fmrZoXzwud6myfJU9LMv009PSGANI4LpvkDKNLPSVwjLhCBq+QH+Sytlur6RUtLk6OkcMFgf6LLOSpKHodFAWHGRqXRXJ3aeiNdHLD3rauZWQqKopekVP9AcDX+nzUW7j/AOkfp/HbYjdwu1VWRclyy5yalaS78lT0tLSQGKCERtd6KTo5kUudM6Bj5X/kqfIGTqOQVEMLYnD0sq6ipa6MGqaHtb6hUtNT0rc1CAwfJT5Moq7uVVM2UclR5LyZQO+gp2xPP5Kooqeo7s0YeHeulU3R3JdPI58dK0EH0VTSUddDmalgwjgqXJlJSwOpoog2NyZ0fybHPnuzjG1DQLen8Ev8vxOlwI1XXSqtrWSw01M/S3Sbe6nyvLBkWKrDrTvFvXTqUWS8pupGZSfXHE7vYbKSpq6rJoqI3GOSl2x6qsy3CMlw5jvzz6PyPFUUH1JgcbyvGlUWUzQ1tTR1brN1glZOru2ZSqKwPLKKPVfUo8qULzhzoOD5plRG4GRhxBGWnqqjeWwfNPy1Rsljp87aR2hT1tLBI1pmGcdq0qKQSC4/HXHqtCfLh4rtbfVdqCFQEJWn8S520dWEH9F22iqcoVsk775nQmVsdZRxxRHDGx//ANlX12UKGlj7JQdsia3/ABALImWP31TTiakFPhvi0/msiBv+0E8c4tSB3dvqv8k1m0G6xay6d6RTvpu7UsPetrt/+Kjiiq8iNiY8RMcBiP6rKUOT6eSBlM8ue/We8snVslLSVMMh7zNXNVklTRmKoa7RNco5WyMaV8tQXdvds2Dzp9lkyD945UopKmQ5sA6NPL/v+yiiETQB+D1rUtPojfq7yDox48RTqhrfkm5Qg8blLWtO50puVA02eLqSpE+xJm1irhrfnRyT6iQbcduaLqd+yTGeaaZG7E+JB1W3S6PEPzRrA3bBj/qo6tnhnxLtR/mWQqjxahUs46Fjvs6Vf/FoV1YdV/l9vXyGKkmk1uWR+j+T30009THd9Qfmq3I2ZyjJFQMLImaQ3146/dM6UsbQS0c0Lu2sFg2x/VZHkq20U8Toi2Wqd/dVeRWsyXBPG36zDp+etUFSZaN0722MTdSoKd2WKyarqY+6y4APsspGqybK6ksezYrm19XJV2VKKqkyeykjObjPeOF3y+SytDM/LFI2naeyvti0LLdEX1dNDA28eH+yhr6SijFA+k+u6h3f72ssmQ1LcrxyTNw3Hp+DuPVSVDY1HUMeNakrw3gm5SaRqRnnBJxLt8w0HShI3wvwFF1T4DnAjIPNisrxHYkwn8k01B4B45Jxi82m9im5vw1BbyKxScHCQIvLdunxLFSP2xmjzTYWjYqbIipGzaUckTH44EDT/wCIxnmmZ4apcSdPWN1RYuaM7nHvymLkoZ7aps5/RCp+aFShUNQlaeP272Nk7jxdrkAB3WM7rE+KG2IswyFGlgtum5w8bBZinBOGIBy02DXNuEY8Dbsb+YQY1oxQsDSUYYxclgOLXouuyU3gY3D+QQijvnMIt+Swt0uLQT+SzETvpDC0EfILDfvtaGn4ta1depafWyc5g29Cxt8D1LUMjHf7y/ekOoNUtc5w+rtxL95Ts30Slrs6NMub5JslWNzNjCfUOO9g/qg+F2qUxLFIdh2cRfINuG/NDMv2XmM80GzM2JA9Of8AzIM5zQzDvCYeZKGndz35JzpxrizgRNL6Fh5pjHu3U3v/AKoiYbbA9EweNhZ7pj8WxV4f/avpv8IqByCObG1ERzTTH4J83yKa+o+ThyTpGjRNEiKR2wc0eabCfBUYkRUDUBL7J77b2nwpopzsvMJ5oCp8qpzg/JZ2obtRY+a7YwbURYm1TDsT2QqyNcmNNq12lnFqE0J+SLgdTuq3Vy/DXCuFJII0KlpOtS1IaNCOUbFPrcY7hsn1Na09w6E7KErxaZtlcvN2SWRNU3/jCdMPNZYq7XbEuaQ7UNl2f9k6Q+dTX5r6s/VIYDzTc83VLnQnEeZT35rHSu8RhPNNY/yajOImdu3Hj9kcy7baYymi27nThOdbc4E4wnXCYzzQ0buotyQNV6Cb2CeWne05j5/5IZjwSYPdAzeBweOSe7FvKdAQ8HmP3Qzg2Z85yTs6dqK6PZzrvAeZTW/y6nHyRDvFDjH5omnG0DGeaY0eTUYUDUjXaX2Uk0L9E8CDaXyXZv3WaOttSvrg2YhMOQT3MdvKfNpnZuElihnhqnxozVY8jHzQyh/iZZMrIDrNk2qB1OQnQqGlCVpVx+DfUM4FdpKL3FB7k97np1Ni42To6luljro1ErNEsd1jhdr+jQZIdMMuJF9WN/HcK9O7a7h5oMj8qZXqW+HODknSUz99Fh90IojuKnN/JWqmbvSOSdKNVTT41gpX+Ixe6bHO37vUhw/IJz5hvorq8bv+WmxO8FXfkj2lutolHJONMN9GY/dNbG77vUW5L65H6TDknOid94psJ+R/yTWU3kTGI819aGzIJhyTi4b2BDsx8ebPNBsngq78k587dDos8iYxtRmP3TLnd1FuSIrBtkTDki6MbdORzTQ07qXNfmj2geYJR+QCdm/FBbmgGHYlzSGfPm4h+SOgHOU2c52Tey+BpiPNNbJ5c91iq2bxgk9k50b9qLAVmad2uTNJsMjNxU4gsVWzybjknSwu+8QJrKY7hxYeazNXa7ai4TJKtmuH+qY6d40w25oE+qEtkJ1n02Vqu08erXw+0OMcU2a2tCYFZ0ISBa+Kt/Lcu95jLo01K7b7yfQM8mTNrNVsep+cCMj/ADadYqV/DNlNZJ5MyMlQzeQ4wsdNJtRYDzQaH7uosrVEeoiT2TpYvNhxLBTybt2Z91gnZsS5z2Rkm8cCd2Z2tua90yJvl1duSJqG76LPDkjJSeOAxe6a2J33epwn5j/NWrGekw5J8kbt5TWTeycJDEeaEcjdLZ86nF3jpcXNEUZ4GM80xg8qo/og6sGuISjknuhO/hMR9/0TRF5dRbkgawbAEo5Jz3u3tPbn/kh2XjIYjzQDxsS51OMnigvzRfC7Qbx+6aP5dV/RHtVu+0Sjki5vjpy3mmhrtmTAVarZsPEg5I3bv48S+qO1ExHmm5w7qox8lnZo9D4RJ7IyxHeQYFFLSDUf1WNkmorvN1Hq1oR3QjKLHNWN4+a7TU8IP6qKoqeMFuaFQOKEzVcfYv1IdYcUJiE2ZCW6xg9ThVeqYKninUsDk7J8R1OsUaepZsSYgs9LHolgxJ3ZTrGaPNMixbmTEj2iLa+kHJGaB28hshHSncSWPNfWW6jjCMx86nX1J/8AyzzQhm/3aqur1zB9K0SDksdO89+LNrNx+VU4Vhq4xcEPHJGVnn01ysNK/wA3N+6bHO3cTY/ZOkn82O6+iPDAhCPJqNKvWN9JRyTpo/HS2TWxP2XGL3QZUM3Uud9lJJL59Nf/AL+S+rya7w+6bGRuajEFjn8cOP2RdF44s2U3MndT5tfSgbYmTpGeZS25oCmdqkMR5oNk8FYHck507dqIS+yc+LjEYkwF2xUW5K9T4wJRyTnsv34MKApfCTEeaGIbE+JZ6oZvY8Q/NCuaPJsmVcejA/Cm1ttfeXah5jLoPhfq7qDIXbPdToYuJujRvGkIwzD8kcQQmIWfQqEJQsYWLrfqQ68QWhYVcrGUJU2YHihIP8SGH1XcX/phd47adTQu2m4k6gvunZtCmqG7l2cTpp49E8Fws7Rv8GaPNCJh3VQvrrP+YOSMw8+nWGjO6fgPNNiqPLnxBOfUM38NwsVK/wAq3uhEzyKm5WKrjGoPHJGWLzaVZunl3cuYPNMZOzZkzifJMNuDQr0b/WM80IT5NQi6sHhD/ZZ2++gssED93NmSmsqmbM2eHJF5G+gxK1M/VeI801ttio/oj2wbLBMOQRfTv2qexVoPBJm0BVN1PEo5Jz3+bS35q1GeBiPNMaPJqP6L64NcYmHJF8PnQ5o/JNwnYnw8lhqtbXCX2WJ3jgxLFS+IGI80wW0xVGc5Jzqr+UCOSeWHeR5tMFNwnI5FNbPHu5c4u01w1xaPzC7eCe+C1R10fh0oVcvqu1u4p0oKBafgxrOkLPqOS+tTktOlAteFi+a1/Y5whdo4ISIPQKBVrKwOtPpoCNSdQRnUuy1TNh1ws9MzRLHdZyKTeQ4EIGO0xT4FasGzJjHJGWQb6G6PYncMB5psL3bieyx1bdsYxyRlgO9iwpsER3E9is3Xt0hweOSMzvOpkHUjvWM80IpdcVUsdezW0SeyzlO7fxYUIojuKnNoNqGbp4PsnSSjfw4/y/0R7DJtXhPNCJrdxUXCxVLPBiHJOkpz94ptP5praU7Mxh91m6gaYps77Iy1A+8Q3CxUjtbSw80Ix5NQrVrfSQck+X+bS2QbTP1OMR5oRVHlygouqmbcQkHJE038sxnmg1h1VOHkh2zgRKOSJtv4cJX1d+smL3QYW7moxImpZ4BL7LOwHf0xafzWBhPdnzScKpoGbkzoWflaLyMxFR14Js+PAEydj+K7rUXIm6urpo7ynoxLqT8muaNBUkRHBNBFrj7G/wAurUsZCEiEiEt0HfNXjWKNX/lld47bLowxO3ifQRndoUkse5kujLWx6HRYgu0UsmiWPB7rMUb9MU+FNjq49MRxjknVBGiphV6V/DNIQfyqpYqxnDODknTt86nssFG7U/AeabBP5E2IJz6mPew40H0sm8iwFCOmfuqqxVqqPYdnByWeaN9T4leik1fRHmhFL5U11nKiPQ9of7IyxP8AvFNhWCnO4mzXurV7NThKOSMsvm0ytRO9YzzTYz5NRdOdXt1tEg5IysO/hsVhp3ecWe6bBJ5NVi5Imp8yK45LO0nmw2Ka2LyKjAsE/F+dTpSNE1PiVqZ+q8XumxyndzWTnVEe00TeyEscjvp4bc0+JuH6vJg/qhUPjk28QVQyCrjHewOCD3skAB0JjS+MFWQag1Bqbtdeh2iydSMen5PaNSfRuCMLm8ES4cF3SrN+zzhCFQhKsd+KugL9bomP3kYTqCN1822yNNPHuVnqtm8juF2mkfvafAs3Sv3UmBdnq2aWS4gu0Ss0TRYkH0T9qPCswx24mwrDlCLzMY5Iz/z4rq1A7hmTzQpifu890HVMO2zOeydUQu3lLZAUjtiTCeaEM+uJ2NGepG/jxhZ2kdtQ4TzWZjduJ8JTWV7NTw8ckZ3apqZfU3+sR5psRG6qliqma2iUck+SJu9gTWwy7p+aTYJ49ioxpz5hvI8SEsDtDos2hTxv0xz2Tp56Z5uLhU00VQxwk0OKqIzHqKopdFjpVS20pVFuXKo+8lRfdXJm+5qM2j+GHrPyQDjxVncV3eKMTHcE6ka7gn5NcE6ke1WPp9lf5deNZxZ5CW6Dr8ULnbkUgf5UiArr9yb+ijbPb6aW/JOjgdvGp9FC7TG1GiqI9MUl1nK2PbjxrPxu30WFFlE7YkwlCnqPKlxIyVMWiSLEhLTP3rFmKR2mOfMoQzN3E2cRqJ2aJ478lnKOTeMzXuuz/wDhalWrmeHH7I1Eg0SwL6q/X9EuzcYatYqxnpIOSNUzzqZYcnO1PLCfzQik/wB3muE6eWn37caZNS1XgwFVEDotMTlT1TgbSuVa0SC7SqZzIT3tJVf3Y2udpuqfCZGgaFlErJ7b6VXutIVk7TE5VH3kqL7q5Qi8vNDdj4YevurEB1ALD12HonxNdwT6K+pOoJW6k6GpGoIh/rdCw1sugG+qBt9lcoTFCcoSrH81rQ6rJzYX6wnZPgf8kcmyRaY5ETlCPZ0hdpDt5FZWonbQsSuyyt0wTXRdWs2xiC7RA7fw2WChfsHCea7PUa45bhY5494MS7TTP0TwYEIKaTTBLhTxPFp9Eyse7QQqqmZbEE2QsdYFTnPQXQ7oTvu2lN/791UaKcqLTPEspANhaqIh0rVlIDuLJwBzirWOc7UqIFjLEa1JSEy4k2O0YCjpqdhuG6Ve2hrdCwt9ViIQxemFNic7hiUUODT1sYSjCVhWKye75pp67FXKu/ivzCNOx1/o7KTJ19T7I0Lm/NOYW8Ps9HosTerGhMhKs4g4K8S7vBWH+Jc06IO1sTqJjuCOTpWaYZbq1bHtabJ1Yx2ieKyY2kk2dCmidT6YpLqKsde0neVVaZukJv0J7rb8050ksZNkzOCQoBzoiSV5ulNbakJQ7ziPmpdFNyUeu3zVb93PJUumaNV0TpImqkpyyQKenzuBU9LmsacxrzpVmsCsDpQdwRcToaxMhqH6mptE7im0ttYTYGt1DCsDRr7yeRbqKbrV0BoVScJUcrnJs5jTagK2LSPjsOOlEMKdSxv1Nsn5OcdIKfTztviGGytbhiWJvAY1pOruIFHT9kHIT2QqEJroPui5vqg5vqi5F/qq1uMalH9GVJpp7phtdW+rX4olM+6rFpKaMNIvEhuSFHEc8SnsxRWUNGc4XKSASgBMpWx6V3Vo6u/6IRYtTLIUkruKFC4a5MSFPGNcWJWHp8BQUnW1EqM3VYNKpyLrNB4UvdkCYfowfjqJS3Uu1kOUcrza4Tnt8TrJr8XyToIHbQxJ9DCdjuFPyfN4TjTonN4Kx9PsSOqwXdQNkHoucg5yuUGqsGEK93J/3ZatCH3ZOTPupWaN9SMZ7PZCi7t0xndsuzi918lobwQu1HE7gm07jwTaK6FFhTYGN1q1vArx8TZd3gFd/A/C49UnwgqWHGmUpj0p0z2aFLd0gKiP0YCwhYQgj1FGF2m7lURvxaHKFzoqfOKoe6RhkVLKcY0ouuwLFpag64ajhdwT6Zrk+gh8OtPopvBqWGTiEW+o6gB9iR6poQRVXpaU24k1cVILsRpiZLrDdll2Ul6w6LIMHosTDossLjqNld3os248E2nedabQ31ptGGlNiYFYdQB6r9WJYlnSs6UCijqQ1J/D4dSxK6IYeCFMDpQbbQnNKa0o6EOuWnZbaRomuN8ScAYM0rNDDHZQx2fqTR3An6C1QC7W80YrIX4rC1XdwTmRu4J1EHFPyfZPpy0qx9PsCfVNKvoQKeMbUylBddW7tk2MXTXWBTX6USm39E2medYsm0TeLkKZo4IRtHBdzgFYq5Wk8eu6xK6CsFYLR6LR6Jp6jqQ1J/D4wEQrK6x3WtPaCmxfNEFAkIk8UJEACpKcHSm09isNlI3FxsUAxjL4+8g7HxVgF4U7S5MbZOd1WHoiwP0WTqBrlJQFupGGRh0BEP8ARDQtHFYQVxCZwVgiQrN9Vdw1BYHHhhTKdx1DEhRk60ygbxTaWNmlaG+H4y5B3WGoaFfqBusKzawJgsnlOTU74yUCrqywWWpYStXFB4KJCc1CNFrmoyOCZNdXvrTgTH2iPSqXo/larpBVxUuNinoJ4L3jcORWFx16EToKAu5E2Vr9eK6s71QIOgp2b9EYGP1BPoL6lJSuas24cFY3CaDoTY3u4IUpKbk93EptGLaQmRNbqGFHCP8AiQLTq0JwcrPQHr8ZCA68SuUAg1YUDZYliVwrXTk1OWFYUCrocU74Rr6taw3+En4JCQ0RsGP5LIXS3KWSoGwlwkiHl2H6qDprkOvc+LKmTmwMdx1/oF0ifk6TKEj8md6nctQTH977EBg46U51kAPROA06EYISo4IQrD0/AgLAsCLU3QnOugevCsKxLF1uVgrBYUQih8J1dWpY7fEB1juyYhoKzbHSmRr8L010jLMHeYeKxANbp1o7KDe8fjspEyN/ErVrTU7igI00MH4EDqxrGsd04pulEdeJYvhPxliw9V0Efs29VirFYk5t/j4FSa02W4TtPwM1fgblXPVh68Xz6rFWPwlBH7HCi1FDrxLF8beq5Vz1N+PgVLrTY7Ii3wM1fgbBWHVi68PVcq5+EIo/aWWbWHqxJyb8OJYvht8TisN0E4fAzV1OVRUWeqc42fg7fNYesnquFcK5Vz9oBbrIusARjRQ+0PwkeqHFBEX+BmrqcpaTE8FBuZaPweJYvgJVgrD8LZYER1H8CNaOtDUhr/A4li+DEsSxLCsP4uywrD+BGtHWhqQ1/g7lXPVhVgrD+BYER1FA/aNQ1Jyb9jYqxWpXsrhXCusP8JssKwBYbK/yWJYvsWoak5N+xuFcLErKwVgrfw6ywFYD1FYvjb1N+HEsSusKwoC38WwrAixafib1N68SxLCsKt13/jRai1YbIGyJQVyrlYVh/wDIllgVkArBWH/w8f/EAGEQAAIBAgMCBwkJDAUJBgQHAAECAwQRAAUSEyEGIjFBUWFxEBQjMkJSgZGhFSRicpKTo7HwICUzQ1NzgoOisrPBMGN0wtEmNEBQZHWEtOEWZZSkw/FERVTSYHB2hZC14v/aAAgBAQAGPwL/APIiSWQ6Y4kaR2sTZEGpjZd53Dmx3nl1caio2bS6O9ayLiJYM2uanUc458SQy5mVkid43XvHMTZ0JRxcUlm4wPJiKhosx2tTNr2UfelamvZRvK/HlpwosiMd55unDxSZmQ8btGw7xzHc6nSwuKTjbxzYhoqXMTLU1D6IY+865NTb/LemCrycpIGAuZZhDTyEA7Ea5qjSeRu94FZ9PXa2442WX5jBNLvtCdcM5CC7FYJ1ViLc4H1YNRXVMNLCCF2kzhF1HxVF+Vj0DfgQQZrFtWICieKopQxbcAr1UKBm6gb478zGfYU+tI9oI5ZeO99A0QxseY82JYssrO+HhUSSKaeqhIQmwYbeFdW/ovj3JevtX98x0mx71rT74lYIke1FPo3sw36rb+X/AF/X/wBjqf4L4P8Au6q/fgw+X1DSpDVZpXRu0JCSKNpO/EZlI8noxT5lT1eYyTU+00JPJStExlhkgOsR0SseJKeRhvAxBWUk9XJJX1c21WoeJo13bXiLFDGfGPOTih4QvNVirgqZikSvF3sTC7ImoNTa/F5ePy+rE65zUyU0NRm08dTPuvCNq8US3kjIjUcSO5FkG9uTFsnjzCpipjTVVJVbB5Tq0pLbawRhXtJq5ANxseuKldjsaWiiZIvJ2s2tpZPzhXQvYgxlVVTVFRI1ZcTibZmPXso3vDs4VMY3vuN77t4sb0ElQ5klWpjpy7X1MtPVTQREs29m2aJc8+/FESdMVaWoJevvi2w/8ykPtwP/ANR0H/M03+vp6upfRBTRSTzPpd9EUSl3bSikmygncCcZpBllZ3zJFl9TJIve9VDpTZsl7zwqDxjzYP8Au+p/egxUw5YZRXvmdaKfYzCnk17Wc8SbUoQ6dW/UPThpc+evNCaOVAKrNFrI9uZIClolq342lZN9uS+/fjKf7XN/AxB/aav+M2JcwySppVzGUmSootrHsqxwLmSPS3gqg6d9+Ix3sQdRKZTnAlahjk73kjqFPfGXm+i8V9+xG66bxpGpLb7ykc9JSfutjIPjH/lVxSf7wb/nqjHuxDxZqHOtk0gA4sctLA8Tk+atRCoHXPjL69Rp76zrKpSvmsZ6fWPQ9x6MD/XuZ0cVtrVUFXTx35NcsDol/g6mF8Zoj0m0mqaOfL5I5XMLU8hI47DZkmzbiu65PKMVWY7NhS09HJT7Sx0tPNJEwjUt4xEcbE25LpfxheXMtjt+9MzrpBDr2evVLOLbTS2jl6Dijy33HWn77k2W290Nro4he+y7yXX4vSMZT/a5v4GIP7RV/wAZsGqmpS8lJVVEiLJeNaqnn2sW0im0nc0Ur2NjY3FrggCSjy8RVFUsEK08bbXdEAGnmm2a8UDlawAQL0YpK/QXpJaKnpWnANlqqfWuh+ZdSaCL8ulvNxldD3jsGpLAGOV5zUzNGkS6EWNTHyNuBY8a19xxRUlSumdaiGaZOQxvUVE0+zPQVEoB+IccJKIDU807bEc23jpoJqf9HbImMk/3xlv/ADkH+vxJW5bQVbjkappYJmFwAd8sZPIB6hhYoI0ijTckcaBEUdAAWyr2DDO+S5UzuSzlsvpCzMTdiSYd5J5cRz02U5ZBNHvjlhoaWORD0o6x3X0YVK+jpaxUbUi1VPHUBSedRKp0tjYUlPDSwi7CGnhjhjDHlOiNQNRxs62kp6uPzKmCOoTlHkyKRzA+jGiipKakQ8qU0EUKk9kai+8+3GmRVdTuIYAgjrB7MbWjyygpZLW2lPSU8L6ejXHGDbGwrKanq4SVOyqYo5otQO46JFIv12w8dDSU1IjnW600EUCO1rXcRKLta2/qws6ZPlazI4lSRaClEiyhtYkD7O4k1bweW+//AF/R0GU1c9LUQU2Y51UNA7q7QZdB4KFwjDaRyVEltO8cXk3DBz6FA5lpKaaliJuGlrdksCHTvazyqTbfYG2FrpeFObJnBTahEkiGUxzkX2Ry/ZFZIQx0359zaebEWbUbS0mb5XUGaopoZpEiqJ8ukZKylkRW8NTugdgjX36R14pq7LOPXZyIKXLIuVhV1XEIt50R13NrakAPLilpJp5quaKFVmqZ5pJpZpbeEcyTMWsWvbfuFhzYzTg9mFRNOVJzPKKmqleeWWgnJDw7WQ3doZN3KTZjzDGZ5xt5RlFIxyvLYFmcU1S0JvWV7xatMjajZCRyXHKL4ljpsxoah4FLTLDVwStEo5WdY5CUHLvOFnp5op4ZBeOWF0kjdelHRiGXsOMtqI85KyQtXxw0NLmMIpswkEeiqWenW5rHg8aw/BsbnC0L19GtY9tFI1TCtQ1+TTAZNTX6hho56ylhkSDvqSOWeKNkptWz74cM11g17tR3X3XxHNE6yRSoskciMGjkRwGR0ddzKVYEEcoP+oFirauKGSRNaxm5kZLkatCqTa4IHTpPQccVKuUdKRKo+mkXH+Zz6enXHf1cntxx2ng/Owlh64NXtx4Gsp3J8kSpr+QWv7P9K4Q1OY1+X0/e8NPktMlVVwQu0aa56/iSyDiGodR+rOIqFJY6iLK+FVNl22VxIJqNMxWWnmR1uCphlQAjdYHFP7lZH7saxJtz7o01B3vo0bP8Op2urU/JybLfyjFdJUUAy6aizGoy6en76FWNrTrEXO1WJR40ttwI4t7m+JEvN7lpU5ueDyuoFL3+Ngc0FPbxtIMuz5tINt/cy1qAyjO9pWCk73AMzUPekpzEHpiERTsLC2KagyutNDQT0VMBUheP3sCj1SSjaLpd1Eqyb9xdr33jHBv/ALPxUonjzmGknqMugtBsZoZ0eCashj0TSm19BYvZXPMccIaSQgf9nKvMdgrc9LKvf1Ff423KjsxwAVwTLHl/CGqn5228+XxVNTc852krD1dGJVzOaKTPqyGoqKmsky+tlq0zCfW6FKzvQ6dm+gDS2jidZvkkmaJ30P8AsbT1U0Uy3iqZxXGLVMl7SLqdn0sCL6TYWGI4YkSOGJEjijjULHGiAKiIi7lQKAAByW/0nR35S6vN74i1erViOSsmCbY2hRePJJbexUfkxuuxsBqG+5GLDXa+5laGXd0siSal9RwYqGjklplQe+jE+t3O87KJrWQcnGFyVPNYlhLKYgCw9/U0ax3B5PetmU9vrwJaPN4YlWMKtLSzeBPOXdNpeSQt0jcLDpJ1xRQVHwoZDTTetWj+o4aTO8mzNZCAHqePPuQWHhW2fIo844vR59VZZJ5sm0iUdp0hfpMasvzjLc3jHNII2Y/GeG59cmPfvB15QOV8vm2g7dC7U+0Y2dWtbQSc61VKbA/qWZv2cDvHOox0JHW7Bj+oZlPotgXmEy23CeFSD+nGoZvXjw9GjfChlMf7Dq3148Jt4Pjxah9CzH2Y8FW05PmtIEf5Elj7P9EqamTclPDNO5+BEhdj7MU1dmuW0FZX5kZcxnmqaOCeRjXTPUpx5UJ/Aum69gb4zzIstiipRmuVUWb5bHEqwwJX5XPoeKJAuhGYKhbdz3OBDPT5gueBNm2SrQVRq3qgONFEdnp031EXYHQL25sZxRWCZ/m/Cipy+CONvwdZWU1C1ROrr+Lhjd218gKrfFJS5Xxa/IxFW5a4XjPVU93kDKN5252oZb2Jk6sU2ZQkCOaEOwJHgXAtNE585ZAQfi4zDhLJxqbj5VkoPJ3nTyWqateY7aqDWO4hE0m+K7g9spJcsOYUee09PGC+2yZqxWzbLkiHjLFNxtG/wbM7WAxweky5ZmynLM5o6mtr1oqiGkpdIlgigVZIQxazObKu4AWuTbEOXIl6bhYMsSq//Z6ra1Vv+B0DHBGLz4eESevL4QSOvC8H54qkcI6OCahpqCOjqZGqplLpRzQS7Moacroa5YWCk8gF6KOuk21WnAqEVMhtd5/dNdq113W133/6HxWDc3FIO/owkdXUok0ia44Lgyst9N7eSC1wCSAdJtyHA98CO/5ZWiX50ro/axJTw07bKN9PfUsbsk1vGMaBlIjvyNc35bWw26La6DoXvjZ6pLHQHFRGuzW9r2LkDmPJgys3fSFi3vSZokAveyCOQBl5hcH04koM0GY0kUthI4hjDNGOWMvs1JjPPyk8jGxIP3u4RInRDV3Rezw3F9mLvQZbm0PnwFdVurSyj1DH3xyfNMrf8rFrMd+ldVh6r4+9fCxoeiDMVIXsJksv148LRZPnsPnQtGTbp8kfXj748Hszytueam2myB6RyLj71cLailPNDXqWTs5lxeP3IzmPzoJEjkI/V6R7Tj798FJk8+ZKdJ1HWJdmD9JjVT1k+WS/HmiKn9csqr6xi+TcK++lHixVLJVpbmF9pL/DGCldlOWZxFz7PQGI/NSMP4WLZxwUrcrbneBHjS/TxdiG9RxfKOFVflTfk55JI4x1HUsSt84ca6HOcrzqEflFj1EfHhU+2XH3w4NSSgcsmXTGQDr0LtfaRg6+EWdZRc/gKrKKORE+BrpV1aRycZb+dhXg4aCpT/6ZI6Ojkk6jxhKvqvge+TIOiZEkv+np1e3Hh6WGT807xfvaseFSoh6eIJFHpRr+zHErYeyRti3yZrHF1II6Rv8Ab/Tfb7dPd5B9z68cn1d3k/pSzEBQCSx3AAbySeYY0Cupr/nV0nsfxW9BwKyrk4juEhjis8k7nmjGqxAW5JvYAdNgbabL+fQTfNSqo/axGcmpmqKh347TINEEY+CJPCyNyLa4FiW5gffqzpv3iSGNkJ6l2cbBeoHECRZxBQCK573AkpxNI27VKZJOZdwFyN5O++7a03e9ao8unkCyW6njaM+04aTPMqzCKZtIkqtczMbAIOPNbUoUC288mL5dwhnoZD5FQHQX6CVZRb0nF4ZMtzqHqeFnYdZbT+8cffngvPTdM9LtETt1LxW+Vi+XcIK/K5PNqL6AejVHYetsXo8xyvO4vMdozKw6/wDrJg+7PA8r51RQKUHazw39rYvRZxmmTTebLdo0PbHc+tsfe7PsszmPzKjQZSOizKx9bDB92eB0cvnVGXrx+3XT6j7RjwNXnGRVHQxdkQ9fjP7Rj71cKsvzNeaGtKCQjo0ybRvqx99+CNHXDnnogNqesGPU3sGOMM74Pz8w47Kp/WXb2DA9yeGNJVjdaDMfBt2eG1FvQoxfM+DGW5qm69RSiMyEdKeV6lwBV0GdZBMedDIVB6tt/JcD3I4Zqw8mnzK4HUCZt3qXHhMvy3NofylHIELD9FlDfJOPv1wWno3PLN3oh38/h1jib9o410GbT5bLzeHki0nraqjb2SenGrKeFArktuSqtUrbo16qgewY0ZjkGXZxCPG2Ogsw/NMx/gY05twYrsokPlQo8Sj0K0A+jOPvNwursrb8nUSvFGNXN4RYA3yjjaUWb5XnUA5NoiamH52OP/18ffHgxJKByyZdKXXrNo9t9Yxs6paygkHKtTTXAP6lmb1qMA0Wb0wcnyarvWb5EjK/swNNXI6/1oSYH9N1J9uPDU8Eo+AXiPr4w9mPDQVER6V0Sp69QPsxxayJfz2qH+MBjVG6uOlGDD1j/S+XElTVTJBBEAZJZG0qtyFH6RYgADeSQBvOLJO7JzTLEzxn5F2X0qMPXCZKoiyxU0DgzSyv4qEcsK7iSzDcAdxNgfCRQwp5jiTV8+rEfR4kXJditfJxRL3xHKkKb9boNN2m5gGUAar33WMZ0VMi8sso75nXoXXsZtK+kYbLczqaulWTRtzHFENVuWNnjj1bEtvIIudO8lbg3yfhBCTzQvIYj2FG/wDtxapyyDMoelERyek2j3/s42eYZXWZbL0xXWx/NNp/dONWT8KDTNyrDVXiN+gnUo/ZOONDRZxB8ExuWH6WzLeo405zwZny9z+NgElOL9Pix6vWca8r4SVOXSHkSpuBfouuz/eOL01bQZ3D1PG7sOsyKP4hwfd3ggY/PqaaN4fTtY1s3zmNVDm+Y5RLzCW7xqe1bn6TF8sz6gzeMciSuDIeqzavawwfdzgfFUefU0sV37drT7TT6xjwc+Z5LP8AGMiKevVqb6sfebhXSV6+TDVvpbstJtPqGLZxwWo80T8tTxJI9ukbPUV+SMaZ6PNMjn+AzkKfiSXK+hcD3F4Zxt5tLXMU9B2zW1dkeLV+S5ZncA8uNYZLjqG4t8nFsxyHMcmkPlwbRFB6Qkmlf2Tj7y8Mp6U+TBXa1HYTqVfYcceHKOEFP8HYsWHX+D/ni2b8EavLm556LaRRA9I0qqN6zjVlHCrMMrc2tHVa9mD0Xj0r62OL0+YZRn8HmHYtI46+KPbJj78cCHit41RlutPSTT3Hrkx7xzvN8km8ybW0anoOzufW2PvbwiyrOY/ydSybY9Vm1N6yMH3Y4Fw1PTPQKDIR0gw6m+rG6TOcgn8062VD16tTewY+9XDGkrV8mCv3N2WqNR9gxasyOlzGHnejktqHPZFbjfN4tm3ByfLpDyv3mIz27WHYP9eNplmeTZfN5PvkxFT/AMVGD9JjXlnCVK+Mcnfg2626NbLUD2jBTM+DlDm0IvfYaJGYdOjaSfwhjTmnButyiU88KPCFPTZWi/hnF8l4XVeVyHyJpngAPR4Tvf8AeONdFnGW5zCOTbKhZhzeFWM/x8ffHgvJKB+My6V2HbaPvj6xjZ1S11BJzrU02pVP6li30YwDSZtR6+b3yKab0JNpb2Y1JWTMvS9p0PYZlPswNrHTzDseJj6QxHsx4almj/Nskw/a0n2YHvkRnomV47fpMun24vFLHKOmN1cfsn/QzBloSbSbSVT3aG/mwKrDab/KvbzdV74/zzQOiOOJPbs9Xtx4aqqZOp55CvqLWxrjdo389GKP6134jpq6onmhifaIplI49rayfxzBdQGq9tRtym+qjrpIW5tY/vxsPqOOLs8wjHwkmNuyTS/qxs87yExNzuiPTydvhFB9RxekzSpyyY+Ks+9Ae07/AKTGrK83psyhG8JtgxI+JNdV+cxpz/g0lQg5Zu97jtEqrIi+gjG7v7KJT5jmSIH9LaBfQBjVkHCmCoXmhllMZ7NGqQN6VGNGaZJBmsHPohSouOm1Pc+uPGzrsoqsqn8s0zFNB/Mbh648ash4WGB/JgqmMTdQJVo/3Tg6kpM5p+lTDLqH6WzdvUeXGjPeCr0Uh5ZadXpTfp8WMt8o415Vwhrcrm5lqr6b9APF/iHGqhzOhzqHmG1jkcjr2m5fnMH/ALQ8D1bz6mCEr8Y98KpH0mNVNW5jk03NqJkiQ9raj+0MXyXhRSZjGOSKaXjW6AjbX+WNOd8FqbM0/KRQpO1ukbHaW9QxpmpcyyWo59i7sqH4jX0/N4vkPDJD5tNWOYz1A6m43zeNNflOX51T+ciwyah2LpZvm8aM14O1uTzHy4NpAAeqJtI9hwGyThdUUT+TDWXTsF1aMfXjivlme0/U8Lsy/CLbP944+/nA6SlPlVFGklOvbrjUBvnDjVlue5jlEvMs9zGD0XX+cmL5bnuW51FzJJIjyW7G1FfnMH3d4Fxz+fU0cV3tzna0+00/KGPBzZtkk/QS8qI3Xq2jfVj7y8MKOuXyYK1wGt0aJmkP7Ix9+OC+X5tH+VgRHcjpGm5+jxprMszbI5/6svYH4k3i+hcD3E4alPNpq8ug7DtGC/snHvmgyjP6YeUmxa4+j1cXqOPvtwVr8rfypqPbRR36QPBr9eL5Pwtr8tY8kdYH0dl10r6yce9qzJs+h83VCZGHXxR+9g+7XAlkO/VUZcrqO0vTqf3se8s2zbJZ/NluyIevTdvWRge5fCjLc2Tmiq2TaEdFpNofqxpzPg2lXFztRtr1jp2StIP2caMyySXLZjy3pjA1+tqVom9a42mUcIJaGU+KO+QhHRuqFjf6TGrL+EEdfEOQViGS46nkWcftDGjNuDFJmkXOaYCYkdOhWmH0QxozLg/W5TOeXYo8QQ/EjkiP0RxqyPhfVZZIeRJpjTi/R4Tvct8o410mcZbnEPNt1Qs/R4Voz/HxpruC+36Xy+ew7bapx7Ri0mVZnQGxOqsSBYuwOs2pm/VjFxcHq3H148HWT2HMz7Vbdk1xjwggmHwoyjetGA9mPDUkifmnSX2Np+vH4cxHomjdf2tJX248DPDL+bkV/wB0/wBM6xzNpV2XQ1pF3Hob+WPDQo3XGdB9TXGOM7xG34xDb1x39uLxyRyfEYMf0tPc6e4UdVkTnRwGQ9obdi7UCRMfLpS9Mb/EhsrelTjXlmbVVMw8VZl1Dq8LTtGV+SccR4c0iXokjmNuyoWOT1Xxo4R8GESQ7jLsHpp/QZlDepsXpMyrcol5llvJGD2yKT9IMasm4QU2ZRDkQz2LDo2Um0T1sMbPPuDMdfCvjSd7CZB1l4doi+m2PC0tZlEvOaZyUB+JxlX5vGvg7wuS/NBPIYW9JjbjfNYtU0NPm9Pz7NY59Q7I9MjX+KcFM54MyZdOfGamV6V79JiXZN674DZPwlqctlNtKVe7f0A+D/eONVHmFJnMA5LyxysR198KNPokOP8AKPggh86qSmMR67VGkj1SY1QVmY5NKeS7GSEH47bQ/tDGrIeFVLmMY5IZpSGt0aG2v8sac64MU+aRC/Hjp0n3dNqfaafSoxpqsvrsmn8rYO9lP5pmsvzeL8H+GWg8q09U5iPUCdS/wsWno6HO6f4Oxk1j6N2+Scac84KzZbIfxlMklHv6dHgtp6zjXlPCatyuXyUqr6b9q7P9441UOZZfnkI5BtI5JCP1i8X53H+UHAtT59VTQFT/AOIjVh9Ji9PW5nk03aZYlPa20b2jAOScLKPME5oKl7Hs0SbX6hjTnPBakzSPz4oI52t0gQsxX5vGiqy3Mskn59i78U/mpG4vzeL5Fw0Mfm09aXi9BLMo+jOLT0eWZ5T9KbBww/S2Zb1HlxbOuCVRlj881KslKl+kBVjDes415Twor8qk8lKq+gHovHpHrkOL0Oa5ZnsPms8byOOvUv8A6uD7u8B1fz6mhiIbtM8CyfvDHgavNskn6LvJGrdZ8I31YHuLwwoswXyYKyQauzRNtD+yMfffgtl+bx/lYYo3kI6QFYn6PGmuynN8in3/AIFpAAeqKa38PA9xOG7xebT194/WZGVf2TjwlLlGf03SmwYOvb4MfXj788DqrL+meiWSGK/ORs9Kt8o41ZZwlzLKpPMqNegH40dva2L5fnuVZ3GORJnjeUjsZWK/OY2eccFTUR24xpbzAjp0eGX1gYtWZR3hN5QkohHv6+9WU/s42mUvlccjC11fZTEHm99WbGrSSvnjjL613fc/9e4zLHtHCkolwhdgLhAW3LfpO7GiLgxmCoDuIzqGqS3TohhZfRhYavg5UJGSA1VNLS6Yx0umqnb5Ic9RwNtSEdLQyhv2JFH72ONJJCeiWJvrj1D248DUwSHoSVC3qvf+hqR0VE49Uh7txu6+Q4GmoZh0SWkH7W/24G2gVvhRsVPqa/14F5GiP9Yth61uMXR0kHSjA/u9yRqSKGoqAPBQzTmmic/DnWGQx8/km/Ju5RZ8jymNPgVhlPy2rV/d9GDFmmWZXFRG92SreSW1t3vfTKsnG5bsm71YOvLoYnPl0t6Rr9NqdgrekHGvLM3qqVuYTKJR87E0ZX1HHgp48zjHMJklNviVSxtq+LfGjhLwXjLflpKYwS3+A80f7rYvDU12TynkuxkhB/WbT2MMa8g4T09bHzRNO8Zt0aNUq+u2Nnm+QpmUA8b3ulQpHSTS6h6xgrWZNNlk3lPRsUVDz+CjZR64zjXkPCxqeTcVhqjs3v5I1xtF+6cXVqfOIRzo8MxI/XbN29F8aeEfBEQyHcZ0heklbrDyKrN6JMaqPNK7KJTyLPd4lPayk/SjGrJuEdLmcXNG0+8jo2Um0X1sMaM+4Lw5jEvjSd7CZQOnXDtUX1DHhaGuyeXfdqZy6qficZV+bxq4PcMgD5NPVSGJuwlWH8LHh6SkzmDnKbObaL2ao3b5JxozzgpJl0x5ZIEeja/TbwRb1nGrKuEdXlcu6y1V9IPQGXSfpDjVl+cUWcwgXCmZJHI7JlIX5zH+UPA1Ki3jVEdPc26RURrIq+hhjiPmWSy/BcyxKf0toVXsAwDkPDGnqRzU9TKYzu5iNUnV+LGNGZ5DSZvAOdIo5tY6QkfG9ceNGZZBWZPP00+0g09kHFH7JxfI+F81C/NDWXQ36NatEPrxeOfL88g6nhkZl6zIsZ/aOD7v8CzCfLqaWF6f07dV43zmNVFmuZZNJfi7S7xAnr4x+kGPvPwpos0TdpimlBcjoVJNr9YxpzvglS5mn5WKFJ2t0jY7TT8kY0VNBmeSVHPsXchT8SS+n5vH3h4bbPzaescxeg6mUfRnFpqTLM9p7byuwYMOs+CLeo4tnXA6oy5vy1KJqZL9I0rGG+UcB8q4SZhlEp36KnWEU9F47e2TAOXZ9ludxW3JI8ckjDsZWK/ODH3+4DwVPnT0cWqS3TtYdrp9Yxb775FP8F3lVG69ptCvqGB7icOKeceRTV0hj9BEzE/R4tmGR5ZncA8qNIX3dQ1KW+bOLZrwZzDJ3P42n20KA9ITTGv141ZPwtq8ue+5KwEdm9NmPacaqXMcrzyLo1wySEdZZeL85i2Z8GagAeNJRmRlHXxdqvtGNMr1VFJzrUQ6gD0EwsT+zjwFfQzHo2yI/wAibSfZi+ggecP8ccViD6P/AHx4+rt5Mcb93/8A1jeLc+8oPZqvjo59+7HL7b9zwVTURgeSsrhT+hqtjfKkw/rok+uLSfbjw9ID8KGW3qR1P72OOZoPzkRP8HVjwVXAxPk7RQ/yG3+z7ivH+21Y+nf7sFSVPSDpON05cdEgEntbf7cWmgHbE1j8hv8AHH4TZnolGkevk9uLoVcdKEMPWv3BUjUp5VbevYQ2Ly5bArHlemvSPfp97soZu0HGvLc0q6VxyCZUqF+XDs2X2497VceYxL5AnRzYdMVcqn0KTgR8JeDUUo5Nc9IYj2o80ZX5Jxxe/wDJ5T5jl4fpNoNPYBjacHeFUE45onmeA26PBySBvTGMaK7LBmUHlaIo6rWOvvVtfylwUzbg73lP5bUl6eRTzkpHsm9d8a8n4RzUEp8WOsty9vgyvyjjVQ5jTZtAPFAqElNuyqUBfRIcW4S8FI5VG5pmpCnyJ2Vk+SwxxTmGTyHzHMkIP6W1GnsAxr4O8LIZx5MLzPC3ZZWk1fNjGivyqLNIPK0xR1OsdlK2v1x42ebcHHy+c+M9HenYHpMUeyPrBxqybhRUZfKfFjrN2/mF/BfWcaqPMKPOIOVRto5SR/xCgL6JDj/KXgej+fUimK2HSJ2jZfU2LxS5jk8p+GZIr9sm04vZbGrg/wALqepXmhlmeL0aNUmr5Ixs8yySmzaDn0Qx1GodOinbV648GPM+D1RlU/OaUvAQ35jwftBwHyThZPQy+THWcU9l1aIe041U1XQ5zD1SxysR21Cr+8cf5RcDF+HUw0xiPWe+NJHqkxenrMyyeQ8l2MsQbtbaH2jH3i4W0tbH5EM0xQ26NDNLxv0RjRm/B2lzaHkvHDHOWHSEp2J9ceNnmGR1uUT8/ezPHpP5htmP2TjVkXDCaifmirCYz2E6oh9eNUM+X53B8F4ZSR8eRV/eOD7v8C9B8uppoXh+MduqnV85i9LmOZ5PLzbQmSIH4/hD+0MfeThdSZgg8WGpl326NEjS/UMaM44MUebRjyo4Y5iR8FIWJ+jxor8lzHJZ/wCod1sfzDaQvzZxqyLhnNRtfdDWF4j2E6ol9hxdJMtzyDf5UErOvW7bP944Pu7wI2Pn1NFG8Hp2sakN85jVSZnm2Ty9El5IlPRddof2hge43C2hzJPJhqZBqt0bJtr9QxpzjgvRZrH58UUcrW6QkbE/R40V2TZlksx/JNIlj1RSaR+zi+ScMZqI80NXrjPYSrRr9eNUM+WZ3EOdXglY9rsqn9rFs14NVUY8qWk2xT1ssi/tDFmnnpG6KinLBf04WP1YHe1fRTX5FE6I/wAiazezFzHbrt9Rx5Xr/ny43X+UT+83d/l3O3mx4Gomh+JK6D06WtjfVpKB5EsaP63jUN7cJSzjvepeyxN+JnfzFLeI55geXkUkm2M0XozGvHqqpe5z/wBDqVmU9KkqfWuPw20H9aA/t5fbi08H6UTf3JP8cDw2g9EoKe3k9uLqVYdKkMPWu7HLj7bsfa2CDyG9xygjs5MEzZbTBz5dOppZL9N6Vl1em+NdBmNZSPzCVUqox0AFdmyr6Tj3lXJXxjyFqQTbrizBQPQGONlwj4OxzRchepozGhHSHkjaNm7Mcemq8nkblamcmO/UNTIq9keNpwe4VxOfJhmcwSdV3ha7fNY8LSjM4eXUgjqdQ6hHaXT+jjZZ9wYignPjvEhpai/OTqWOT9rF6DOazKpT4qVPHjQ/rN/0uNeT59T5nB5KCosT1bKbaJ9IMbPPuDaV0C+M7Um1itzky0+0j9ePD5fU5TJzvSSHZqfiRtpX5vGvg/wtEb+RDUPsXv1ujR/wzi/gc2hHOrQ1Gpf1yxyN6L408I+CSQyGwM2xekmJ6jNGGb0SYvS5lX5NKfFSa7xD0yaj9IMasi4T02Yxc0bTFSRzDZapV9ZGNlnPBqLMoB47LTJUrbpPeu0VfSMMtZk9RlU/OaRigT9VGwC+mPGvIuFz0z+TDVNs3v0XVotPqONUUtLnMI5LSwzXXtqtm3qY4/yj4HInTUrTvTv2ieSPjeiTF6euzLJpDya2MkQPa21P7QxfIeFtLXJzQyzGM25hstUur0gYKZrwegzWHn0wR1GofEp2J9ceNGY5DU5TUeUaUvDoP5hWjHrU415Jwtno5PJjrOK1+i6tEF9uNVNWUWdQj+shmYjraoVdPokx/lFwMQ+fUx0zxn/xGzYeqTF4qjM8mkPwjNEG7W2p9VsfeDhlT1I8mCeYxHsKM0mr5sY0ZjkdHm8HPpihl1j4kLBm9MeNGbcGanKZj5VNtKaxPOIPBavSDjVlHCqqy6XyUq7rv7V2f7xxegzShzqIcl5Y5mIHMdspC/OYIz/gXDP588FPqYde3jWUL6xjkzPJ5fgOZUB/S2mn5IwDkPDWNvNp6qR4T2HVJxvm8Wqcuy/OYOcqIX1j6Mt8k4+/XBCbLX55qYTUgv0gaY9XyjjXl3CLMcpkPk1IJQHtRb/SYvlfCPL85jHIksqPIRzcRtrp+UMWzzgdTV688sNOkz26RsWl0/JGNFRQ5nks/PsnLaT8SRrL83gNkfDVoD5MNWzwse19UY/ZONSHLs7iHPGYJWYfHZYz6mOPvrwbrIAOWaDbJGPTNGy/tYFNOtRRatWmZ9FRBcAmzmGzLyfkz14vT19JP+bmGv5prN7MbiW+rHFUenfgmSZIh8IhBbq1YN6jaH+rBc27eT248DTu3XKwX2Lf68QxhkiDTRL4JeNcuB47XOrsxm1TwaXLK+j90cw2+W5k5STaislDGnn4ulTa9jIRv3ADEVXmvBuSilk1a6ejrqavkQA21vEzKVva4ALm1r4Eckve0pt4GsSSjlv0BKpV1fo3wCOT2f0l43dD0oxU+tcb5dqP61dXtWx9uAJ4CPhRMG/Ya3143ThTu3S3j9rbvbi40sDzjePWu7ubrY/6YPQfVg98ZZSlyd8kSd7THraWlZS3pJwWoa6som5hJoqox2fg3/aOPvfmS1kY5EWp0MR1wVihPUxxsuEGQrUQeUamjKxeh1UxNjw+W1GVSN+Mo3IjB6QkbaNP6vGvIOFSq/KsNS2zk7NrG0Z+jONxXNIV50khqxbqE2mRvQDjZ8JOC0W0O4u9Oaef0Goj1ephjwFVXZNIeZnd4Qf1yy8XsYY2nB/hRT1a80e3eFuzRG0qt6QMFMxyf3Rh8srAlSHHlXNCxPylwUzPg6aKfy3o/AFT0lIdk2r418aso4Sy0EvMlWBcHoB8EV7dRxqoMzgzWAcirUpLcdlUun1SY2fCTgrHVRi42stGQvWRKVkj9Rxvp67KJD5cDu8QPypFX0RjG04OcMIyfJhmkML9QLRyf+ljw1NDm0POybGoZh1eLK3ycaOEHBMU0x8aVIzSTX5/GVX/AGsA0GcVuUy8yVF3jU9silvpMasl4SU2Yxc0ffBBI6Nk21X1kY2ed8GocyhXltSidbdN6XaKPSuCtXk9Tlc3O1G9gp/MKyqvpU415Fwuele/EirOI9+Ya1aIL6jjVFPSZxCOcSRzXHbULGfUxx/lHwPW+/VUimeJu0VDRkfJbF4Z8xyiQ/DMsQPxpNrxey2NWQcL6eoXmhlmeH0FNUl/mxjRX5RT5rB5WmOOfWPginYM3pjxozfgxLlsx8qm10jX6dl4I+snGvK+EdZlkvMtUOLftXT7ZDjVl2d0ecQjkQzpKSOyZWVfnMac+4IQ1yr40qUwl3dOuNZUX2YtJR5hlEp5TA5cKfiMxC/N41ZDwz2R8mGpcwt2ErIo+jOPFos5h5yjQSXHbIsTN6Ccff7gX3uT488EMlKe3a7MavnMaqXMcxyiTyQ5MkQPa20b9oY+8nC+mrk8mGacr6NkzS+0DD+7WSUGY0sYLSSFIXXRzuRC11XTzmPHvjI5KFz5dBNpUdeiNox7Dg5jwcr8wOgbXYSTJqeJRc7I06jwgXfYk38k3tcB61p1FrpUBJjp5wHkW6+vEWZxTRpmEMZnj5pJorHawS6V5t5QnkItyE4SWM2ljYEHpHQR5SnB2UUcfrdv5D2YOqpkF+ZOIPVHbF2JJ69/dyyPz6+iW3bUxDGd/wC98y/52fHFa326MaKiOOojPKkyJInqZSMXgFTlrf7BO8MV+k0rXib0x497V1JXr5lbEaSf/wARS3T6EY9+ZbWwgcs1OgzCn7ddHd1X40YwRT1MMrDxkRxtE+PF40bdoH9F9fdvHI6H4LFT+zjjOsw/rFufWtji00LL1xsHHyWt9eLCdV6pLxH9rd7cX3do5PWuPscbt/dJqctpHY/jFiEE1/hTU+lvbjVRVdZRNzBtFXD6pNL/AEmL5bmi1KDkRamSB7D+qquJ9Jgx51k+3g8szUfgWHP74p7xt7ce/cmaglPLLQHZi/TanZQ3pBxqyThMYH8iGs0ar9GtWiK+3F6WqjzKnHi7KpSdbfErFX1KTgRcJuDcUq+LrqaMw/I74jKerG+KuyeVvKhdjHfps20RV7FGNpwc4VQu3KsUkjU7+l4ZCW+ax4anGZRDykENWWHPYR2l/ZxsuEHBiOKc+O6xGnqfpFV/2sXo80rcqlO8JUXaJT+uVj9KMbTIuEUFdFy6FqXjJ6tGqVPWRgx5rka18A8f3sJ1t1vQsw+UMFcwyF8vl8t6E7OzfEhaP2g415LwolopPJirLAg9F/AEes41UWYU+bQDkAqEl3dlUoX1SHGnhJwVjqIx40slIdPolaNo/Ucb4a7KJG8qF3aMHs1Mi+hca+DvC6O/kxTOYG6rvHIP4eOPDDmkI8pTDOXHVq2cjerGnhDwTSCU8sywvSTE9N5IwzehsaqXMcwyiQ8iyEyRA9siyH9oY1ZFwopq5PJjad42I6NlqlDem2DHmmQxZlD5WiCOo1DspWJ9a4KZjkEmWz+X3penKn8xHsz6wcaso4TT0Ep8VKy249AZdmV9LHAagzSlzeEeKO+UlYj4lQpVfnMaeEPBOKqQePL3nrUfrUWRF9mOPTV2VS+dTOZEU9moj6PGvg/wse/KIZEmDAL55htp+b+rD0NfLFUPHb8PCJElQ+JIkukM0Z9fKGsQRiSOsyfLkqAobaxR6XkG+5Eq2ZSO3nw8CyF6dvCU0txq2JPiPp/GK249O48+JoasyTAWePeHZgdxQ7Ruv1dmJ+9FaOnZhNHGxB2avv0fFDXt1WxsYpjGmstcePvA3XbxV1XO7pOJv7RJ1eWb4Y/7NKeziOcKvObdW8kD7rIwefN8u9XfkGM5H/edeflVLn7nc2AK6ipqq3lSxIZB1o/jK3Yce8swr6HoieQV9N2bKu1Mq9SyJj8HQ5knTTSvQT/M1W0Rm/WjFq6Gry09NbTPHD/4yPVD9JgSQyRzRny4nSRD+nHcd32f0V4pHjPSjFf3ccZ1lH9Yu/1rY4tNAy9cbBwfQ1vrON1QqndxZfB/xN3txfdY845D6ccuF/7P1GSxR6fCd/wztU6+N+CfTJHs9OncYweXecP3xV0Bfdo0x5bs+vxaIHTiT3cmy2R92xOXJOjW8vbmRVVvJtpUc+CavLqSVj+M2Ijm+fhs/txekqK2hbmAcVUI/Qm4/wBJjVlWax1CjkQTSUkp/VTXj6PxmNOZ5W88I8eSSl2kZHPeqo7r6zj75ZBHTyHxp6G0Zv0k07Rs3pJxqyrhFLRSHkjrNDr2cbZH6Q415ZmUWYQjeFhq7hh1xVnE9AkONln/AAfWeDkZqijdYj+mqmKTHvjLJsrkb8bRsQgJ5wkLBPXGca8h4ViN/JhqbCS/RtY2iK+hTi8Mq5pCOTRPHULbqFYsbN+jfAi4TcF4X5tVTSGFvNunfUZHycX9/ZNK3mO7RX/S2q6exRjacHeFcElt6o8r07+l4ZCT80MeGpvdKLpUQ1ZYdQW0v7ONnwg4KwxzeW6x97VPb4aNZPU2L0mZ12TynyZtbRKf1iyFh+sGNeQcJ6euTdZO+HiYj4itKPXb0YKZnkgzCLyitOlQGHSTQsT8oYKZnwd7xm8t6O8DqekpDs29d8Bsr4SVFBKd4jq94B8nfpU+uQ41ZZnFPmcA5FSq1butKi6Lxf6zAo+EeR0U+oarTwoA630koY2aOTjdAwIvcqfLqiS4VqWfRFfl5FYKvpjOIqnL6qrailOjW0tpoZt7BHMSqGVlFwbDkIPNeGOqrnlp2OltoQzKbbuO29eNbn58LmNJMO/EcRVaJr8KvIkhPJtlbinfvBHm4jcltJtHKF5SpO4/Cs1j68U80kUSNDIyIyKdehwTocsx1LqFx1k9OBpdgeOhsfJMZBHxcU5+DL9aYY9Cj2n/AKY/VRfzx+l6dwTEv9ok/fOCOU95t23MJxHuN9cXbbWNW77rJR/3hA/zR2v8sZx/b5z63J/n3PtbugXC3I43MB0nAVXV0ZEcFXD8qAm/FGnjaiL8xHc3EjG837d/ysbSShSGc8tTRs9DUfO0rKW9N8e8s4dh+RzSnSrX/wATC0UvpJfHvjK++EH47K6lKnd0mnqNk69i68bJp+95vyFaklDNfoVKxVMn6N8e30fd+n7q8UkkfxHKfu44zLMPhpY+uOx+vHhoXTrQiQeprHHFqEB81/Bm/wCst7Mc2/o6McuOnuXwTWZfSVDH8Y8Kbb59VDr68E0r1lA3Ns5u+Ib9aVSlm+cGC2U5xHKByKXmoZT1AeET1sMe/wCgmqIl5XenFVHbrqqNjp9Jx99uD9PtD489KAst+fjrpf8AaxegzipyyU8kdUdpED2TLq+lxtMkzqGtiHIIal4WYfEZmj9cmCua5Q1REPHeSlMkduuoo7o3pOPvjkK0sh8aah8GdXS3e7Rs3pJxqyjhHLRyHkirND+gatkfpDjXlmZx5hAOaKrvftSqXR6BIcbPPsg29P5e3onSE9sqqY2wqVXB9aWKV1XvvK6x4mjDkDaGljjVJLcpH141ZFwo2cnkQ1NjJ2Ax7Ir6nxEJ8y75ppSUik1Gqp9Q37NxURgxyad9rWIB0k2No4M3yvLq2NmVDI8IOgE2vokuvlcwx7qZRClPsLPU08ZcRSQn8ciSMdmy84Fhovu3b45I5XUxuHKB3VXAIuh0t4p5MNCEeSaFFqaeoTQEjfZh3F9V2Ux8VxblHwRgaXIZSHRucMOMDioSaVtiYgwg/F8SzD41mAOLdnrviY9afxEwvx19hvhPzy/uPjs1fVb+eIOyX+5hz8Tq8/BKhTxU8tQ/yNV29GI1a4bjHfuPKR/dwZWYLd2fc+rlJ8jZ/wB7Gz8nTo6N1rY8HGByct39W0Y6fR9xrnlihTz5pEiT1yMBj3pJNmJ3j72U09dHcc3fEMZiX0yDGUbXLZ6SHazlWqZqbbFko6hx72ppJAq7r3LA7uTGbf2tvaiN/PuZVlGRZ9PkctZkzyifjz0m1pe/6g7eh1aJtUcGm5BtuO+1sffLJMq4W0qctVkcppq1gOc0ukMzdS03pxSVwiaAVdNDUbFyGeLaoGaNyvjMt7HdzYEG0j27LrEJkQTMu8axFq1Mu477cxxNV1BfZ0sDzS8rPsqeMk2HlWjTcOrEyZPmcNZNTb6mntJFUQDXou8E0YOnabri468JopxDJv1lHdlcc1kkvs/Xz/cbjbGyqYoqiM7ikyJKluxlti9L31lbf7BUSRRemlk1RN83jwFZRZgvMlZE9FUH/iKXUn0Qx7+yyvphbfNCgzCm+do9Tr6Yxj3rVQzkcqJIhkX48XjJ6QPuP5/d+zu3ilkj+K5A9I5McfRKOfUNLetbfVjwsckfZaRf5H2YGiojJ5lY6G9TWxvxy2+49+ZfSVJPlywoZfRLpDL6DgmlasoH/qZtvF6UqtTaexhgvlmaRTWN1489DN6l1Jq7WGPfVHU1MScrtAlfHb8/S6tPpONOdcH6WaS9nmiRBMDyePIutfQwwEy+sr8uqXvogJMiarX3JUbQtz8kgxC8GYzy0k11iqYtdOVlG8wyxbRgrad43kEA8ljiJKqoWeBnVJHlRDIqndr2um+698d/wS08GaUJEkka7OOSqpyQzo6R+NMvjhjvsGHOLJIr+FicSIesH7XxPSd7xvDJTrKJnJLrKIxKjoF8WRW3cp5xyHGm+4/XhpJm1HvML0KAlMEFh6PWcL6cSf2Z7/NnHrxUD+pbCi1+Moty+WMSixP4Pr8sYBHSfYhwqLqvtAeKmvyHG8K3XgtJ0EchU3JHkSKDp0g77YXWQAL7tmj3v1tYr6MaIxbpxzX6bC/r5cf48vdtUVVPAeZZZkRz2IzXb0DHvWjr634UdK8MXz9dslb0E4/BZfQjpqZ5KyW35inWNVb9Yce+c1rZB5lGkdBH2B41Mv0mJtMk9bJLO8wqcwfvusRSToh75muzKq7gefysMFUKvfeYMAoCjfX1HMu7GU/B7+bf/u6sA9pGM0/PRn5UEDdzgj/WZPmink5BR5t/eIxBrqppzWahUQy7MJS1RhlqglLs1BWNY4J4nVr8dFNwb3oOqErf4kjp/LGWpOhktlkzxaWdJFmirBZ0MbX1BX9uJKSPhNmBjqqeWL3PzIDMY5Kd7wSiKeojY07BXPIRiqziqjbMKLOqWOl10VTBKyzPNFVawNIDeI407uXl3Y2BzWOhqAbbDNEky8+iWoURt6JN+FdWV1YBkZGDK6neCCu5lPKLfddGNzHHv6ipqg+fJEm0HWJfGVuw494ZpmFFb8VM4zGm7AlZdlX4sgx/m9DmSefRzGiqLf2eq1IzfrRi1dFV5a3+30zwxeiqj1Q/SY2kEkc0Z/GQussfy42I9v8ASfV3PBTyp8HUSnyG3ezHhEjlHTvjf1ru9mBtRLCfnF9a7/ZgbKojY+brAb5Db8b/APDFycbrnG4KPacXmqooPjyRxH0cYYXM6KpD1ylYqvQj6KiI7kkLsoDTK1hfnQ/BGIZ1PhIJI5V+FoN2DdvJ6Tiuhsi0e+SKMxgyAROHiJdrlZBbeQRykchxbp5vbiqllN5HppdR3DeICL2XcvJhfTg/2Y3+Zwv234cf7Of4Zx6+vsxKB+Rccyj8GfKbdhSY2tu38q8o513Ny9OJE5S4O7cp39fIuNbtp5Do1JLyG/LHuxZ723Xs2k7uTfjiJY9JJdvW2N3dJ5unkFutsaO+45pPyNNrrJb/AJqmVj6xj3pk9Yw/KVrxZfF2+EZpPo8eGrcuoF8ymhkrZ/nahlT6I499VmZV/SstSaaA9tPRrErekHHvSipKa/PHCge/W+m/rON7dON3dj+EZX+XNK/88U5/J0lY30ej+/jMvjUx9dHT9zg7wlpqXv2mymmraappoZoY6thVQ1EQeBKhlSS3fN7bQHd6cGaSTvKsk0hIc0hNBIh0FDsDUKEkZlIvoke9h04pgOQPWqOwV9UBY+jGSHUI5HynOYqZzEJlWrcwClujTRjT3w6Atq4l9eiSwQ5f7rxJFmix1YrlRoG8KKmyE97sU1GnEDGxPj3beTiGmy+sSvklaDYyZc01nnl0GKNAyq22EjhbW8cbr8uKaszejNVLFtoa1qxIzOs8E0qSgo3G2ixoNdt4sdXPjLEQaVSgo0VRyKqQIigfBCgY/njkx9uTo7v29GFE9VTUpckQipcoal0BJhgAW7SaQTbduB34bvCeKapji19601RJLHVAcpHfDMaObSekxndYXLnEM8bakljWRObikXG5t/PjWziMdJbSPXiwkWRT1hgR9WDKaJaec/8AxNC8lDP266Vl1em+PeWc7QcghzamSoHZ3xT7OT0trx74yl5l/LZVPHWC3SaebZSL2APjZd8rDN+QrFaiqL9GyqlUn0XwPN9n9Bv+68FUSoBzayU+Q272Ykk2xYrfyE8n4qjVbl9eDGs0KjmdaaPVZefwlx7MeGrqgjdxVfZL6obBsXJNzz8pxUfofxkx22HXe+Kv81L9Rx6+vFRze9pus/gzgHt+rBX+qI6vEwNNm3HxDcnsTxvZgx/BKX5uS3J5uA7up/M7T/1P8ccm433dR5sao444z8BArevl9v3GueaKBfOmkSJfXIwGNNKKmva/JQUs1Qvz+kR/tY8DlcdKv5TMqxEI/wCHo1kLfKGPfedLEPyWWUccfo29VtW9ItjVNDPmL+fmVTNVi/SEkbSvoGNFPDDTpzLDEka27F3Y3sfXjeceNjl7vJz9xI6udKiVXms6RiJRFtDsEsvmx2BPKSCcTHzMqqW9dTRp/fxmP/Cf8hT90pIiuh5VkUOhHQUZbNhYoI0iiS4SONBHGgJJIRF3LxifXiiq6WanWSjhqodjU7RUmWoeB77eNW2bBoPNIN+bC99UVRHLT6tnUQ3raUg216zS6mVdw4zqLW5MCop5xWvqOtKS5NOQeLfym9AFjjKKPNK+TKq3I8xqsy2Uy1VQ2aw1E6OaUhZ9CzaYtxK3PfB16wAEy/8AscH8Mdz7DufV3cjzWnqJmgodvsGgpKwHL681muJ5a7UY5KqVoOJazoKUC3ITG1FScHeDoqaSCORsuyqljzGRK7LlirxVV00OuFpBLVa0WUIA5sBbcyC3g6nMbam0qIkzKdBYyW1cwAF+hd+K/IqQZlmef5BVR1EtLQ7YM9RRzot6FYY9VRJBVaBKAXtysmgOQudZjlFflVDJmUEMyV9M9NNJFWaxFVbLxY5GaCc3sLinl3chwD9jiHv+upaLbsywtVzR08cjJa4EsjBdW8br+VhXjfVGwBR0OqNweQh13MvZjZ1MMVRH+TmjSUepr496PV5Wd/8AmNRIsF+ujm1RN8nHgaqgzNfMqY2y+pI/O0+qPV+qGPf+W19JblmSPv8ApvnaPU2n40Yx71qoJz5sciGRfjxeMvpAx9r/AHHt+7l38t+ztwRv5/rx6u5OOpT6nTA5fGXttfEq+dE6+c28W5NW/wBeLrxlPPYx+2RQvtwyHygyHn8bcT8LGtuP2RiHd2qx+rudHUvFHqXu/a+PfNXTwnzXmQSeiLVqb0DHvKhzGu+ElKaeH0y1zRjT2Xx+Cy7L1PPUzSVstviQrGq/KOPfucV839XR7Ogi7LwLr0/rMbSLLoGl/LVINTN265rn240iyqOZAFAxvY43nHjY5ccuNzY9919NAR5MkybTd/VatXswBRQ1uYtyDYwmKIn87UW9gOGbM6WpyiUSEJGyvVB4rC0heGMaW1F92m1gN5wO9cwpZmP4vaBJb/mpLN7O6n258V0nm5Y6fLqqVv7mKzrSl/5WAfy+6+wxetoqeZ7fhtGioHZUR2dfQ2CaGuqKY80dSgrYOy+qOX0mR8UtNIUaSCBInaO+zLILEpqsdPbjJK/LpcwjpRNULXpQRQStKL0pRCKmNk1adrbUPO09OKDKc/ymnfv6sp6JKymSajmQ1UyRJNLAzMknGcEhdHPj147eq3N3ZljqCsUxl2iPco9PEUlG30/hOS9rcqDnxUCBmUsCj1W12+xRwQXp0WNQsjA2LNc2JTcCQe9orhI4BGuo8diJonJJ/LGxYnnJJx/2go5J6DI6l8/qYc0ps7FZmNFDX01dTpA7syz+6AaqQh3jAktr1neBmEiVdfU1NXHDR7SrqnqO+a2YvEiW3JtFYxAgkW243HeMAH6rfs8i44OKd4bNdBVgGDAzUAIs3234z5cpz2tyYrnOYhIaWaSCj0CqlCDvdWEekW5CLdWF79iyvhDT7rvoFJVFeqej0rq6zE+KHOu83oO+9uGpZJNq8JgqZaU8fZrqUmIkcUbj3NxP149+0NPO3ntEBMD0iVbMrdhx7xzSupeiGpKZhTdlqy7qvxZBjj01FmKW8ehnelnt/Z6y6s360YtVrU5c3P3/AE8kEd/7Vvi+kwJInSWM+XEwkQ/pqxH3Z9OH6wbdg3kfVjn5Tft7uliVB5SnjDs/98aghdvPk0X3HcfBqDu3crHHLi7Et2m+P8e59rY0d9xSSfkqa9XNfripVZl9Ix70ymtkH5SqMdBCej8IzSfR48JVUGXjzaeJ66e3VLMyp9Hj35WZjX9KvUGmgPV3tS7NWXtBx71oqWn60iTX6Tpvjxjbu+MOfHLj0n2Y8b7c+G75zKlRhfiCUSTfNR3b2YtQUddXE30toFNAw6pZt/7OPAwUWWob8Z9dZUIOboX2YvmOcVsy3OqKN+9ae3RohsMJfY7RnITU21lZucA+Vyjl6cRCmiZxPMYVIURKGGi5I5dPHGIdhAkcclYYJbB5SqJsjfV5Lcc77YyqOqqSpbO6VGR5RGZIXngsgRfwnPu69+D2nB7D9WE+KMZs/m01Ovy5XP8AcxOemGn/AIIH8u77Mb8AMI3Nn0puErzXJROLZmjK9dr2tY4e3g2BOmNiGNtaDQSu9WGo8u/d141hCy8c3G/cltfXzjulWAZW8ZWGpSOgq25lxDVNltPHUU80U0T0473GuCQSpdIrK3hB0YzCCIXlnoquGMX0gvLA6ICeReMRgLEtXRxRySs1PWiaehlJkJBieNjE3FIFju6sBOEGQyADcaqkbVHfku7xxkKvLuWI4ghpJp0nqCVhSWLaRuwFyBPStIkLafJmML8nEubYFXmtdFS0mvZbSp1tGS6ElOKpbTs0JNuQAm45cPPRTU1XTS249FMkyKu4OnFY6W035Te+KnTY69bR6rXuZAd2pvG03xJTuZFhmp3ScRvoaxL6Sj6gY2Kod4YWKXuMLPIiyd4lko0cRxLCbEnvenh4iyaS5JG/fyknBGgrpLIdxtqG4i/nYyz3N2DTZdWrWGOaXZbRRJA+lGZbavAc5HLirrpaykoquqqp53p80SppIC08hf3vmccbQTLv8sw26Lb8GonyivSmT/5jQMK+gt11mWtJEq9rYyNpW1SH3R1Ei17ZrXAX/R7lQJooXjyyabLsso5ttKKzN9nllRWV9UkbKsdLBl9Zoi4xkMlRdRYEpXSVEWyWmq9jGnfVbVxKRDE7mB8wmllhj8KOIZXQEcQJcjucuLGzjoIvfG17071nJ/zigeShm9L0rLq9N8e8832w5oc1pkl/8xS7J/S2vHvrKpZF/LZbMlanaYJNlIvYA+BGayKCVjpWGsvRTFvMEVYqmRt43C+Ptyd04IufG1KnID146d4+51yukSefKwjT5bMBi0LS1rebQ081UD+tjXZr6WGPAZZsFP4zMauOG3XsKdZS3ZqTHvjNY6f+ry6kQejb1jSnV1gDF50qK9v+8KmSpW/VFIxRfQuAsEUUKgeLDGEX9lbY5Se0/wAvum34ZJsyp9akhkhJqJL8lilOrFW6jbFsvyuvqiPLm0UcO/nvIxLeoYsrUOWp/VxmqnHaZuL6hjVmeaVtUu/Uk1SYqbfziJbBVxxNgXWJpeIu1k0AEl9W/VxQefESU9Ox2sE06M9kGmLa7rfGiPrxSNFGI4phNtCiEhCpITwreL5OKJqqq46TS7RHnu0m9LWSNiJLKT2YoF20kzCpmeF400Rm2yL69pv0ix5Bv34o46DLmk2tTK+lUkq5kCaOOhVeKzaejmGKJjlktGu3klm79eHLUKgJshsGs0ijQ3knlxltbmmcQGXLcwWv73ooHlE0qSRS7OWeo2elfBAXCnuP8U/Vhewc3VjO2/3cB/54n+7huump/qcfy7nL/jj0d0FG3ghuq4IIuPK4yjFmW+6XQ3OjShATZvgoR1XvyjCrJs0VpvwXHCodFr30k6WY3O/doA57hCn4xdrblCq/iD0Wf2YOgX09YXqAGrxm1GwA34GpGUkbtSlbjpGrxl7mkgaTuN94YdY8pcFp8uiik3+HpPer7+XdHxW9KnFJW5bW+9oqoVMtNUU4ErbrHRPCwVmNgN8Y7cRw5Wm2qaSqFRsRbVKhhdCEHlMGKbuUi9rncZKmSlzjKq0VLuZqCoko6rRLdwTBytpYWNrAh16zhKrMKqasqaevq6F6mphENTIsSRSptwu6SQLPpLc4Qarm+PczMO/U0wrJUVUMKT08COEPh4tWqSP3xADZX3y2sd+NWVZnl+YEnaJFTzok0T6CLmjazqvwSo5BiXZmRDKszG+7jyyQEoNLHUoVH3m17ndjJFp4IZxmWYrQzLNtLqss1NEHiMbDSw25O8G9sVVPmFBmmXpBWVVH35sBXUM3e8zwl70/hFXUnJsjbpONvklfRd9NvL5PWmgr+m8sFLJG/wA7GcbMySSlWZtcojErF3LkvsY1DNxuXTc8rXNzj04n93zmHePuxwht7miM1JqPcng4sCeGkULCZLBzvNubGb2uPvo9ufd3tQ47bY9Xb3N314vjcTh582np4aS6xu9VYwkubBGDKQ3PzcgJO4HG2yPMFp0Kh1myKuTvddYujvQxs1NIp5eNFc9OBs6mgzMAckyPl1V8uHVHq/VjET8IEnyaOdzFHPMvfNK7qNRAnpdR0jpKi1xfBlyvMaHMUty0dTDUFfjpGxMfpAwy89t3+GD8ftwBNNDGxtxHcK57E1Xb0DEVNHT100syPIh7zmgg0pbWXqKpY13M6clzvGkHFNBFR0kUU+111TTTVQpmQBk28UccWlW3gESHeAOe+PfObVLD8nRpHRR+iWNTL9JgOKJJZR+Oqi9VN27WoZj7cWWyKOZAFH3Po+5Nv8cHZnTy78a4n0lrltwIO+/GDKcMWiilYFVBs6b2vy6W6ua2KyOEmMCGIw7NRHqBMWvjt43FJ592JzU1gs2Xx611vNJG1oLyFF3b5OvffC/hpmjyxr+JFG8JVwOkrIdY7MU8WW5W8zChldNhTzVcyO+32UIfSR4xBNxvucUrzUwoUEM217+nSDw0u1Ck0sN24qlPJ5sUnunnTOYUlXZUFNpVjKSSdvUb/FNvwfkjEZTK+/HhJSKSvmkqWuTqbibk3/FwYqOkp6aMDxKWGOFBu5bQqBz4py35Mtc9nLhvT3H7DgejGav51RTJ8iOU/wB/ENRlFLSzwNRgTSVNaKQRPCx8CBs3aSV1ficUJuOt49175tlVdQIttU7oJqLq9+0rSRegyX6salYNfoN+59t/3Hr7nGGtTpa2rRvR7ob6T0dHIfTjQ0mzuq6tXikeHLgDSfKlQ23X0coIHc2gsV2SueY8cuLfG4h9mN+Pty9xo6mliqBt1/DIJk0mM8TRIpHjDtwKelhjp4VJKxwoEW5NybL5RbHunlk8KyyUopqmnmcxs4QpoKFuI34CA2JTfFz33A1mSmV1cbGrpw9JPqHJsqin8HJJqAtbWcUDVKulS1FSNUo/4Rag00RnR/6wTXv144L11ZJsaSkz2Cepl0O+iCKpo3le0almtGh5AT5oxW97d7VeXT19bUxQ1MO4rUVUstw66XW+u++9ujCe6eU1GWzbrVNNaaNW53BVVeP0Ke3GWzQVstfC3fYjqp3mlleMVk6aC9RxuLbSL8gQAbsb8VEFFSy1c5zvOykUCGR0Vcv4Pa5Dp6LrvO4YzYNyjMm/5aj5fUPu8oyymllMTU23emEmzibj1hqHPGAZtjTjl32Sw5cG0rttslzAzC+4gGn0AjzRYWHNYdzvfNKKmzCFdWmOqhSZUuN5Tab426138mEzejyzYzRB9FOZpJqLU+4Sd7zX8IN9t9he9rgEFozVJ1R1+YRR9AGhakKvoFt+NJ2zbzuaqqnFr2sQ01m9WLRRpHq5dmgT16VxB+aqD6b04/nj/p/TMj7iQd/RhTSGkzS0fhEp5hBIr86BKzTtl6CDc9GDSQ5Jmgq2dRo7wmY6N93BaMrp1W4wNt/Liq26QZdDPskiNbUhikURBNoINTKxsN1hiWTM81qKjawwwyw0UMdPHoi2VgJptTb2iHkjEZiyaGeXZqu1rddY+hAAAwmbRp3DyebASGKOBA4URwokSAc1kjUacS9SD1kbuXEZAHiX6RvFvJb/AAxuPHL8nVy3xISrnULA2IS5BFy7MAtr8+BtpAllFtW/i8lgWsvo1Y0gk7hyjSeQbrKx+vuHrt9Y7lY/nZgR8imp/wD7+60kuWRUtQ1z31lt6CbUfxjinslQ/wCdST2DBbJs1iq05Vps1jME1l/22jjKyOejYRjr6GOa5TWUsY5apYxVUYHS1ZSs0cd+YMQerF0cMOaxv7cfY9z/AA7vr7ltzKL7jycYAfyHt6cEEca3F12dyS7n8LpvzjtA6hhpLR87a0taNvAWj8HxWXe9t1+neDgn4Sr23Rz/AHD6xhtJIXVoco4ZNXmPzNboOPDxLbf4SLwEnIbDSvE6vFxxJtn8GdCB8uO49YTCjUp0wwR3TQVOiMDlj3Nj0470zehirYASVWTWNLG28PGwK/ViCE5RllRDS6dik9M9HUoqCwj90clkp5Gj07vDrU+k4qKjKBmVDWDjQwPJHnWXOFt4Pvqnhiq6dfHI96TcwYje+MsymaeCokpTV6paczGJjPW1E9l74hjdWG1sQyggg7u5US0U1RRzDPM5UzU8rwSbCuyfg5Ya42B2bxxS9RAYcxxm17X902v53+bUfLjkx9rdz7Hufyxl/SmR1jcvRS54cUFBDG0dTS5Vmk9TeJFWQuaNNoHVryXvzjun/wB8b9wseWx6sXH89IPch/M1X8Sjx6/uv8O4fXj+fPfuerH14+xwqtpGpSfPNuXeFv5PJgsATx9A3W3/AG9WCVBYbuLv5T0erlxCzc7DVbl5z8n7dGKhwN27m3jo+LfEehvFjAOnkv8AVgBEc6XD6uVN36PF5enmwxZ0W/jAHUTYXtaPczaea98Xu81iQdG7eBexT4t94bmxcJGo36ZOW5ug36uMq8e54193NgXYsxtyeJMNo6PrG/i7Mcl+Uk4ui8t9QPG42zs8nbvww+L+4vc9K/WO5J8LMZz9DSj+X3TSVOVQxVDXJrKG9BUlj5cklKV27fnQ46sF8kzlZh5FLnEeh/8Ax9HHbsHe/pwxzPJ6yGEX1VcCito9I8t6ij1CnU/1ug8m7GpHV+w3/oGtY6u02NiLj4W8+vBj06WNuhuTZby+nV4sVrc+7VvFzUONMgEcJ17y1xske20s3n3JG/F4UtxFLAuDYmNHO9raV4+65PIccZWHLyg7yDY27GwQwIboNwfSGw8enW5RdA8q+2ivb9Xr9F8WiLr6nFyYgm5mXSul7g3NwOkEYL3UjVpIDBmB5jblVTYgHGlwVYcxBVh2q2/H2vfGuCnL98QmlrpIad6uohMRE+XZglLC2qo2Um3ifQHkENe9gbWxnFNNNDOZK5JQ8K1iaRsETZzpWUkTwzakN1K3AtzEfd0191uD9Z/yucf44NU8EywPkFekEzoVildJ6DWELfhLKTyXxv7n25cc/P8AY+rl6x3P+mKynk2XesGXUstNpXwt6qRhPtX1cbjUu4ADd9x9uXuXt3ftux/07v19xGUWKJo6ebl4tvVjTfdqv18vTy4cwQsRo2YA5VHSdmoH2418IruqRrfRqa46X/B3C9d7Y0GRjq42kcRG3NY3XUGW17bxyYukUakAnw2+4C69d9RKtvAsDuN74a7lgl927axhJETVr5WYq789hu6MRgA79Oh23uiiZzy7zqKgDl5ufHIVdU+J4FI/hfBf9rEhY7jqDL5UaieIbxvOrTq5uQYHFY6dwYb3jGt9xTlZtLoTu3X5rY4zxIbWOz4wYEAGO2m6+IN9vKOCb35N/JzAcnox1evEQo2hWTvul2hmvp71EweqA0qfDGAOE62Hcg+HU1Lft6P7n9C0ldlVP3w12NXS6qKsLec9TSMjTW6HLDqwz5FnWrzaTOY77+f74UMYKL0A07nr6ScxySr2Iv78ol90aXSOWR3pNRp4+uZY+zAaORXBv4pDfu4/ny/c+zuEWDA8oN+XYvEB8ULKeT2YiZgPBvq3W88Hdxbq2628n/H8JtOTj7wSOvVh99iNFucceaJN/wCi+EWKZZV0Eqj22djJELBJuKzGYoN3lgjlGBeN/wAPtjINwlYeQ4081+Y7tZ3b8cUsVCKNTjSxI6RqPZy82PtbEJsG443MNS2O43GOX+fd9Xc/nz46vZgtfxOC9a/0GZgfpcfEVG0KotBwdrdMiuW2gNTlUQuNPFbSvScf4/V3D/jgnSDcDk6fscfYb+fuZgf+68rHo29ecfbl/ofZ9xpuB23t+ypPQNwxd5GYb/wQDC44xAK6jqC794Hbj8Gu6/HJEqOwtxbNfilT4wA58aWkAYXAC3eKQhwAE2l9muljfkwxCEhWXWr71YiQ6ANTHihRbkHZ08ngtALbt2rYu6i/k7r7saZn4y697XYuwjg0RjVbjccerDbiWZmuHskco2yuEidt2+NDv6x0442zQC10c6WuGc7v6sa+UAnidBxuD1GnjeIRyC2u+7SukDcVI3c+IdKom0voc8eTcLEvpsG4t+UX5cNtJXuJdOjxVsDYnR6/tyVOz06AgCX6bHzun67Wt3V7T+4Rjd6sZd8Lvpv/ADk4/l/SM+Y5TSyVDctXEDSV1+a9ZSMkjAdBYjqw0mQ5067iRSZvGJlJPMtdSqrQxjrhlPXgmuyaolgUn35lv3zprDlbTTqZYYuuWKMY8E4a1xuIJBHKPlXx9uXH25fuPsO5rjbS3o5OXkbd5I9WBqW+7xo32cjWMRuSysPFgUGwFxy3O/Cq7ctTE5Q6yBGC+ux5NJV+2+D4l9Ca9no0a9AvbRxdOro3Y5MBijeCkOvoDIbOL8m649Y7h+wx9uX7jpxlzxmSGKeggpppFFlkp3krBPGWbySpA9GMxDC2z4P1Y084JzDLOX7jl9f29HdzTqosqX21jfzxlStGlbU5lUQbXXBU1MEFBMKiWA0fvYLDXNCIjpvtHOoprQIBNHHcojnRrvq0kAgHVv1BTY333B7n1/cfa3c+r7iQ9ELn0i1jjVEgX8JdUUEBBHFc2+Lz4ck+CO1C8tkAkiR3tyKu/wBm/C73dVuUkQXQATXd5fN8HYjfvvgNZImFtMmoFHKXu5O7jFX3C9xbfzY8Ykiw0px0bdouVaw2hj3GzHlOGEUAjVU1HaOSVG8gjk4x43LfEGqYhJ77ogEAAG4ER/CNt43Yc7iRPoB3X03Avfd9j1YlAA48Yjbl5OU25+jCjUbRghOa1+XANxtPFAv5PGO8aeLxj091Y7hpZDpSJONK56ERd7N2DECjg5wg8MrvGzZPmCI1rIAXaC0bb78a1wCRu34BkoqfL13HXX1kfJ+ao9qwbqYD0YosueYVDUyMGlCbMOzyPKbLqNgC9hv5v6ctmmU0lTMQB30ENPWgLyBa6lZJlXqD2wXyPOqiHlIo81QVcBPkolVT7OSBOtlnOC1Vk81XCu7vvJz7pQkDlOxRROkY6XhUdeCFdbrcMp5UI5QRyhurH/W/c9H3X88HU4gJmaW+ni7IvETGdit5G0ofGG/dqODImm5iG5OVDBRyk3C9MgQnrQ9ePtfufbkwPsO5bC0+aUVLWwl1T3xAkxjBNmKFt6t2EcmJpqKMarPTB2igeXY7QHQtU0PfGzOhDoaV03DdcDH8sb+51b+Tm+27F/t6e5nB6IMqX6Od+X04ynvqiaSoyTX3pIux72lBiEERnDLq2ixgbgLaxy23Ykdt7SOzv1s5JP7Rx9uT7r0fcyDpiKn4Id0UnjdCm+DtJQSeXYk8a4CFOcNDpRPKB5cKUgJeVrbRzsxM28b01dfM1jiY6whhYK2gWbVyAa24/Vz4jW+rilpNfGNwDcE6rL693lcmNXTV7xzWHR/7jFW6EqBD+k2ob76mPQTynFL4Q2SNte7UVcjdYcntwd+7Xrtc25ejBcnebdP95uNi7MFA5ybfvYHuRlGY5irblngpnWjv0Gvm0wr6ZBhWzGpy/JozyrqfMqxO2GnZYvSKg8+FfMp8yzmSw1LPUGjpdQ50hoNm9uqSWQYKZVllBl4YAP3pSwwNJ+ddFDSt1sSf9F++2VUdW+nSKho9nVovRFWw6ZYf0XGGkyPN6qjbeRS5gorqXqjjlXZywj4TGc9WC0+UPmEK2985M5zFP/Cqq1PadjYdOGTVpkjbTJE10kRvMdG3xt1Hfjl/x7v239z+Xc3fXY7+59r937ev24OI7n8Yn1jD/Hb6zvx/hy93fvx6e5ndv+6x/wCVJ/n/AEy9DMBz8l7duKmwUaYgDy+YTytv6OaxxRr/ANbeDBv4w5OW3qtioi3caQ3fn3Hd5R/nz4jcLZtlx7MAdRc3JO/jbujn5MCLdpBvffcnefOtz4YatIPjC9hu/wDfHe1DDU19UeSmy+nmrKg9kFKrN7MKwyqLKoW3ifOapac2/stOstQjdTxp24DZ5whq6nkJp8qpoaCK/Oj1FRtnmTrUQnswHo8io2mUgiprVbMqpWHlJUV7SNCfiEDq/wBM05tlVHXELpWWaFe+Ih/UVS2kg7UYHBfI82rMsbeRTVg91KIDmRDJIlQnxmml7Dzs0mVe6cC8tRksprT8H3m0cdSW6QkTgdPS0L3jmjuJYJQY5om5xLFJZo26iBjl6/u/t68fbd3Tq1ammhhjItYPKH3uNPGXUg5xa5OEOrUG3HcVsdCPbjeNxXG8X7u/Hr+rl7uffncuHqy+I/z/AKC/c+1+5/17rW8tCjcvIfit9fQMJxz4O+gcoUHlsOvF5ZVBY+W41Fm9rYU5ZwczOSJrFamriGV0hVvxiVGZNEKiP81rPUcBs6zzL8tS4JgyyCXMZyvOhqarYLDJ1iOYbuflwrVNJVZ3MpuJc4q3nTsaiplip5F+NEe3C02X0dLQ0yeJT0dPFSwr8WKFQo9X+otnm2WUdeFBCGpp45JYr88E2nXA3WpBwz5JmVdlL81PP99aEdizyLPqPSaggdGGbvBM2p13mfJ5tu4Xm1UUyxzNJ1RLN24anmWSmqo/wlPUo8FQh6JYJlDRt2jHL/PF8fbk+5+1sNoYre1+Qjdex43isLmxG8XwCzE9A8lRZeQeTyY/w7vVbp3d3Pv7XR//ANbS/dfbk7m//wBxj1nu/YYuxH1DBjyjLswzZw1m9z6SeqSP87PGpSHtYgYBq48uyKEkau/qrvyr0nnSly/UjdjTxnCvnWa5nnD+XDCVymhcdGypmadfRU4ByjJMuopVGnvmOnR61h0PXTXlk/Sc/wCqRDmmXUeYRi+launjn2ZO4tEXUmJ+tSD14MmTV9dksptaJmOZ0PWTDVSCb1VAA6MMy0cGdU4udrlcoM4Ved6Kq2b7Q+bDt+3DU1VHNR1aePS1kMlLUp8aCoUOvpGOn7j+fR9zb/rgennv3c9P+3049WWUP+OP+vd+18fYY9f3CwpeSaTixwxAyzu3QkUd2ZuwYU0+Q1FHC3/xOcOMrVPj083vnT1rAcK2e8IdA8ulyWnF1+JmNep1D/hhhWXJoq+dfx+bs+ZsW8/Y1TGKKTrSNMLHEixxoAqIihUVRyAKu5R/q/vfM6CkzCC9xFWU0VSinzkWZTpfrG8YZ8oqq7JJt+lEkNfQ6jzvT1jGS3Qsc8ajowXhgpc8pwTx8umENToA8d6GsZeN8GOSY471rYaigqv/AKWtgmpam3TsJ1Daeu1sCxB7n1/cfb7c/c+1+5m7vUGoNfXnMBqTTsEeNIIqYcY6lSOnSx3dmN2N+PSerukuyqPhHThfcfJcyr0fxZ46Yw0THo90arZw/SYDZnXZZk0Tb9Ee0zWsU+a8SNFEvas79mA+YNmOcybjarq2pqYN8Cny/ZEx/BlaTBiyrLKDLkNta0VJDTayOeQxRjaN1m5P+tjTZjRUtdTneYKyniqYSenRMpF/RhpMrmrsjn3kCmmNTRlul6Ws1FU+DDJCMM1KtHn0AvZqOQUddpA8d6OukCL2JUSOeg84pq+mqsuqbf5vX081JMR0olQoMkfWLjG4/wA+6Mfbmx19yX9D12OOvG8/brx3tQU9TX1H/wBPQU81bP8ANU6syr12tgMcugymE2ImzerSNyOe1LRrLIsnVKsfowHzrPa2sO47DLYYsugvzo7y7eSReXepiPZhXociohMhutVVIcwrEPSlZXtJJH2KwHV/r1qaupaatp38eCrgjqIX+NFMpVvVgvlxrMjnNz7wm2lIW5tdFV61WMebCYe3Bahajz6AcmwcZdXnpJpayTZaeypJPRgU+Z0lXllQb6Ia+mkozJY7zFtlAmX4Skjrwukgj17sddjg/Xj7HBlyjJ6ippnNhWSPDSUXEOye09TIom0yKQRFrIKkWuDgNnGdUdEtxqp8rgkrJCvR31VbJYnH5qQYVpqKbOJV/GZxUtVIep6ONY6ZvTDhaeipqekgTxIKaGOnhT4sUShV9X/4Denq6eCqp5BaSCpiSeFx0PFIpVh2jDzZNGuRzysGnSCMy0MunxPebTBaYi7AbEoOOdSPYWtT1OUuByGaesgJ7RHQSfXj39nNBSjnFLTT1xI5wGman09tj2YD1Yrc3kFj79qNnAG6qeiWIOnwZTJy8+Ep6aGKCCJQkMMKLFFEg5EjjQAIo6AP/wCHj//EACwQAAMAAgIBAwMEAwEBAQEAAAABESExQVFhEHGBkaGxUMHh8EDR8TAgYJD/2gAIAQEAAT8h/Xv7k0f2n9p8ensfb07ODX6/9UKNCyMHXRCmxAtz7JtPnCGZov8AAQfh1AF3Liq+ylgoGBj28czAKY0Uch+RjlIn9sUU/nfaMLpnNtRgXHbAizAfgB3kQHCscXP5led+IXg1mC0wnTq/Xfj0+ZJGUH6TAIC+E7sYFAvS2Lrxr6DE+KqcWQqhmXzjUBC2EdsRnXQfre76wb7aCCKjtag2yw2xsKzgpgcb2yb9G49o9v13wkPMT6JsAWrJmojp0yEHHagDP1FY6JkadhrPjLwR/T9/XvcqDH0ic+ihnTMii+9GmPJrTJjnN3nPeqGzgRqZvmhUFW/YL8frudwk52ibh5IXIsgv17bO4XdaPe+Ecx6rr99yNunMeXbp+Qt+pei4g0uK3nd8cq+YG+eU6PMro3ZlDlF6CIg2Rm0MYqAp9Sfri1ZCY4I9lho9v11q/gpwBYdSrB5bVPTmPAa7ddd/TULeilfB5cC+8SG50EzkBWt1gD2gFfm4v9BEbmMX5pvZwwNOre7RG15NleVw+hI//wAtlMiyV/fvzUMWv0Sf5LGtYAngKQKTpQsqMUCJuNuesrcA+lO9+Sirpz3wIir37Ap2y+RnZ3yucaw0Mhjf6SZWFSSxUuoOel7xgNGQY+L0W7tB8BgR3IFVDJ+FNQZ5BlfEGtt1M3vB4vzgP0AigfZY/mfLHvNgs+5advyN6rO092k/0nIZJaO/ycYb2KSKrp9zCQn6aEyqEadjASnifZKtOIYQ+z4QBJVnOEHC9gVv0v5F0UvwqzbK2BRnHx+u12lZJk5gywrhq4aBrLI8Spsc3T0G6Aq2FMWSd1ZZ9cEj+SdS6S6Ud4Rmj/DaN+tQySbeElW+jCyOFljs7FGmca8HsyKdqI31UxhU1IfxR4ZMPXPTIQoW3Ur4bgd7pNWacRpqe1ofB3Zq8pOkx78oL+tjzW4CqosY7eTyIsRgJELJ2Ukbx1XLUZIdJpjEE00mo08prn/D9thw+gxzF7hhgrPRgaxx/e/sv+qohw8dPorj2tguhfKlPZCPvymBUOa4Nm/8C8/b3Nj6SmqsBCb0A+HkxCTSOQvHHXlJtxc38xK0CVPoy+oo5gR8K6xYM0BSE0SKKWv8JK2iTpoEnYbz1PE+XjCFAfXiHiqCWc8Ugzq76o2xUPMG35EI/Mohl8hfCORaHW6I+3QqrNIgQOzCSwnJIgSY9fnIcchA7EG8lzPKx+LeHkMr4FgYlsWm4w/OQKogJ2kWwAH1SRbuCCwbNwvAovU09HnI8GUoqheMLZGlaOKmFA6m81iD71idRSGJ8oD4JvyYrMWFvVp8BIzr02H8P/avyp/oJKLgbPjfPROfjEiWkux/32JMxbPb/I0EPgs3CM2z7GWYhq3o35J4+Ra/+uDPv6XwaGcFMjRZwuMbT1XAaRYOR4xixNFboBXHX1D5NQPr7J9m4pFKbN4ZtRe1yuOixh3HnoH9DtwnAqKHLqk6sIgb1l0fUIVTcSQRBowMEIk0n6KFHMJcBCGdJ6icCyaD+XsNbWqwgO62gFihS2Fn3pw1a4GAXitWaBRuAdcssxHgsJaOnkTxruUFgTcvViqBNqzXypqZWF/SpGHQYTMDFTIozDBjthygCg1gUYC9k1kOuqDgyJ4e1FUJ3w26NcZvDndmTUwbQgV3A9fsWXY+nJ/lqY2klW0nokG+klX5Didkx/6BS4MzYtxhDGjv6d760EXrxNZ5cXm05Oo2t2Coy+nWQ4AmZ/fnXDvLyhDzcMuNxR0jaIuD7182WIQ68RkcRpnDzgZ4erEhhl+eq4QFtx73pCCr3zr1BcQghuWaSCFVJpuRjNLAFlkDTtjHGQKKYELAhVkOWPIWzSXXi8wqB0tHz8Atrj2OSzLHQpwNPABtoCi1uJwA4KNAcgAwotR2AHR8E46XWT460BW+kufOhpbM28cND1vEhRWw8DBHCBeoMOCUTqA70fsyAyslngvSAnylAyZvKSgM1gN0SW176iapDdWGkZSSTtktcG77UBIJPP3CAf8AUIWf4a7zTl0B9RQ5R1shW0lZ9i2tNJQmG5vEdgee0iugw7/U04Nm6bcegkpb8YIWLSjVmUD1g4uAwmvlgKQFGjvJg3NU7mWhiFUhCG98iTx4W7koA+bv4AhoDC1ZD2I9WcShiiweZFKiYjCtOPlHcIjhlDPlrEcQUhdrCHCCCUYgo1wAzlLbyzoLhTRzRBTZNPwEyK2/mWWOz2eBQ6VGEMPnvHDFahbxhziEhiwqi8NmEVsNuTBh4VKVoCHy2sNA84qJTzTQuJywBNXBSAcc4mOIIU1mIhBYvpdQgsvBmwxPCVQYxKObh9YcAep6zLL31gLcwFTDSDnDMpYB78MLBrh0M6FZVQym8CxUeiQFS1yRshjCXfMyoKbXqfw/9xSeXF85BOYJbyciGuDCqTpLeShl2n0zxa+R5ffkejChM5W4XcCjYM8hiB/EgfBF2CUnBgtLrlwtRSc5jgg2vZhE8lNtOrPhhadIfMWJ3KOUWent4AZN49EsB3w/BCUilVwTSHQ1Qs0I9mAERuK6UIYbBf4xEBhHRz2zyXLcBdLezZBtcbb4MJx5LOZCk2C08JJ8bSZhGg7RyGs8/t2DkMQvAR8q/NMOS/c1lIG+bGw6g4FYbmUStFAV2EKE19KQQ03xqbMOUMZynjGsixsEuS7IdMJQWy97NjLZ+xNAyvbSeMg6ae+9ABVUIRKREm5MtzUCselvRKg30NdAOE0JFpk0TavA/p7kcvalO6fkhCJTH2BeCP3wGzzkHgYQbKeHAU5FIXyUmr/xgycPgzpui/gKjG64uA3gBwzFjYpc418ekRBWStpxmaO4cpH/AJaztkL0YGRyB0V3WYMcGRua2yZENd29GCjWJNGKd0W26lIaChsvAJL1uGQF0OJVz0qEReUGG9LFiKIlgLfQ5BXbY8IaQmcmpDnaWEy0644tCaYhB6zjLPGFiZekITw5qzjotZKgRihyErSrCMDgeVo9hADiCZE8sq8NHDikTcStfd2SRFwVow6fggCECy58TguVxraYKVVQ1wpSDjaeSIgo23nyEZLeZNDje2k4zhg8feSAGiWyFwkXTweTBLTNJnlAGCrA1uSVcZqBo8njALiyv1TI4wTmgFhwrAeKeOEAlwpE3rRCm05mOGWp3thJ3szGiHufCQLbXWRk7hGokQ9K34KJ7REuGABNdbgDEIu3I5+2WYpFwJ92XqNUgEqzTTVeK+RZFU8fcXz5Lfb3PbfIlqdThKQTUZhOyFVpN3elJi6yVYT+x4NPPY2xV/IrknFKHNnpciLBcmOpwhh6BGGJ1icbaHa1JDtMAeXAyQRBaFMowRO1tbAIelEye0ojTlWywEBVWAUourrzsEkPZiCDBY4vARA/k6Syai0lawH8xFgGQCtitYHjMuVk6ogEMbbJhzb0zuUYHsoeMfgeZhlyVawUp82RiTgdIXacKs92bQZct/keXAe+Q4AGk7lKnWDFWxFPXOTCJbbYUZTtO7gDLzNUOSBq0w2oIi66dRI6cSW1Ec95NQSIzRrBwxp2SMjydhRnMh5OdGmFSso/cug4X7TAkbZAvYBDarn0tSzZRYquWVmDpy2tYM10eXQL9FX1Gc04G+yd7NQFJQ3SNAREj3KGr2RvOs0TJyf9glbkJznwLIujBj+ojn8Fzot/I5jeUrCir2dYk5CtMMVxduWKrTv5sJTUGemn7BrMntgNEKoR6CtsUkjZs7SMHwaYuj3IJjWV8an3HhOhg0CWhoM4dFSBzbobRLBxu5CCB5pgEYr3xKAHFg3k6IOQcACikqFkiCJr9Kci2DpZNOE0zc2TZZHlSwAMG/bwyABkr3aQMtLHFcjhtsn7w8BkTs8lCVfIsXMGTTXqzGJGVTQ8ANb201AZMPmxCKIvKPhODhhtBgTpXJ7m2hwXVd4cgkNE0tJXRSHJlKQmgaD4lKkI4FHMRT9ZLJyHAMQI0c9bmgNhClhxvU1VR5YRMrSBa6q+UKDLrGGWIGgNIcbraxHjB6bWhQtqIawgfwvx0aODhGC6Qnhby+AgPDE3qQ8J8Evcp4ROlbFmgLgrU0G1LRD/AGt9CF0RQ1llaRPw8uiHl5Hz5Zfx1oZM9ENM59Nr59KdN6NKUkaoCL3keCImpucKkTfeieEulwSvLMl5McQaD6GuRe3kaYRs9mVwZrPK8KB5eBGkMWUW3pJcg/pEDIprU+Bs1x4XpprMyMiCZ4bXN4MxV2SoOBh1jDJA6am5XT68awuxBQOtFKEOkyebxiA05IoM5osZWKA7oNxnBPbTGhApwyvEpN53AnGK24dkkI0/NNgPJrWeyPUHlaZG4O3PZ/CQgStjappyubbwwwkHje5CAovq07iwpjehYpCmYJBhk559DaSF2uXiTs5pp8CVI3NpZeFCg1B5RofNKkTL0Vs0GwBsoMnOCw7iwOkDveMOpB8LcWzAtCH2E1mZcSiPtshQIswbyr38lvkL69MSZWlRk/VFFvT5FTcWHIIMV27TBsOx8cfhWp62iGypAuDINa5psXJJkmIZvpPx6e4X98+jTysUaLOEpBGIzcmgS2RnClJS4fkTIwx/EMbdY8mdG1dzkYZs25Ao3bHeQLXvezIJPg6hhthuBZIMj5BchAZO0BUYBK7dsVRdJcCmejI78nNnGHyDm3YdCQ+wNkINwKbkA6OCOLXBlO0xg7h2ILBLOhqTvgSOqwAqdXl/DHZZqdwp0aNwAwgluGMJHoZ4yqUNIt+iikUogoGpOnqGYgBWs2UzYHlR0IUiOLxgKHbKefUwhz1CaDyCn4CvvjmBLwXh+rLjpNp48FDp2sHjbw5MSqC8j4SnrxHGg+U3S2H3oIg+jswtC4p9hEZYpA3tlcB8TfB4EfIujad4Gtf8sUURgCcG89YUwkJlUs06CDZ01xmBtGICBU/snprvyJ7/AEII/YmzR0LHJn+RMChIiTuDUmXazReEmDQwCrI20GWNRezUIRJJA37eoIWZEvEQUj3MG9oFvbqPmm3KNzc3p7Cy6FVR5FBwNxv2sh6U0b6DBfUmCGJSPawteRdcwskRHEiEIwaKRW4IkqIXQYCNxSgg2/CFFBu4PlwUusZBwwAiwUbdQFJoQNCA4S2DXkEOFABI4SjIzLmAyGe6Yw7zCskxMGA2jFkKuirvkAuHDh266gA/L9u7DUPxIoO8R9gXVEQD+4/vGFHdl41Hsekz/kPP2HZy6xCmUjYlJbC3KSygLtG5x4JgX/TTsbG0/wCBfcwbpfngn8YEvtwf3Il6glQuz5NkXoWWwyZ8gmKGo9Rcg1OdhgCLzkTRAMlObYoB2S2m9w0UnHh8aPsSk+xj51RpenV5NZHF+p5+aVLg3+TQpO+5COl3giMtPrk4qMnjG8KWputk3DNqDwmHBJv7kacYuamc0cHAltRrIGBe0GljxtfEEOjBbzVxB43WaspBR264eCZiT8zg0KnyIAwGzsa4oaY45UYwOGsw3pjCl0Yi/sKtMPyi4dBJNKLT09YHz9315XwcAa9QxWTMpiuWD0Gprof4E/OXZMdzYQDwNGgeiu3lfnK2rNwzg6WOd47TSUPrR8CVjhaS5Q4qSwSCAGrpQ5C35zH61tWi5Dq5LZ5ekE2sd3+/A/x6XSIlbzdN4Ooq4AzMrCPyfLaVnPogFWHik7VoJenS8D7iQYJxq1qwNDoMmi7Mig/jUCAkM3IDuBeCE6al315NzHkkx80zL41kdUCvQYehZdpXY1NfAS+hxIMCHEhVhJx5T6h8+41/COmdh71Efvz6Tr6jRHOs49X9o19mMhmsYxLkLzcwkow8iEZ0hpvYfJHEfsN/qJNZWHRykcaIJC2iykBo8PWttCj9lRo9BItFhZOyATPHwlw5kr1Bxg/vm1pDgl6Lp9Y91oPJv3v0d+VXKrE2zyExHiDCv/EHtYMSXybg71SZMulLo4safIXUq6wgvYGOZUAskoHnGdVcR5GzChSydCF5a3sSXSRuab7eew/ZcCzrPsPE0gBwOWrCGCH7i6gAZk+QOw5lIG3j4iVGhNsLLaWHdCv72yRIluODS1IjV4v+tEppEHX6XdjG4PrfzQQDYGsEMLPIwZW5+ihLTfyqN+gkIgA4EfwKMLrcJdqe3Bg5rFbN8x5HqkTTfkSNTKyY7jwHgbCHROHRcm0+aYKN7keUxsnauMwk33laOKb/ANn9wNeCvobn+jvx36T2vJHkb2NK6Nln/CDFXASYq59DhHlD3AmQHEjTBe6Cs6vYS6hHoKCZpnlhVi8cAPyKXheyQOia0dGZuBnbLMS6G5G0bD8Zr3slhVZGFT3rkPW7grZtx3gLom18qGE1jaY0ON0Nq0twxiWhpag8m5ncCPdgw8vLeGNz98DffZJlxMt8AnJdC0gKdkLRpN9IQQH5RUzkaVydngcaqx6w8fy2MzzX34MHsyYs8a/Yzpzqls5Ui7FWQKgFSQHvgrikHRLzVKJg1i/dgFOhvQXbqR9IIkvIW9XBCgtyHXoYKMzFxZypmPE+xrG/sKqmF5Jy7jOBTKWZxg+06Jaxjq+l05Uj8wZ1aDRpeQ+5s0PTI/LSiDGInejJwUEEMnkKcMBlM8SxYB2JeZo4SIrjDZb5H1OOxjjnf0JFmmF3bkTG6bPhj+nQ/Joz6JuUpEl/lNlyAhXzTIhnicqAoyPM1uheDcfKGs9ALUvwM6SVTAQXOQtBqsphk+i00uXAQyNJGca2GQ5JESylKwdp2UbEy1t0K8LP1Nv7RuDL0qwSnYzJ0B/YxEGD6qoxUimIN2oDgpKiwqAj5p/33I3/AAGqc9DmLlgbDnkUhexYFLWOcsQgIPllV6vIvN9Ebu1gr+/kaa/IgL89MlwqvPQ/w7g7FRGYg/ei+dwl9H/Sv4KGh2CHIIX5CerZH/fvPc935ga3/aTTS3oWTXQo0dW6OUIvpAqBATfKqVZRmY9337Oq4FPFNVsjD0C0RQMnUVsJoQP+hMzYbIBwz+JhjVS0Q+C5zwxi7tvCCNrZdBHI3Ti8LAl0ZNjCHlfGfI0vbBFzfEPf8Ex7+ifjfpj+8H+zZ47Ik290U1QnhCuE6Hn99CZ11lyVuw2wEvu6Sge8OEJpiGhN9Wg5BY3WGrwi935yW5aPigSWP7kmnPcTPj4QZzRqgQXPIQcgMqnHpBB7naqcOEqtz4aJI3UFjOo92IHgnk4B8vYusSurs9q9y6H3kfhIvtaEIOI9z9OZLHK4L9De0Caw9OCXLl+CMnxdbNZuWR2TpuFtb5Gqv4PE1grfbI059yYNdcaEBXKYHRRbYLJ65BBhrf4NmmCHvxy3YDACoI1Gpc2VTBmppewz3zkUScPbFYCvTTaI1BdUftjv7++htInz3XwomZT5jd96yUUo0RSM9RmSCUhehJhfQAXC9pkabTEPOQlJBdwHxX8p36NEK/xRLnHSSyGB+HFGCvPS9qBR7DuKUdqh6WZTXgm/eE+2IaY82fJEjDunyFQ1VN2P8k0KVJV2ponHY9creC6FsJ5LrKk7VOBqCd4xPldiucdChnmLLfAdmQbYoIjaqlg8TReKpARMnLMiYBWzFEOR5f0TE8ZztszPG4VbsQRqWHuSYaVlWW7ZVyajcjQJrZxBpGSn2ognIKZjBpKsxHD7U0b16P5wKcvXDY1vOEFrLJ9Tj+5BovJn+4G/cf8AsG4Nt693kt6Co7DIeAd2uqSSBsCyxKN8O0+9+eB+W035FuAnopYEeBUt4VKnuTfxtjajg/RMbv05+D0LqRZB/hFCuFrIgriNd7cWhl4CbzwqsWHwxlKvPR3QZ/shYYfo0+TMWbXN6/lYbnuA9EXyN5zPy2IoghFzVhR2dmNZ9qLrvMDpkS/vm4D/AITrjT7tcXPbWxk1OummVAzsy0Nz5wydhaeNSlimd+jGYCZUpojKEw85WNicfkn3PpVgSsrghpla258iRLvomOci/wBBY4+/AxL3ZJK8ucIQifsCCWIsqRzcEw7Vv6rgzMCHEjAbYHrwn4HeW2fhgV/VfQbeeMs+yFMkjMeDyDzv1JYORWtpLDOccQdITkMZnKoH5PXa9DhM2QQ2zeCpeiPPiHWAcLNwyU5yDLaSYAPIfSF1DRQyZARr3V5WBSPee4VqHvDfNf3Pw78Gf3Br+BCd7wc73gYDSJnIfxv6yYgL832oUkIE6V66AziWD2czTr3jwpRJZKhSG/gdXuEUDHbGxAOHPENCPAMcgCjy78N30fX/AE9L4q+2wwDYUB+eWvS/D+BKvXj9C+y7AOhCtAZ1HCWgAkhPhF8zF1F/FgJmGKYTqIsL7B737ayfY8KlZ5wYI+VPob0BO3YC3hfUGuXwxBVM/cJRSmRQJaaSfor+7LyD3UQ1oB6YPrPDreHpZzyThXIPVwzbOGBqaWAqV7wYlqkBnDNiXkfwNzXwRBw9GaOqtttnmbnfEwRElFaxWDrbdb5expw1z/wSXGRJcCYEsDw/uDA+ccckspMZhCaJVoctx8WdDAWNw2tgoZRMao7VkHeDcDs6gPw6Lc2QY01101QQXV65kWAA+EEyk409GRUhfPLfySZPSy02yaQuGfZkmabVBFHxtye45U2w7lyPHHpbrYaXhiuMRozJuMip9ryFqu+Wf0+ivE6L0+02J3vXhjTdhy0QvbxqRFkE+E/3hXKExjeGgfbXseU0cqLHbD9mXxyRwfOeg0i5qT0fhrpIl/AC8kcwj16jn/heZI+pSBiQGbBoiN52TuWYWzpGyO61weKWe7tZ9ul6XC3MVyNs3h0PTWPYkfGNPowylb0mPO8L8Drbu+c7Fn8+laRMGgb/ACQQpX87Ow03dVCIWrB8Gi8mgh+m/wDn9FleHkNok5nYPplj5Z0TZ+GuR+DkeyeexLnHpOTl5EvsJX8CXyZcCfqdDZfmjrgQ6rgsQrJSvfWIjaT3yBagdob3lfi8H2G4CYChfQ+TMssen9L/AB4NFy3OE5HyPU6VjchzFVpzX1G2R15j+xN1zhbA+FGCDG5h5qeDiPJ0cP8An/wl5KApSBloHq+OGCtkEWryXiWhndQcu+cdq+ohzNOWqEnyNnGoudC0WkNPjJGtFC8B9b7iWQlY/wDYaGlsP/IjDUbN9kESuQoPImKgeVbUz5UITVCfvB+PGngmI7j0+p/BLn6D+obBIfJ2KLnjmgQNIC/rV1zgYMmYCOSPVJkL5eQXwj3MrO8/Ix0VSqznoOmsrLJ/HQo/QzRntQt4K9t4UWMj+c6wLdE7gSyaOJ5HOQ2m+GRBJudSFI4S5iS5jvQ3q+/pOUSk/kXu3MBZcS7fBHa9EdfpwBLbsh8NMc6/qEPxeAw1qmOB6s5QbcNNXUFyyKTCFsoVJGGSWVWwmcVBqek68nPwGBsnwOH6eCSlIvC/u80yB/Lua14Av/FWSCXHn6CJNhrG8msntIUXTvv/AOjcK8ReHDkS+BOyJkDLIobQKvpzMlwrG+RZ+ORI+11BfRs/cKvjMZkszxDGEnKK+9NmIbdi4E9vKFRkXGbVxDvf6ZsY5sHviqG8NaBlJqDMDZp0aVxuDcin+1yqHS4ac5qsjGHHJlT5Bu9JCwm0AbXT8qoPTHvWyeViCwlucOkxXh2Umn3oaWc+y7H5YttEo2RbS9Og/ux/hqcYYb2PlY6h9kWrwy68moZtuvfZGkuBjHYiaZnSJ7fQ004iqf2YnHnhcCX3HWxckta8lFc3mom3vhpCWRVc9BL6a9ziDTWFyH12uSJVom8jS94VIZtgUuDB1dQQDSwdHmAuj9Dh3UF1GOpvZhJX4PmSiO4HcG9EqwugyTq1ywe8OpKhGg8Jc184nIfxog8HFrI+np36AyM2L2F8nIqf7FhJ9j/8dW70bU/ppFiyyRbMxBQWWj16J/wfhQJlF8qguHIl1/UaJecCT29hq+/wLvGPJeB8/MLCt7fMSlwnbKQiJiEpRuiRNkAGXIbwMXkVnmYNk2rMkZLrs+mIMI5bOD/KyfSY8db8mOU7wxyfhRZS3j7CccBprECOMnOb0WvPniVPB8lxOAe9tZwzUbYW2KCnxF3FJWqaDkjyZBdifbCGmedHsfHIls9jtlz7ns39iGE10KOW/wByb47Jwhnn30a/0T+fJA8Gt4wU7WJG2wXoDVCWNBY+DaqiEohfQ6Nci4F+BfRFSfgottZgc6cR1Hy+euIGQ1wAGj5HqqbNaF2M+lG3MQ/RZ9NQHYP9KtB3ZcVWvFF6nFo8i1U6LkaIfAU/Ls/9DzVVfwcUVdDQruhD7CugmnThQ6G1DUcu1bfwEePA1fuStv5KXPhic8i88fgS2pypPRjdWopYhvYJ/o7AeL8Oq5G0S8NUzhyYi4Ig/nKeHsJ3L8ZEXSb6EmLO/JqzN+xo87eYyonhlx60AVo6wad1FruVHOKtGTxl7Fzz9eTA9sJNh7Vt64Mqv2KfAnJMiMUMXIFKtuVVDJI/wVyrwlvBOsvUcCeNvs8OWRxSxPJ/VjI+/wBhaj70Ho449F9v/ge22IoRfc0nypkbR70xipWF7cxUwy7jfrExxSDwC6aUpKH4WgQiIsvyaROS9l/rQqVxHW8LqTHuDkcepcbS+2cktlqLTIokKFwUXqKGP4L73ThwR01Py9jvL/8AYWP/AHvvLgtVggSl5McmN7dd6ANWvwfrpbQD6LlU71kFxzX9z9hsSaueTY/ZJ2LKP/hbTfXuYmsc9SoUGXIJ4HSsppDhDxu3E0FzF8vkq9qqgm/Y38hro8eRPhfgjOlCLuD4Nhsg5RuWvLvPCjXTIkTVng0PIF7I5K4uRpci4X2Qu92arQHKFi91djQ/qZIT3a8E84a2b/g558enH7Dj3Pb8DcH357I0CcWwKFabUnfA+biDvHl6WvBcPrwOhcH8a4WpYkPwDVSbBzlbMW6I/GVTXBzaw2xCFz2wxwULvLB2O0bt82zBSQAjfzNmBikX+K5A+/FtsRq3ppJ7HOVOOWu2hK9LcgAmwKHmHnIo9/U06pm3nHuEgrW/9BJPuhMnk9ZJyyqZyL0WLX2L+N3Rr/RCsRpZsqt22esRJxewY5y+EuCbmnmkFRhpIlSU8xf1QYzOK3g/q69z4x+TXGhewsV157Nx64O948H9fgb9+l5Lx2KrnkaJJt/K5H5XpCqioSyp0CktBz21Nt2xD6NCG6algelG14Si+e/GuHkZpdKw2GugTBiJECXmFpNzjDw9EtS5Vvo/LRf5ay5C4bymOudH2MVhp8ggpRYJWu7HwrHECtE18HByfAlS3XxRI11wlSr8+C54E2c+5b+DX5GmexOqfBiofMW+G6+QaLTjO8VHMba/chbPGNFuCU25N6EuvoJd89MymUlXTfGcmuti61nJz/cD+i76L59ijUy/NGnyNllv2D3TmNHQ2uB59IwSp0TLKViUXBSRB5kta2FBgnwUm5B6mAHzogf/AE17IWx/9DEfDo6TuRw4bP8AsnjdqPvSFhlS49BaoXS6BIoAcZH5QSY8JRLw69hIZe3kT872VoYR76HKMlhPDnWW9XBbH7Co7v5E2LFtMdeVXAKZrLJjCErGuFDytdRm/fhn9waRpPsyllb7mhtKm29wnNP4DDqMPwZErleBSsYStEpl2Hp8pXMR/B5BQcy5Z5/pSarOeFA5lrrWiZ2PLSVCNndrodUrwFzcNqHISQBpGllbRxjlzExYfsa8iSdhXwfdeRtRrKrq0bmapN47GO2ktCuysLsZcWoyqWHvBtfOXtBtdmbWMtX2OPfvoZvwMDSbfJdFpezwPm2IrD9yx6DZ8C3YpBVhVnPSe3oq7VLmeqt+oTmPiRtWHw6RKOogC3uTCL6Qln8RKkyLLpOK1ULD2gNTg4/7E7d+EQ8sVcQ/4Lv3Hg3O/c0VO40mzMX2bDKTscz2QfELuO2+GPN19OBymuYYQcStS5RHNWOOxWV7YqkLaGUfEtBHWzvD4YQo9AIxVl1+RH6swhkTD91I3oB140x3LOgDRleyN6QBcA8yh8bCrXVHc9cjtq4tNmY/JwaiWKjN3hU0PLLLPbQtMKmNlngdQAIcncOB8w+0A/cC/uF4V2r14Kt8l/XU7ZYXgQxGI+yfnAJ9Vs5tl3nlQK/Efsxg54B5MtorIlUeeRT8UPQM2G3JRz+WdAP1b2HvBpYHn2OUf6Kf/g3KGXyQoR8aY8gLyMHxfr0cdEJ7XCb10iXMpjx1iGBw9evxOwL/APjx/9oADAMBAAIAAwAAABAAAAAAAAAAAAAAAAAAAAAAAAAAAAAAASqVc8PsAAAAAAAAAAAAAAAAAAAAAAAAAAAAAAbFqt8CagAAAAAAAAAAAAAAAAAAAAAAAAAAAAACTFEOBWxgAAAAAAAAAAAAAAAAAAAAAAAAAAAAAGYEn4n08AAAAAAAAAAAAAAAAAAAAAAAAAAAAAB77CyuBVgAAAAAAAAAAAAAAAAAAAAAAAAAAAAAeuyq7idoAAAAAAAAAAAAAABAB4AAAAAAAAAAADwb5xwpWAAAAAAAAAAAAAABRi/oAgAAAAAAAAAUIvsbnXoAAAAAAAAAkNDgIEJNHY5BBIAAAAAADmzhvLuZAAAAAAAAL50WqoIEMMFXiTpoAAAAAAOqjTlXggAC9HvFJ6I9pEJoEnhAsspdta3FAAAABAAAIAABL+rjFtgVIroNoMokookFnlooEqE5AAAAAAAAAcuOFpMJkBFsJooJoJoANthwlhNFBBFdIQAAAAMNBjIgttBEGpssExhEskKgpkgotABJNOoMAAAAAIlPFtBIsgHkgkoZNMNBIoAgB5BlhluolntdOgAIUFEFshBcFBGIoZFxgtsFKA44thsnHkOIYeEMCACAAMFAMgUgpIhctJhFBlJYhMgIhhshpoMAokgQQAbMoAENIFpBqMpNNhhMcAgIhAlo0lDAIMRMPg8AQACMosNsoCwApAMhstBpAhJIEItUsACAA4kIkACAAJB0IxJgIIsAZFEQIhEulA9koGgAAAAAqdcAcKQCAAMMJEBYrsNNUptoAICoIqhgouBCKJAANtloAAAAAnpvhhI1poAlpkAtBMNotMtMJZNNEAAAI5JBYACABNtRhhhNIIMJptOgosgBAGJNIFgAABDpMtCCAAGUptMHllhttgVABkhAAJCABZhBMAN+IEtBkNmSAAACAtErlt3sdgICAQADAAAhAdpAMAEEFlAMgAAAAYNFptlMAlgAIQABAaABAAABtEBFhEBKINNB/MJIsMGGCAAAAAABBICQABAAAIhhJpFsCJCUt8kJNkdBNCAAAABQAIACQRICAAAICANgBuoAAAIBkAsAQAAQAAJAJBAAACCTQAAAAQAAAAoIoCAJLADAAAAAAAAIIZBAAAQYAAKAJAAAQQAQABAAAJsAQCCAAACAAAAAAAAADAAABLcAAQACAAAAAABIAACMCAAAAAAAAICAAAYAAAABaJQAACAARAAAgKAEBkAAAAAAACBALAAQAAAAAABHNAAAQCBAQAgAGABgACQAAAAAAYBCAAAAAAAAABZUAQAAAAAAACAAAAAQACAQBAUGAAAAAAAAAAAAMoAQAAAAAACAAQQAAASAACJwAAAAAAAAAAAAAAABLQIAAAQQAAASSAAEIBAAAAAAAAAAAAAAAAAAAAIOdAAAAAAAAAAAEHWBAAAAAAAAAAAAAAAAAAAAAAIAAIAAAQACDwQAAAAAAAAAAAAAAAAAAAAAAAAAAYUAAAAACmFgAAAAAAAAAAAAAAAAAAAAAAAAAAAAJyJQAUAAAAAAAAAAAAAAAAAAAAAAAAAAAAAAAAINVyAAAAAAAAAAAAAAAAAAAAAAAAAAAAAAAAAAAAAAAAAAAAAAAAAAAAAAAAAAAAAAAAAAAAAAAAAAAAAAAAAAAAAAAAAAAAAAAAAAAAAAAAAAAAAAAAAAAAAAAAAAAAAAAAAAAAAAAAAAAAAAAAAAAAAAAAAAAAAAAAAAAAAAAAAAAAAAAAAAAAAAAAAAAAAAAAAAAAAAAAAAAAAAAAAAAAAAAAAAAAAAAAAAAAAAAAAAAAAAAAAAAAAAAAAAAAAAAAAAAAAAAAAAAAAAAAAAAAAAAAAAAAAAAAAAAAAAAAAAAAAAAAAAAAAAAAAAAD//xAAsEQEAAgECBAUEAwEBAQAAAAABABEhMUFRYXHwgZGxwdEQQKHhIDDxUGCQ/9oACAEDAQE/EP8AvUjDpyY0hhzlIts31jsVmd3ELzbcTQ6OsAaKN9ZaU5ZYTQecKsDf/fUBTQLYokPCA4p4/wCFasrq3LAfDRjwWPJ759Nd5f0iXqNb8t/HnNPZis9189YjXxYzyq9/PMaAW3ljjnZ23vU4ln/FnxrHTlcIgGayJ+ao4vXnhW2hycdWuXXEUhRezpvtnw476To61m7usYrncMg8f+6861gQH/L4lsIzq6RbDEFa+/lB1joLdeuDaryb6WS3fbxfCtNOOdZugWjoFV29MQYQ6K/lx5xAF94cU07d8iBy0ArqHnr5RCFsjvq0/i9cjtozJspq/BOvfKCny7vF1eRrBVGlOg6f90NW1OnHfhnFcahQxtY2x04tXjrxTbqfY+0odl4VxvFePOABMuzfxzmupnnDBwLx1xLtZS+VQlAjoJl5N/h8FyCH1LMmjpvpz4+gBhQ46EC5QHLY75yoDKW/EUXCeO/4wx7sAXref8hof91iiKOmuMn5M/jSCd80Xi9/1zjdcm3U9+mnIlnuga40/jrHns1n/C/Cukr91eHSXQZ/Wkt04s017Mr7bNuVa/5FMEZU1gDc5Xzlz4Aca1Rf4/cFJVl4019s1K6l2Opb3zicQhXLMND/ALtEru/eJTW3qF5K8eV6OSPE0uGPYjlqcrRWM2a4eGlbVErkgcOt+UqJQ0s8u+PGOgDgNO/8IsltnTlx8D8+LEBM4C+HC+MwTozZ077yLDcdHx6Z5wqJM5B399HjGgLcCvT8y+oDrp8+/j/wej6l7lfdAKdoFLVW+Br5UvjrFvsDe8uHyb8t5dQqsKE0ca71rd8nYK3q/Dfjz9CATtgN74Bq9a4cZp3Treb2w8PLHOY8zlNZAedaU4us85TQMwONcvz18ZiQA8vnf/IpqF6/EQDqOvOWbVrmd8seMaFHH294BpN/v9fGILsO8azvf7LXk784lmsHfGKP4WGrX2nSAitd/wCxftDu311qr3015TTLGq2y8d6rGt6kqjg22XXLX3ddLy6DRVeLNfLp1zFTXY5aY5u9ab3RV5iicN0F05F15r3/ABpc4/iPzh58PPOC3Q0Fmnz454677E1E7lO2/RrrEK1WXyXxa4aaajBsSy6PpeK16+EMJW0M5pC82O+fKxAADYafZt7FwvcqUUdYBoxf1WClnfvWIxV99+8eAPfX0iKbLtV1ABtDz9bhuQ45uLC3k+YkKwbUioq8sKu1vffKJFefGNIsuVEQeBjSvVcseUCY8qCXIP7mTeuko0N3p9mVgc++pECXduT3del67XLBs3AqrOl6F1vpKSNRKpc052rmbanK0yJx1abvTXj6YYNdsd7NaxeoV4GsvIw105e1xcs5C+WmKzjnzbihFdsKeeMc9R4bRxAC6GbN6XbGLocLE3AIoWHSt675okpKctEvx9ZWOZAVlu8rVY4a8HEJhbwTiavo6vSXeeP2SJqVG0ixHc+EEzha3ihvptB3qOUfmnnCBRad+8GLG+TidUcqjQxj4MvIJTiMEpQjzPVmvZDoeMBNJ5pmrXhUSlkeh2QJWFq3NcnAtxiB+cVDK49k0lDK99e+MuN2cK74xJoa5wNmy7xoto8GJzTTFbRLn/fW5s/j02sgBajvCypnMcjAfuAU5UsTABBmGxiCo2njE0AxyPzF0cKo6HfWECMt/CCbwVHb+UDv2eX8qLusyi14/RQq3WUWPCK6Vdzga4698eEoGSOe8fEFIK777cD3keHfesu0gO79+8jWi0eVK5t+hEtIujNKCtn5RHQHiVBOUZkwHBD67YlpxdFHjiNq9ckxC5vM+YBkHwINyPRfaK9u8xfXvSLKYOh6Ihn5recDy78YHgz0HGDNR4i+02EnEX1miviM+cyx85R6QKs15LCcU+lcYlkPCiK2Bvbr4Rd1p43G0JdkPKXANOCZ8plL+N948XPLfv3iy1JtmDHR6993AYMnkxq8hy/EwCpOfTl/sALr7unhFw1XaYrw8+/zMSN8Xvvzixx774RHCxG0K1vUJHDfP2iCm6cofin3hkEeJK2AOVS7WRyZmhnYQPWUbDjUiimXjEu4eCfMDIXk5zWR8l7S3w21LBmzJxomMKnEV9JYznK0Oik6F+c4A8n4idjroszZmsYD1mRX4RLQfxmBoI8ED1lRVXIe0WbzxyzeJ4J8x0F4BNA3RcWuROyj1iyVR5Z85hxHESWOKnrrBMC6HvGigBwBx4coJk8WrKdK3sU6xq6DtgMbRWgBq00/yJ6vfXXeV9x5QawPPrDODB+4su1jkxOc0xfZL/aIZ0cPnPe8QDUd84AUAOkFFJUJqB3/AJAAAb5Q3TYHEuCUMKORtE915XMO13jfvLdoOnkiBMW6fqG7eIzZnLRNo8TGkas9ybwRsOAl+sSsCnIzzlTT+JiHVtk+YuMlukQa45sfiU9L40cAQ6HSJGv44TWzxssGw8wHrA88pr0m/h1Yts04nzHNIcqJcpFxF7Q3xHHOfGD0CToQo9avp7Rw34ht6xhj5g94sJcx+pjCviwtdZwQ95XAHlR6Tcb42sIHhW3rCtWPAh+r6rDVteSwLml0qIhT4jM0bhxuYKzwZ8sxDmA0tPeaES4V7RDQm834jzFR98J3XMob8u+sXTv33tLbme+cSu8V3tcp269/5MbNZc2w/wBYKqzBSjPfWBt3+Yo0zNQDhFVTARRsPDnGrlngx8FKGqhTU3h/UrmXr+2ZVY4YlwV3qj8TUIeL3gabTg1ttAHE4n6goop/KG4Bt0mmSO+UsR3xyyt1DmfMNAjoQnVviPxMkl+N1EG86HJLGPiCF+UcQviMDS9Q94iQzyQitlTwtmzePE5847IxqNyL9o3ro0FNRe0fISvRByHpDQs3VlS9MlesDpJyT2mpF+FvpBrS8EddtZkaxtkgt84/CCW74IvGNqoeB6xpgQcwiLTp6sFTccwOkQwcVyfmJmVvOXO8Szt0KdYFZjnWnjGOw4B7RBqM7aTonROR35Ts7IpirvnKOuDFitV5oewWdqdYgxkd96TUlPB/p3TZ9KOESyogsde+MeJffWDq6vfGKNuKhqXpAjNF6wttKcGYUbrrANbXr34StQprDG0uxz21YhgA0xo/yUYvd6/XnM+nzL3rKqQo6eWYgS+tUb9Jk2rhSzOtTzNfOIVkHewjrleS+0ti2nWNCqvhFWL2/YfmZm86wNYk2f3A4EdDJ5RLCK83x0JWX868ecUbJGIbg4fqb/fjE3TyUe8Zo21ce1xaF/Wc+kAUy7V8w0EfAheq4jcTcq+CWlB8J5nQ/E3bWFN1ck+Zcoz4ELNodXt3+JklXBt9ZkeGguYuYb4ektWt+rMdpzDEVKHxBFRS+O5nLHhWkWCxep8wV4TrHyKTez3vM97fmc78CAuTHfKBcln+xVp175QnKd+Ub3hb3wi8g1iXTBFbTp784k0kLm9SKGWCtaTdNn8A74gNXb6Bt3+YpdussWx5xaWuOvOJ1WYWUyukHwK9YAq0HCaxUdIZ4hxNTz8fGKWq95ssOhBV1OT8SyyPqsQalbJ8syRBrXEcyM4Djy5wJutzx6wdxszqQSqzh+pky9DVAaBPJPCOkK3enOWmdxv4gmXL2qEUPkmkr6fqW2VeMoqjuNe8ZKDjpv0iqcgooSrzLl2gDoFxsVvvd9Ypbb7UzQbrrfrLDQU5ntLOTpt9IpmwNk+YbU8BGAbjF48pQLOsfeO0JtUravEaiSqTjdgebLyuImjwVHNN5n2gGV7FpegiaYCUaDcbI3IlblOvxc1pO/CeEE6NPLr8kWb8X5m1dV3xlGGkCqdot5+iXD+U6pW1K76yzId+ce1aEQbqz/YlfCAlGb/po4TqjYcxBlsP3LhWg+oxgpo1FBVmAJfUmnTLCzo2ZddrjwDtpdd/maWnvj/YXLOpBoEc/wBxr0nwmKveV+xHMvNX3hlANaY8IQS85PXhcM+3hYeVCcTfxl3hnwiT+B+oo2PmsIsPLKUoDkRx0Wjh1hn0BsnzAGEnIjDVvVP0QfKp1xyzCiwrgh5Z4xIg82PaNebkX7QMqOSfLKAPmxFDQOT8S3arovr35QDJNbURdjvvj2lbOOV+0yKrgp9YFlAOQXEGq3EaiyrfhMfmpWlHlmDoV+hNJW3zfpBNdU5OcPWgeREHA5PxNTeOb7xpEwm7QRG0pP3AcXu4MVqBNczlTlSitXUNk717ZQZwwQG9YEWo3/WI6MqtMs7rndctWbRQpV1GtipRtAHGJYYp5xvKuEPwjwhuk7/5LGndIjEfGS1qLrpHiRwHXwgW7743iWTcHCiU0reI/EvC6dMsc2nB/c2AOVRwWTwH2m5HzN+c0bOsd6RbTd2/iAMlebCGseP7YExhzJxXiZ1l20tpl71mrCeGNIlQueyb23Mr6QW+PE+ZYsjwxCcUVuPxEWp9WVFR2sPebLB0l3O3Ba+E01Tg/uVuBDah44jsVOInnLVp6qAb5fFxQsQcgmNdcRXxxMswuzfvCLuuREQV+RrED1CJUcZqMtVWd+sLBihlnROdLN4BrzNKakEI245xHVuIWBZUpauWm6MSCOf9iGhQROK8cf1UcIp1jQvv8xtt35ynBr3zlUNVEF2gzXMGaWeMc12c2EUWmnHwgfQ6vKIbCG2NNopOxvM3B54ZHb6stmmdPeWRhbxwnbmku2htn5gaam+kbpOLWD5Cebiao0517xwz4xXtMIrpMLZ8R48Y4HkUUKpcbuLa1PJlRanmfMuygccRfF98LxDXlOKwJYHhRN6QdMkWpxFfmxFBuW12+sNp9HI8ImW1c+7iCKs1dRHDEBFBd9JQ0y8pcta38ZVwCY8QIkxay+srzdvaXFf8XV98JpTW+i7xmdULNW5uFw2rVQKC5h2uZZx/qNI+f0QcMAcbwHGkSL79YgN5ljCja5UK9YwrIwityus0J0mhI517kB0PflN0ljqkhj6eGJa45lprfCatFeZBEAN240gtEVvhhWfy5XMbgnzHMFfG/iLrPniUw+f7iS8HkbSkq3vn8yxR1ytlK+ET5l1xPhFkRchfSW14umvvM9QHKVLLpoZgDoM6zLKoekEzb33rF+6/eMKYrhDbey/Vm0M/7LhdTbxggNJrXrU0er6w9eMe0zWvb/EKPP8AU3fTlTlfRwLwlK1trN98D6W8WcYxGobQaZpijmd8JoLu4MDx74zlVf8AXRwJaYzEbF/iPGd+cXo0IovOSXGtB9AmKER1/MdGomlBScIA0XqmYLwk2zcp4KGsca30mYtvWVrDywxcHvaCPcQUJY98ZrsDlEkAOOIGAC6SgWq5yuiqZeweRG1qp8pZ4MzTbWzR6PpLLp3+ZmujXz8TTuLfWYQO8wb9PmDCuMpDveALuj1giatEzWtMFA0guaoekAbPyJfhMPSFd/oABQYm76c6c6ONcRreXVvymsfict441xFrpdeEU2p4wU0YG47/ABCNXmbXe8LVnL3wguqYljo/1Kcwg2DxjcStZVaWsQ4WLN333UoMEy0l1EMp6xRd4G2yVtqeM5ElVqSBUAPSGrH6xzK00n4WkcuWzH2Ga5yxqhzHeYq1NOF9/uGjcworhMUZ4QdPhpLcNbmU1s0mq2t95fI2H0YfOfVgDRvthRSsxoCOLHDFyXBNE1j1vaZMvpAvSALXYQLDp4xbXNfv4Ikxx/cyKe8wN+kQcMND66Q1rogcMOEctlxqIoiwQG0obN6VWOH8sAuDhsynfSVJnDDDUzzgXOFSjedtP60ImEpbVKdsvfGBppOB3+Z09+cHYZ27uZKMPfODKxad8Y3d3mC9EFUrumIbdn0Ypm7sQ8JG6277zb0feU5K+0B5QgOQLAKHB94bGt/MO3P9xEvF7sVMuvWcA78oq5PzBuaX6JNTvylTBoRghr/v6imze/eWbstdW/5aDp/BjgE4SjI9YQAp4ZmeALBlFW8aRnqb+dm0rtgWVdERotTNQXDUrmYBdOcKzGkqPOUc3rLHRv8Apai3pOdVzSvTvlFc6fRC2kO7dO+csaiUpwgjWsbFbX7zVvOs13a/ZjqdgfRhi82AteEZdeLYUcNHfrBtNBYo25Sixo/HjEwyj3y+iO+Ihm/CUFqY74wBz6xuDb9x9bsinRrvp9EyvOVbesv/AE/sztuUW6qvSKOD4ylVRiQ6g+lX+4BSaENN8f4GpC6jwg64OdO9mK2ap1K4wC1qYIYh4gmCc6+8BdCImpBVq5glOu84uv8AsE378oJVbwLki6DTyjfgvy/p3Ruc94+oCWd578ok5zTGo3t94Ahdkz4y0XjKBLr/ACLK3rOaljrlgdkAb3ADLfh+okXUQX3x/UTkq/eLunWW8f5cqcr+xr1ozVNHv3ia8nM+YtVEenxFFNFt8ZYtHx73hoXjDZfD+JRMVHoD35Q9zFQad6y1usHtUG7xXv8AMovEf3ACB3pBgxfjCUmVg1d2SwXZDGdu+EYBvEFo0it9ZY6N/wBG6b++H1sY71i8jr3y6R2rjEtLxFF8CLNMyntJVcPMjmGsDmu/eKWNX9xTXfvhFN7DFUSAGCJtP5P8+dOd9g51z/BQ1ZgaY75TohcG9Z1TqmBmbxvvpFxNIrN23meMhMmGJdp/kyM3cRapqoqHF4+YC8HH628Zoj+YgkLF98ondhi1U5jWDThGUnGLResx4wf7Fb27J1QAwRqLekQdSJL4kQFr35QWw7/Ez9/EcaxWZW/Y86c77K1BrK0uVoqql6F1OidEwMVUMW48f3EaXXvjEuO8IbkJEFay17wYUXmqbxDg2MyM1EU2fwVbT1jV4KlqbRfKZVYIVYtl61mYRnn+4Qa4JzLO+/CIZUiafmLq77xFtt575Ruue/KLb4P05UFkmn2XKnK/kV2nR9laaNS11b+iFiGZ66SnV4JHSJdHDY14RNZjVa7zETguUVdz5/mtS8ZgZqvrXpSA7oEVf5mbd18y3iy3i/Z9U6vsLPshXbjvlETi/wBjd1Gl/uEdERpd7Sta7z/QiPD/AGbDn6cqcqVjYlrJ/wArlTlf3mNMfUww4f6NTbti7Zt751BUifTd/wAzmTnQR0fuezzmhvGOr9N38aXQv/l9E6JypyvsxRsgjk/lZg0+hlDjLpZqPCPH7nqnVOidH2AzpOiCP2Yo2fxowa/UwjwinCuK+4ptm50Szrp9t0QCXh9xv+2p1nRL/dAGCKGr9xu+yUPCdEX0P+JbcnROVOV91Rl1nVOqcqcidE6P+VbjOdLOP06p1fa2ZdPooR5O/D9S/wD0XROj+zd/HlTlRqXc6JfhFI2a/wDYs7776/07v4WcZWZ9II3TpEHDOVOV/wBq/CdEDrdkAME5U5X16IvhX/hA6DOm/pV/+PX/xAAsEQEAAgECBAUEAwEBAQAAAAABABEhMUFRYXHwgZGxwdEQIKHhMEDxUGCQ/9oACAECAQE/EP8AuBFFHWOSwYo71l5xdLxL554c+EVyMhdwJC4m28ptQMRFv5Q1uWIcRptEhSg53EEaq3gNLcv/AHtGSrjxhlHQDLmAttUNQGy0rFPvDPros0Xl6eMokMaDS8uBa3prgQzPlnqck/EN8yslrzaK6+cxx1YCueIZ05RbCqLw/nFcN/crqjnei9ta+NLlN0ygXvnD8/ouYLAWZ3svh1hC7SVY447V4ysoBg1O2CvzXjAIyAfPP/dzUVu9lMTLcEnJY7nSN2VqV4/49Zhxja4zfM0gEnrDxHUvhrVN6a2O0mto3D3hXyFLsY388eEY9NVqVSXrExVSVSmtRfGBKchjcXo6rAMjKkKqnfOvPeXIKF3bQ11070j9CFK40T8OY5RUvbZnbeD/ALtY4KsqDpmu9Jj1zUla3lNdf9YE2fwxWAnbB1Vnr5Q91MEpSPBbvC8s84S4BtwgzARHJo4hSS2HYZ2cdHw3JbzqArKxjFmmeJKtUoAcFLTbVU5gUrt+EZ3ZihnIe0Z/dB30oybTtvB/3SlRxg4Xh3tKsym8zIw8ekt/2kfMU7+ccVGgMsrLBq612jDJE27UsEuTjQVK8BF9sAb3MVe8TVFC1FpwSnbEuGWUq0N6Db/I4pFQug0PF48YV5tqdRs6HCZniuTTw6xWYaRDbTYx4eUHk35VQOzEtm19l/3bIFbK14y+LHKZNVrVPmwSBo0NNLwd9YvF7VyVeDe7Whwit4EoPL4lInAofZ8pRKDgrxT36EOQfRRebTyhMeMAJ86v8y4vwYA0zhMeH4lhXg0u9eGH8xuu9Cr8GNUp95rg1AoSFDbWNZt77MQAAoFHQ/vjYPH7G9i4oy/l/ZUC20dZnuGguilfQG5jDyaww0ZyTLGw0ataw78deUfbJYONheeRbtyqWnaBBbBDDV61riKJlXJW6wXeOGKi2DbTUpWs5xsOzziVWYrWopq9M5/eY/IE5dz4u8DW5eo6fi+MZ6rtCnPbXJ+fGIAItpjYz+/KDYBYysT8+udpxSd/vycf3kNQeMsGoBzhqwV4TlvM+YPpnvrE7TQE85Y6J/YCkwZ+U0UxBngiGaLrjvMSHac4Vx5jp+Zq+xWCVe93WXjxjrqQK0vFpo8t9cx9uSujlqdc1peaxALlF4H+RBF0RyuXdZrLwuPKGqpseh124xt0IFBbDpltoig0wTzVi/LxYp2hjpb510/ETJTKktVWUy5104ZsAmmamBLA2ZDXhpDRYDHTx5cfz/TGmTDHDBYS/wDSBYDERdGo8CHftBFoXM+YE47/ADB4oekFaYc+/wDZfnzUxO7ztz2lGy4IjHesQz8eT6d+MTLlq5cYjVB0ErXrMW9bB9ojSpwv0R9aviV6wqAPLh7/AHHpp9ZXq6esCbr46/cuXQ8VwDo3OVG9i4oy/l/M6NayjqggHPBp1IhFZbywu+5+8QqCM9oqteXQOdIhUq525BAVwxttyqk8TIhbljD7uTD+79FiULky8r2CO3MrIbBHnmr8a2inzIasiMVXDXjm5iXxRVWusHbXmSu75VUrqW2o1jjrM4SaKtDXjTdROYocND6bZYpS2NFu7bMNct88BHSvAZAJdYKMVnbTGxkP47DVr7lDVqCaB8YVqL1ihoJzjqFqjgckau+fflMoF3WT5jcsD1jlV1M3r4x5Yc1CLHT8G/SKhTgW1iWeBWMQWEtvK454hD4Cp68IDjnKj1hZQXgntAdKl8USvjKRb84UA3S0xLiLe9KadOcC42qxZh0rg0OkFoCb0nVggn09oFLusfVD2K8nrEwjZEcLJoQ84I6I/ZY6N/xPuoSdJRmMAaDcJQaBq3zzFmtw4B4pwi4a6UVn0gMGF2YqBQS3DVJfek3unArzhS7qo9RCkRDL/l+ZrRBixZtjEHFFpY6RrbMlHzpZahjpgt6NXDQvX7RcQogUrhC9yvoBbaZ5B+U7Q9Kg9BHfOJkX5OrKWwBx4eRLYXiD1glHOj8SyGfVFl5E0X58odS41b+0UVDhSzYo50esvSlxPyxLR12L1iFi8wPWHSWN6p6QhY0goilcEe80F30Qxvp+JY9WTJFWwCCmpOCHpALaHBXpEwxePyiHXiF+JAz4Sn0j9RmynrxisCLjSNUC9a/Uzyt1ThVwSvVg2g9EDVcdL7RQecresMNfAoY8YZFTlT0his9V9pWedH3hdGHpHdc3LOZz69+UYoeiv3AzHDTW4hbT6K3i3j96DqX9KNaz9tHCUaVj7rOM5hOYQa2pXkAdOMs1Ho3HYRo5MxYqXvC5neYeTWjTw2jll6/veZuzqEC5y4Z9CDbdcy/WobaR4PWCxSNa+E/BqlmDQdiwLNoqnqz4S1QVyXdTV0OYHHjD7A70j0ifwwrmBkTyT5iIgHBDHhBg4iFdYsGhwflAmD8mSxcG4mBjaq3F6wuRXEHrOAOY/Es53mKpmhl2QessWPOJpvpBhYN4Lsh2Sesy6uQDxxMKy4WgsotrPmahE6GEKgNav2I1yW4/KVYY61QyzwLdcEwycSK58ITdyaXePOX7IbFBMuEm4dDWZAV74v2ihe+dygAfHnMt3NEJWXhYJkSWcf6QCDY57z8y8pb6w92vnBaRjJbp5/uDqidH1j2X6V6RZmt6sFpdf7ZegnwrTwg/BTXgjm3Hg37sq5B/KKU64j7JrVfNhfDPlMixVva+ee8wLkOI1x4EKFNeqoCWrZ8jM0YruV7TZCvHvE19zgjyzCiccWIrarwV6TVc8Fe7LL2bEcpOIkZLsGxeuIYfBQ9blwBTuJ7RlV+kofT5U+8DoW3EPSZJR4KmDk8H5QC+EAOPCNZnkufCVFq5F9Yd4uoiF3rdF7d3M8q2sX1jwg5wPWM8Yz2pY5Lxt6xJgO1ldNZUaXkws+GW58Du44qLxYFh4SHux1oTe/NNWB4lnpE7dcbceMB6HUZ7/EQq/nTPOFnyCCaUHWcQ0QRM95gcX3r+ozVxCphxi1M0dnP4/k3HbPflNBk/7Ky2BAD3n4idJnM1QQajz/cyMFt8QlrZ5JFtrwGX3iTQtkD1g1L+Y/EKAPi284IEHk17sNatzJ7RynHcfZHzINk+YaIeeyEsXiqz0JjqrnaUGgm3i4sDg0eCexKCO+NqJz0j5DPeswwnzFnhcVdy8FekUtOCkA9B9GJYWcaL7RjDjal6w6lfZA8MwdAcSDzxNUP66hLemPymhy4IiCKdxYCS1ucr3ZgOcq48ZtW3SFRSDiKZURsIHrEWiTNg9phlfFMW9wfn3+Y8SzhR/EKozxFz4TXcuNvrApfONPWG5p70/EBfyNCw0jZB6ytlG9whmJwv2IWKrzpHQ3md/uVsQ+UXiwHIzGSVffWIaR78ZnqStMQLZaNIqqnb9ekVmhvjGaM+kRWMwQG9ZY6N/wAHZ5QmcfS3jBmf8mxTc79ICFbO+U0FX30gLgw7S2pjnhzr2jNqb2GkIyFutePCXKnIWZKq2Q95+lfoTdac1mUDE5terK9s3CvZDaa+qWekeFuG/KXpwaZJV1zdP0TPm/XS4JciHv8AE0jW5T0hnlbovtBXKXQRfWNAT5vWZ4rbi+x4y5YnwpeHfSB2Z5g9ZkBk1SvaXuk64ZcWkbP7Y0xA8tHrFiMt0XXwI23nX3MPUxwaesEofOJ7IGK54oP4QgesM9JOCPHEeZdzK+kCC75i+sG8h6BNyF3F7RP8ges2cmyfeYU3dEX5QjkHgrnwmdxtB+U2xXRMRaeC+0vF46vXnCWp2KrwzGg0nAe0ry/Wscqw6ifM3o8pLgpLwT2i1mvT8Qall3vCNXXBVnpM44+fOO4LE3Nic4ci91Bjfe8RLTWK1384IkA8og6n07PKb/qLo1G7zesxDOHvjOdDEnf4lDr35RQO+sx32QBvK+sEFd7zBtpz+Ze1zyGXNV/D0mUufPEu1KbOPWB0OIVp4TdvicUEGrkidNWY816aNdF3T9EX2z+TzxAODaGs8DLL4PkVnyhrm85sVz8Jq+WIlcsu2kKR43u9ZmDZ3t36TKVDbKaNE0ui/OX5fuRPaKgy78U1t46D+2E3UPwl8Lu9X7S5bhxtvzhllzAS+LfJ+I5HnSUMI8/kxBZvVvBvLYYNaXXfSU3dfQbc+POCXwxQmzFunwIuyx1wWybD1cZZj1wI6x+aX0g1p7WtPGLFIOj1jT5gQjYnSC9Jnh4Rp6x4YLnBeamqW+k3cOg+5LNK2g0erAlGjh7EKpAxgfYgDKzpePWYmNdSWiRqJllhiq6xA0b+gpkgitjvlNxv3wluPef1MMUwpVTIWnvv/JhjCuUFdmb/AILTRgQuCqmbmfr3wgtq298plUb4wbxmOCnWOABHjmYELeXWMK0eSnvF6sUQvVqihMje2VVgbU+7NsByVkZSjuh8EIXdecGCYMg0+r4Sw0lwiwGTuX7Ecveqb92AKb9HnD2XVuPwRbTxSu2UaTwEM45sQNSb8HhNGq45130jZceCL4ZZTNTxt6sQQuoEIQsOqPWvC09WcML8IjleIRnjglSMOlirzgSkTSwesYwhuV7Rd86RzpvM+WaGuiy9YG8N0X2JnnGheqBNE0uveYrdTYwxWRjXOphQtwlnwzA2vBbEroAcEfSAlE+KFGE8SvWBWk30RYnKa18JT2p0sWuGsob6QSxqvBPaeK/PzEKMmWg3r3zgO91EUHecwDXFiA4HxFuaXrBLfPHJ+JQENf4UOv5RR0KlKHSKcNxrvZ74R7xnvpNBee+UJ2I/SOF3nvwi85V4xdGtviCuFvL9Rlsg6tpMurNn9yq5qxp5RVa4savKDrCds+7FUG1b7vObuuIX6S6ivNHaXDUx+MsRGHgLit1yfgm7n0zqgSz4DXuwFBBrVe0srS5vtFKQNqfdhpUuOyLqvcvzpBWvxmZVEa6WB6xPbTtxioKHe32gpsTs2z4wqOyhpNOLxRPYm59y3g6xtrPLVg1CCNQ31S/aDU5TEDBAGyPdhihPccjwgVidR5x6qp0EfeaddN8EAaE3H4mrCHVmFY+G6fWDt4blOPCUTw+jyibIDtrCI1XIkdt0wPfrLWox5aeca6ikEtaVAdrqBda3E00qDA1D4+irq3Bzi+B8S7cCy0tbAGi6/ctuCW5215QEy0vWHHqv4bTRqW8WGa7yiirgNU130gwL28oBriwUt1ADBBzpdwtK3gekcXmpmUqc/mGLRa4H24RZSJ3t146QtWJ0195pWWhj5m985fqKN7euGarI0y+7AGB0Vj8wqq/yx6E4uu9rjNPTwcerB2gnbSZd3xF9iaqNt+0DQgcU92YKo4B7TcCatwZz6mb92CKC7d+EzLQap+j5hbpAy1vJPlhiMN+Cal23kXXwmpnLn3lghyIfMwg85WYk9Qt/UJLB27Yq3eilwZDkN/xG7UNspNc8Gc8Yr9L8pnuNfP6mImC4Cys0+soi8kUGNj7crvvX67+35h2KeUF1YICClsIvdLbAuCrfeY+4aPaJqKxyYialfSl0JSalfch1/KKOhUFGyCMB35Tr78oM1ajqEGhZvMzSOUHlfKcAej3jMDwYXRLyPgi6sXe2KW67P7fSIKHmx56RwKzy+CIlrbZ1mop8LPdmhju4fZlkKvROMXiFwy+8Zu6cQz5swZHIexNz9nCIu6jGHxxlgUoE55QpCXwr2IC67c2bKDsV8sMNBdHeIRSq9U/OhNZJlbzaveWuKcjnymlXOdQG9XVSCrpdaXMEAl2FSmhZxliRNB+JTTKn3lIEu2bqdq4RvH/uZ05z8TQb0+sDRul6ypSYr4+3f3x+vbWKsHrLvOtwEtzcQWVTAXTb6ch5QZAeRCa4QpcnaOujxo70mSLZyqJK8xBaUfGLhV/w2mjUo3YDXUgNe9YDga76QsDu5fqCaM1BbrT9C2asICglco2o2Zksu2Ykgr4g4jiUDDjffQl8U6zWGGBsY021YtRB0zHFo7tPsQzHTmM7Sk6Es085VTH6Z/2CLJzm3zwQQtOFvzFyynojARVpsIjFGrfHMJMw8WY8WhEmDSvvC1dSddpr8SAWdgzDp7tZl36DAtrr7ThoK947qwMeUKP5gGl5hqmKmQNZdZiOw6ygK9XFmgCw74S1pReGYHhW44i5Gq+jo1LG3vM1l1X7+IoMOSOIuDndHchfv9a8rjwhxri4AHtiUNL5Q2gbzitd7tL9Xt36xGrUcmUmpX8V/wCk5HrBRsgjAd+UYavvniPhvXvhC29HfKI3BZwMsNdq7e/KUgEomlupLKjMttN37/GIirRs/tlQrXLbaEUT0h953mwS6Nd4waBO/SAyJjge0Te2XJMZBXKAa6LluIDeKWFi/mChqHjHygesxcaeyOzbCPWYAa1BV00X7wGG/wAxbcFMWtL1jOjRiUkCRDAlWxpNFFB3wimpd6hQ0Hh7wba1hbivzFj8G785SQenvvxIgKH9fTQ9IUew/uWqrxMx2Y6I95Y3uwfJj5mkcL7yyW174/eBog2kHwgDnSyp8sbdZRmG4L9IZ1S8qi9FjxI5nV45lanbFu0/ht4sQKVxF3afuKVxgxlZ074Td9uyZdW8esE5XMNbu+EFEA9I0Acd8IbVlqFZvfuwshsmJdLfeYN5e7NNsp6wEzlPW5om9X3llmie0HtLl5rsh0GLuawMU/iOWMkSml1B2+koMhac4UcWGMixMrKpxwSkp8ASlLBvcDACVyIY0x9XRXGKnXE398PqDPKVGN4oR0/2UJNP9hwGsQmu8yxBumYg7feI2zAQXfzhapE1IXdcO+9YKpA+DcLU08qglD80vLQ14TGXs5MQ1R4fwgFmK+nKnbWIooNuXvhN257+ZxtcYMDcBxqwcfCYZwYEyNvmDbdaesFc6EsLjNw2SZr5ljbZTbn3tGAupFSy6bg59ACvOVY5aBbEsncwtY3c1As8oKWr8YoLI6FbJhAKcuH7gdQCJ7jow1+swHFB0I6t6/YF5xUGweM7/j7QcBUyL3jicuswQxppCFGmMK4RPVrz+YPo+vzFTriK3XH0CiGqQosD+4ANFPCuvmQgnb9QA89IgFeffe8DEzAniY84yTe8+cROGeUdVCukAK/ygNFjO3fWJ4UrHrE6EEbraIvN/wAOhScmuMNBimCzGsPgpoGxErMYMeEBDSx32YVRpVPtGyreNcGAMTAsY5e8rUqnfeIAswwWi8MpRfKI456QTfbWXDY/cJpDynIPois4hgy3Udp9OidH5nI77qcjvupjOEaVTNaaU0/aq/EnRKuEoltervhNC6M09lW7mtdoBcCUXUrr9KvHGcUXM0HPBmCNCuseZb83H12vvF1NveGyOzBu6uXnHbTrn1hAmUqtG2IXgk0YC/vvyjBChiFqNKGjl1ier8n+DRtExm+MaB0WWGXJrDUfKKAaMM2rbyjEoFf7KgneYIsWd99YjoXwIHo29qfiVczqxLB8+ibMa5S1Wod9+Es02jxqiJjV9UnNjsMV4+0Hs/iKzXM5U5Uv/SX/AKSzbWJYnGa00pp+0I5PptnizbfBgDrEF8Scm674Ty1D7vSauXnL9ahNYO8wCqphGKw98JZnGL0ru4VgEYnVaO0JWnBTCwcO+kc+8984IOyWWtblwsz/ALKKraWurcs1D4QyxHoRtdLuaBlUWo7Wld8O8RlrghDdHJvEfUmSeMTLXMCoFMSMZMGahHVq3j6TJ+g9Zp6iFM67YhSmopIDHI+PvDRxcDQzX1Uc9/mUWkyOTy+mRiqgWsYe+MENnf5hhnWWwvvM2dR/U2TdNn2ijZBHJN98CcOAesQ3xZTQ698Z57hbrjwlODgTVicPPGv8xEby985lLilZa794iqsxIXtUHhm1Wm9bxAtNtI46QG2mt4nygpLU44YgUbKZ/UoUakdDf6oQENY9EwhYa91GzJb/AHLDdmZsLl4grBeVXSOgO82h395QWqeULGk84BHBA6hO+sSKvyg1w/CaItNSNRDK2f7Cb1V97PUjHV+vRLMmkpaqrgpmFNsnOZGLuBvLffSAchOdHBmqmybpsnVOqUYdIKsNn0tn26H08tS+V3XfGUGhX2AlGblDqXKOBNZi8s0azd+MrCsW0b0tbCHkYplWXqR+LVgCBjnzjk4Eoo/wKFc4cJZRFRGXYfCY6ueRFjBz/Momi4HoMcpRwP6FGXWCvOe+sBvjvrFHhcRr85stYh0lvH6dU6p0To+uycqcqdUC6TSbYXOPt1Itazz3ORV98PuBLc39DU3iOp2/4igm65Ty0j5c21riLkq320qZOy7+YV1b631hoV9wm62jRo7zBtpT38ymlLm6e17RiO8pq71/o2ZdPoK8476QG+e+kMjWYt2YuBwdP9imdfr0To+3WdPurCcYl2N3FDS/S9VvA1nVgs0z/HulHCfh5zlToju9KgUBw+49COg8H3ggV3Xf5izz9nZ5/wBHnTnRBwy7k0e+P17q/X05U5X2q3XEVOuJrP4EHUiNsQLrSpYNG+kSmdfr0To+/d9OdOdERpm77z0ILpx+YQLcV3vMDN39nZ5/Wzj/ADcqcqKGWXMGh3w+tOH5/f050532i3TEFOmJr6fx4TiMb3TURle/zEGpLR4JOibJu+3onR9qjKQUbPtvODB+CITpEV2v7Ozz+mAPC4xgpTKNdP6d46ooZYqtsswafTnTnTnTnfyZGbv6jyTa79ZYrC4xC5x/GgVTdwAofbo0mIuEbfW/xcD7HZ5/QXRxuDrF5hiPxDIPH+l0Toiq2/WjBrOVOV/Uo4SnCpcWt++MUzr9Ehj+jpTWmlNL7Ndc/wAvROj6qGWXMGh3wnROidU6v7QjkiG+LEur35xJoWd85TwlPD+fSmtNKaX9PnTnRBwxtkaJypyv+BRwiDLi1v3ximdfoG7d4i05uArR/HumlNk3fw8qcqVoqqlUl1OdOdC6Fazq/wCQI5IhvixLq6d8ZzIjII1vKjvhOidH8O6aU2Td/Dzpzp0Rures5U5UANhFDL/zacI2O3fWdnb9EhiFtoI5Pu3fTd9vROiF0K1nVDO9Hz94H/WJdXvziMlWSh0t75xooGDl9276bvr0TonVOqAGwihl+ibwX/2aOERx+Yq47/MErZSCrqWZcBHsvSc6c6dU6v8AwQjo/RO2Iisax1p5R7czlTlf/Hj/xAAsEAABAwIFBAMBAAMBAQEAAAABABEhMUFRYXGB8JGhsdEQweHxIEBQMGCQ/9oACAEBAAE/EP8AuksHUs5mzMHdskQXECLNhUku6cwHrgDHJtfCDhxYVBhnRsEJJDnNTQ4u1kSJYPFXkBmoRx0JDwNxV8JPJRJZiJZv2AUMJYAk5kwaPCBckAHAiLX3ZkCCQZhnRFpAOXYtTQu7GnT/ALxIAcpi4Gv1AESA6BdqGiHyD0SYZ2YpFwAGVQDYQ9YAi4iHFU8C8RyHoX0HLQJgEJPHkjgNABpkFlH1NvbQ6DqtxMlFWDQ+GwQk84AVBkbEIQjIkkME2UI0IGKQWiNDxsQAagzxA2GFVhk4tU9E4mzrR4EzvAIkhwqbrXAw4gNn0uCnx6CNoXiMFdaZNB7459P+6WAIIBzYtcswNE0lwHd3v9VhADzqEkEyp2mlD88maekJIEnkFiEQVGRsmtRM1Md1WVu9uaIhjHAyKQpgeNda/voKDri+ZEOhXOUN7t5tjBbVvVKYUcgCz40jrokyTk7zYrjMHdHgAHkssCKkV81ZHQk6mXbv+6f42NAzgc9K6AXDkhNTEN7UhnGZEOiAG6Oz1ChzOcNhtPmSOntGpfMQgKIBKYgSgkklIwo9k4U2MpsQbwmtpOyoHVp6L3J1YKEN4wyUQOiI0AYLHmhknYWj1Jn0VER1gSQEl+GUyiYOkH6cbeJqN9eCwf8AdOUEFc5R42Dug84CL5PDgTSQAE7XTUNjkBWuIGljQTnteZD/AIZljNh1BFzCEQqwz24eRRAgahBY5yCYH4HtlXCNgv5QJAwyksuOzJL0dp47nJgtnZMhJCGMrZG0XyMH6p559c6O1zKie7voCqWf8I8I3xWA9B/3QkAGmi4h66JniVuDROEc0cCoAzTiIHn+iGjMdvNoNc5kkkmS8pmsKq7ALgSRFMrSssYuAG6MY/yL1wJ3S0sHRu/bAjMEppHcSaBh1QifyS5Hg77Shb1gumg2DHaE9KUtwk1piHIyT0wU8zzamFCzIjTLOXb21FwJICWgty2qp5gTByMYVLlz/wAQi8Fsmf7/ANmsafZTB5J7033DXSRL0uB0jjASZHjMyWjvIW+B0AChfB2ywDWjeqpeRqpIvZocEPGm2FPbhoR61YAsAwmY+GC6jjQHMlAKBvSgfyOPigSfVtyIArMBwQ2Kd0I++A9ogclRCyA6pwdI7cIKh1fQYmNUCDI6Fae3Tq5ngBFzoRqLAlt8dhEDkPB/3XBoX+HBD2GRTD1r3CnSiLCQSSgcPsFMqgGBsMVtBQDJqxoAKAghOBCkLCtbAZ/2RwSIgAnYG+ycdF5PY3RKXkqyAsSHcswraoVChKU/GAhO7yBYm1CR2uZBxtLDGrq7WwowZMBKNiA0bbomyjHEPhFV9NysyUezpNziw7hF2qFUyjlD2aCg0gGIv8xyOPCdhMk80k+7hjnICjylyGCYjxu4BCIbR7IxZDjIslepLQxE9cAQIAoGI/0gAHkogB4PzmeUUkOiMBVyyISB1Glwqdk1THAkQsC3luFKVIOGuEiyyGqrpkGDbmPNloApZ4QeHFZstFHkAOY1Nbdo0PUwGLSLaZEyO9yrbAKH33cvAgACHnNYFzgCFvgDBmHK9YZaDQyw9hSPY1oUNLTQCu+MhgOYQ7IdgPE0FpH0lSHQ2FEEAMK5/wCmVGwkHqnSxu57ljeM3ZgQMZWHgwKkcJra9GKAnwykbnImbxRpyDoGWDuAxLEIMvaSaqy3SUmBYmLNo0wihJOBk74OfUw1VasDN2CSAl1EzZIYKYBUQDEvORtgHMFHO9ueICDQSZqpvDBqJE4R9qd709Es4wyWqWK4PMIASDQq73dUt/J/0oYwW2O0auRnKjiswPBG0QuUIBROAcG4cYyXslFVXIhPcxBIjJNZHIzjeBg7jkq/Fi7FgqKiMGHgKnJkQFMYkEII6aAYK2a5VeQA4HX+hkM9zEKaYkTVHx3IF57OVTAulROGyzQhoPFUW2BDhKF1ZCFuNKBvAB0b2JDSAHUMWv4CAahJToC6wCroIq+oHicqC0AIgDPkgciKzqocFTz8D6AQEYW5QoffVgeEgZziimkUyPLXuQA3rtRIDsgUFfbUZjJ7/wDsIS4Bk7F9wJUIADAKMHEO4xhkcoLgzZ9qIieSYmmuJtPZBDCGiNIYIBgCr5wxKCAAyAch000GJwn4RkQSGFw9aFBsA0pYQREiZTosuBYib/RQeBmBGT90AEhKMaJyyQEk4N3jB+iFgGX+JDhid0xAATnRpdFlPAN7+AEgVZn0iHQw6k/ie7r7gNCwwCSTQA2QwwgbuoEo5raKU8RJJJYO2ANVTQzRA/G133p+vo5o5LkuTywJQkdXFpYE/Y6NUolIZ0VnAanFKpZCLhMqYlQAEBWEZTtEE+FtRWIDg3y2m8qCB5ERL3mA+ItLHUAJGtSQB/JD8YgeEuyvKGQ/jZjdbgByp/6FfQCgrTAuCAHoHqQjWCAejaioCuMhAIBTpNGgIoGouRAE94bLIvGrgVniGCB6O8ynYBpk1IVZUAKG0fn/AABMTwgPSUw8A6CHrVQhwZbg1WBCA70hlPqgHNhesu4VHxu63fYQ4pwdQu2QPQoJZVKtIi2FCestEkVFXQ4mWrV13K6PhqU5A6/7ZECF53snZpDLcLOQ4ilAhBfsULoVjW0eqUOQCD7kCUg+1CYMdI4FHHpqIMreYQTH9YYFSg3aU/JEJCZYQYyxcmVQJIYSeIQIqiVgADsXYYAeUjbV2mD0sGRigRwcVJ1E+yD+OaqOpQ9Hpr4kBxW9FARjVNwgFDZVjwdQRNEMUYzE8fm0zQAcLqdUdAgtDVYrZSD53EuZxOlhD8NgQcHmugAkKThh9A6L6sM1bzsscoHIVlrUBEUvDDgW9kuUdIAe+bVVbaAZG4pffJGQ2XjOAJn7tphIDxqzNYCzcqu8QDLaRQ78gLAsJtEA8adooAx8HCqIgPVoTbQjAkU7fBEQ4E3SAgimZQPWAFj5VEIADIaf4UWAITEsTXgrBgAdXkG2TPQNaCceHs2qEAD3VkrdzFy/9MqOxKlwGAQDqYY2JRJYnOkE0F8BbsxHoyAMLHkwU9PL3cuySDH68AknKhLgE2Eu3BQ1GpJbLAOjlleBBOHsbr+FEHy0Q7oDJ0IbG6ZxYkjZ7AHFJ7jADYvDlQAIylbhoQRIPRNf7sA4nfEoF03oyQowyOhuCoirqMBYMW/SRSQMjQCJhHqYrRqAjVLoJXgEDV3KsQH55y3M8Twx+7FsoE4XqdnxoBhpXQAYJl8FGgCCrkAGiDmjpvgAZ5RBOfAYC5f4AUkBbFRDQ4qr8ZAOGP7UDcrlTDWB6PJYQHcL4m/KEZQCRdW1ArgXx8qFSJwcbJqWIAPCJoz+oEFFQSkIHl2qvuAATSrfwClnzRRMMA+JzLIAYBGNdAAGFUlgDYiJq6QGiPMJ+diULLYAtCYdeA6WVsAS1ZmpAdCTAy2diDXx5ss60EqimhPe4upACwDEwNDlkSaidtL8rkpO2Ib6infL4IBqP/IHB+lsUtAC0oqqw0AjE6kBCL8YgE2RINRb78hS9h7Ixs5wF6EBaFq8YAQ9hLToA2iZH8YEDRXfkAw7/ev3QC5ZoaRBjVctrdwAFAg8SoIwmPoydCAQXz0mdADU1TNIAz87JvtQB+WUN9QC5pcFIFcCvKoQAyO5H2VksRE6DMlYgOTv4t1SB8G1ioyEaL3BgPhApwgMQddMQVgEvGrlnWA5FE0X2XEIEN81wWA4ff0aRCCcgVeQDh/DeaBBiAUbeFNjDQCDyJS1UQRGmiO0ETkUqYyAOB26CPBtMUte+kEF8IFkppSjGAG+ha9y/qgHod2K+BPvzuqogArhhCwKI9qyqBcKjH3iAKGyCjZBMbqjnVQHB2v8RgpzGPiDp1lDzHh3rVH1jx9IWinnZQ/jq7U/EQKAFmdjv7LDIDMG2K1xvWA6zhSTOEzS5O0ZYAsFDJdCaMAF0Ahb5+wmRCNBg2tdP/HVInD/AH2R1j7zRTVbbTRs08gDNH7UuIQIKwgM9N5RBnAClhO4GxIugA7B75CJiANDdDMjt0DBdDAIxkH6dOJQQHEMJVO4wCJjhADwBhRFC6wHIIH1AhUItfwBJ8o1XJAHjby06ADEO222WmgKC4gvMQCAvmQAQIp3AQhdyEAItzG2WXT4DZR7QgpAfTs4gSA3PwUCiHKoAER91f4EBBQpygAQFXAR027GyApw/hEMBoLsZfsCxSvBcGzba1aqAITBQlAC6FkXTJRBxBoW+BQCDY8YYAf4RyaS97BviQqQIHUeZUCbOBhHF5lCQB6PDqlHFEX4KVWaABI+BlW2EDGcbkfqgIlCBMfQeBBTxkq5JzaFccAOlX18LMRDh2XSRgFLnmEsdoJDxpe4ANgYmqATC4/rergAID9EplwG941usBAeaE9pE1AAgk/JAYqTMv2AKrd0LgH8iHWm+eKGOk18HlM/FBEZjfq3Uc0kzN2o8qLBOetOTf1CynWX2I1/SBeR8A+hXeSV4dERA+jvJQOnUouofaLoq6gPdkGOH99oUH8N6ICAMMPtHO4IN5JiY9rEMnACNK5ODcGsayIlAd84yg6wNrGyCAdztCyCIblNbEAooZg8A7zGDuB8bBB94yECKOQHdRTUDRTQjmIobNgSl0gHo14pJGRPBx0/rIiGOYy6yMADeRqyY7QXm56XGIIEIWnQFwLXZYD8q4qBLAKZnRYRy6xF4gHhiU6dFAKCjWyWCOmVUJgIfDeRby30BMaX2CwUjo/EgYpVCkhKo5n34AguXUIASSYBAD7sMRVlAUlmydfFgFM3+IYCydOGBVScXADnATYnSEVAitIEqYrVIDQodRALhehlfkQCAxVIQJqYFNsgIG6Jf6IDBo6ylAB5khIfgADiS7EU4APGY3VcJAUQmrugE4Y1zEB8K9lABRuihu4BA7DdAuAO667gDPtWuB19+xVjT7Ks3+kQNw31Kh+ndS6A31avpCPwDU2hUAp3fTvTiYbQewHq/IEBUm0wRxNUB70fYWIHj0mOHrf9QOyrtkivGI9/aJIGehlEMh3zUEEh0oMI/wAZaoTPIEZ6R1UbAYbF+UqZDDjLlc2sH1fg4A47kQBDW/UxmLP3gyDh6B4ogDKR/JROBzH6ymAAGXDCSiAEUmCtxRAHPl4hd22ACAiFAUg7KP5yKGAFJFlkEUVAIrwuIArroXgAqjjrRDISrRYxdxYopngFjMVYoOZj8fEyLJEMVBZwtfEvyoADFIzuImHG1bfIBl3SVYIDMDyzK4sByamYpGC1sxXrzQLikKsAFY8y8mSBEx9rFLyEZXdiLiAnSA/FdEB01DysBwZvjAJcbvoIDiqqgoAsKkuICPiVnqcoF4aNskA+dJKpABVDWreQHkEKylxAHhTKG2AMCVEAUyKq12GgQ/DlkE6L6uwS5bTUUMyIPxSl1GAs3RGwAUhF798HKIEXA9AsBuyxlvt/lsrLBzS6IVsApno78hc4KmHTyBViHpKNAPeB8hTmAO+2IsyAr59/hqFFM6lbT47cKA+vl1fhnYD/ABJMdQBo/wARLjdnoPj1831QMW6KDdnaJT8R39ICpcMD0QBAA1cfALgwb5bwEC4cXQIU7p4AY2H5ZIAAt/b40nWEPKt9APlmZl5eAkXAtx/QiHBOqMzGsD+SoyP3dO6K7ACYLlP3QCIfxIhsAY4nWroDkcFOtAD1AUivgBLFoMYDh4eGil4Qh0k4bmj0FBquA1w5IYFbusAwC3ThsFM4sqR6CAbDgtooAsLK+qRC4c/xZHcJIa+OibOScCjcgcoC6+joAefHspnyAMd0rgrmEwzlR1ACQF+YgFXHh+PxAg6Ig30A4FVzoKB9FOEgQD65YKzyA3IS5dIB4YSvmAB70YrWmA0Z5aZWgAgNlcEHAeg7EUIvsAxOUy0wBHBqzUOjAIjj0pkw9RuzpMxIFFPzdEDhRhBDEcocwO8HwR66BBAGtLhkKCMh4UydgADdNa+e/qSGNZQkwI24YW0y4AblJWB470VezH5KeVe4OHUK4gd0vota3/8AomaAzxyFpoEiONkdaAPDjiXbAAwXCmZFgCHBIF3dQbCpIfYHnqult6/xUaforEO1qVj7XYd/6gCycbdEOCECPacR8cvHOq9vPFAg0TiA34TNQOl86KugA0kMf3Rn0EQswnV4EqqKNqEGn6GIOiB7j60NXQYgJP45KeIBOx6vZSgAMZiIlRuYUw8Sy4uASbUwFdiE0IVDXQZcGYmhSogfho6CgGcjYC02Axs0gxXaQyKGIodEIPh1WkCC4hNYIAfQxkgpwAXKi4ABBpY50mJDLRI4cgBtg4rR/YikT6oEABbphko9mB4Dznv/AIJA8MQQHgwYAYgTciQVROlut8bTeCxd1sHBpDLpIpcc8PFSsQ+loiWvIAwfQpTJAdh0A2A6Gpx5Bu4IQl8GIAkI+siyQD4bW2l4AiNUBsJgGZB9VBwAyEDpa2iQhy1I/pwH6rJrQg+I0XEH36V7IEAQya0BvP11TiLX8jqg4NfTqjqN+dlnwFynd/h4GM1wrObB9/iLMqB2NXH0pjIP56IecMt4/q4kB9xNdAFeChpZQBwAvA5WEIy0g4ENHonAAHgLqEtvQ7n44NO3HXD+kADsGxqjqN+dkA9M2nAUH650vzRDHfDLXVOzMWHb2yHIrLUyZOA1cxuu4ABONEEIA9KxvKwhBINb+wR37BfTxFeoAEBzZEbBptTKiZQFMGlFjDYgKYtKnYH+0NuUoTGAgvKEd9lIgEtgAELFJ3Mg8CscrIHieXy8AMx1lXUxA5qe+9EDAOQgAPj01qw1oFsVqxzkABrceVAGgmloMrc8Sm72BPChhecA48lbPAtjASWFYgOj+RaQCmEsSAbC3W0AdRGmqyAGMdnqYCQ6MUnxAcAxYljAIg2fD5tgAfOnw08kQA498SUog5UwR7ZAexfE8sEMmZK7MsF0JiuCW4hffaLpI6EuAIwjRA5l6TTmSxELfAoTmIH1ZT4D2XVlTnA9T/Cm1H7XUr+UwQcyZ/qBwA/jPl0EnQO95x+JVfBNG1yyDTGotsDoSQ/EDv3TX2/KwGRPNHlPhQBiF8O9g3b36RXQH5ZUMB/cS0GAXG1igOYBx8FykFGwjtANwLYhwQBjgaNUKEYypGkyzjzKId3Zp6hG0nL0UQDVEP5Ft9FIB121U7ze+zoRs7/hOJoyA6FNUz4tL5oaAHUZDl0wAK6h7EVII2uFbtADUvKL4IFLsL5yB2tEH4pG901N/HruhWBx/KL9kAsMXpIAhqdTcElFP1ECahZq0gGAupSmBDS8rScwFOZuZAEDyssbWAsBirtIskoNmMEOrdIDtvNdUYAoFW+NigC+L43nEgCY9GXxCgHY9qMMCVmFA/8Ag0mWCnMHUILgnwAYQ2/i7KRgFwUGsmYJQAvHulqsBnFS7YNRWa0ty9UViBX5vZdIlP6Jw+AXYhXzEjUfQEFR2f55db7A9EnuMANGldgG3XRRD/QW3joxIDWh72UBhFByUOsCe4RznRtz6U6A1AVahBuCemWIsBT0LrPk09i5PDLGmv3fJYlwO04oGNSv+AEU12xwDA8ofQASD3nxQBcV9PTgBOAAKS/E64AYlwWMwd80TMdR34ovfj2WaAK+jZIoANiiVgGYH07kWokUKUCHEQRtjrCMyHo6xLq6jlUezlqJ4x+3RRFJ8KjewmHQMuqZ/wCD2d90QDUA6oTMteNeqMSCME9+nyq49/FN9f8AMPiYcO4EBBpR1IrwiPhKxUAYxy4oLJ1Pr2UgwGPWnh0AxXFBGvEp03i6+0AOx66aKgAXCbZ5ATi02mGIAzYdjVYIAgXoG2RSZKZguvgA3i7YWDBigFM23iYhEMAqFJ5TaBL74gAUheII+eAdPNl7iMeJekCIG75bOFEjMtVIkn8fpkqCbH1p3zBdVuqA7qq6gPlccFjsAWXe09EU2EENRDtYAeh5CFEY4PXgnFY0oejIE6bE2kBzo7Y99keMBy7UWQoBg3nWAxJwIWAmQIbOBIwHro7pFaSBLMUEhyIgCw3eI4QAN2ADF5rUcTwIZp7gb1HHQ5wBCH34cKJ4KihIMlVye5w/w7EF4/KTsAMBXEThoAgZMibqsAULbM98KMGoO00GGIr4ZDJF64SNQfz3noi6BzK/TBAx4nB8DVE3sHsjn4D4rToJScxnDHikQDAkMjuKgA8Om+JvKEySJeDpohFw/qIZEayHDx9K+3ndOCl9m/Uw2p83TO9sj+Joud9R4RBBYpzYknyiePVw3Ry4MXkeV7M+zyjjAHtx9FAmgDhVWWqB05MrqMCGRjX4IbgQQBW3D0mjELw/74Rz1zzG8qVRfYOom2gHCqSBzbCEGsYfH6AUAqGfLysyFwmfiKDx7V9wNhpX8R60u6uqwwfj0rVU/wAlMOQxZjRWAGxlNTdVwA/YpVQwADdjNMMvQAGo2LvIBqetuqkUDyBMKdoG++fM1C06/n9TsccIuqwEbQWFss5iPjr5QvcCZZgy1jlvBLKwR3AnTVM0gKFCqNwA8njISP4d28IOxH83U08Uyw80TmEFk0Dm2UzB1UaIHkvHTRtCk5/GwBAM4dchIIzBSrBon9KI339/wDgOzFOWqAiBHIZUqlEWoUBjCy/wlMgI9QFSHMIQiaGJAhLBwu8PgowgO7Nd4VEjjn3W6Ht2yWJ1fdOn7HfnX4UIaAnPHmeZBJh3xD4MxuA1djvUqIHvDKAEQveDvQhA4IQhpy5gNiAtTHMGz6MPjJEGbXx4y3GyIL03Cf1V1dDH37RAWHeo/E2Pp/2hiTxA6JuFtHpWSdD7QnIM8uhaMHuqKmbtZlAXDdX9uibAD8ZbgsSi4AQ8k9KG4D8uTL94A8VAeDDFm2tk/jH5rrezPxQqpOW4SjQTctHLsswg/NBMAn3iysAUO+NWygXs37EB+JzAW7XsqjQOFukgDAY8XvjCLDylmrTBYRAYRKiJMQyN0muiZoBVQEeAeGHwHBgtFTWUwC83MrTA7V9/1edDH8/iKbppqVjIQrSjj2ZZlwNKdNzoWCtB7+HwkAbATPHugKxQvXuTce1kp21zKALu/OF01AahTH/BQBQE4ThiLoIWSKYRVDlmyynQbHPxYABXQZYHzsc6p2XTOWXw+ZZMAIB4x/iFRhp1oygLE+1wPpA6LTitE2gCqKUcBYOA0shfYQj0AMRiIEnAOvj6jAHcYBBcqBMgAsC2BwS4g8hknyAbgOvfh5YAiHWaBIaGR5HUX6A/WRfagKzUtxHKAOEbYJPGgGCWRRuLVLoB2J+2EGJR0fz8QBIao8syMEVEu32gAKJo/uZz+H7so/cIlq5/HsItYtrPVTkMT0M+gTp50TeU23TMRqIx8c1nIB45ATUey38Ar83sNiYdN6JSgqDUz+RAOHaSk1yvoiLcWjKqTzbtWEBfMG8OiuPPkpCEfXDoq3UnkyzQYgFAfBDR3IJDr8vZQDjiwL3CKYGwQesHQbRKiwWZcV+Ke/ZCeAtirYua/PBaSE+4RzuAQdes5AJyFTFQCrMmiLOz0AQdZWC+1ceapwsY/KY2BvfqCjUggVAKRLRDuefa+wytNEQ3YadzI9KlfeLujOD1FcULAZvLNPgABoZdNAIDgvq6oAB4DP1vyhi4jJ1ROwOAIk50sNQ688GXS6DmsJ7faa8Df4EAFjmPMRAmKTpxwIhvoQs7v5dn0APUyD4+KGgR0OzH8YfIcHVJsoAw7lboACB20a5vkI2CfGyYAoyk/kSAzfxm3XqjUg5oR7uB+FkVwoCqwBIiZgMcO0iCSqBuN7lYSBLwIXHMvbn2i7RHaQ/NEZQ8DvrcZBgDpP3KcP0mNnR75jnJdJMbznC1kj0UppnH5ojezHddtIozdV2CBB6kq8BKA6fEqmhDwP8AE1qOb3SiPTOYy+OB19ECUe6GQB4gECjKAR/QavfoRACgOgOoRaqAW6k8DurgBXwZWmW++mOLu2p0RRoj08oC4F16YIjIB9+WivgCxvCDTl1BEgF+fZ0AFrhz/siNhTt9QoNwFKitc6AfIK1LhELDvjBhCC2Ao8By4nyUYA4SxWOU/XVP6AOXUcWTQBup7hSH5P19rcFMDvbtmg1kGtGy2+EBDFYyGvgQdDbS3GwMxBV2J+z08lA9QMP3dNMA6ApZdYBeNzu7QWHwGUwc8gBgd0x9soAGQ1gZlhNoBdtfOkCHTAFhOU+cbAMmxjgmPmVrunQBhGBSeGQIAAXJWnvICDF2Xf4xEDExEnJgHBSjOLFADoz7+NUmAGCbeOiNA6POl2/E2gDqM24fihsDgDh0CHg4Pj9H0XaAPVBAdINfxYKlOJU0NiAV3eVMJAWOMOyUwAHYYpueGFQGPzlQDOn2UCNM9PxbSWBNfaI2B7IeSaeYh/GUPJJz+0AwoabFOM2WFcSA2itqA8akQEgPvoUWCWAVdEZx3AszAmCeINo1I6wAHDuE8gDqZ6URcPacEBCK84MsDt9048ZCHjiQihzluVTqauuFPlYBcemMADYVF9KAKBqqQEoHSyJ9lgtO4hAHAEslOna4CiIxMgKABMDo9UAApPWDn74qgBhhA1UAOAX+BJYEAwxpPzBhwPXqh53N46LWReYeyooHVchCDqHnWTb3X5FqTGSL2if96IL2/d1cH2oy6GrhBHu/xjAYeIo3XEAPGJow5ioG8CK1tALpjqFaIAC6rDH57jZQtAbkemFgG7H4VhgH5u8/ZkgerEoqFMFhHUeqK4I8hRgmyUgAtMIQCi4qzjBMEobQGzpAOvhGtjPkhg3NouP0sEOCaDHyDggGwQAE4ZQhkgOPI4sUFUE6CBjJeIEOibYX5CBE6B5T7Q5AT5arMAenX6RgRuV5vx0Z1jfbojLgGx/ndYJACFMuU/BwBLJMEYIwAaF7/BKABzsc3ljYS2PB8K+whn+4WqA+zRVgB5Dlr0IIQ7HwRXJhABDERAWPFIAY3FI3QAQcF12MCQd0XAn0t+IqhuXwQbM+nn0TKHkgB/DbqVaeXfJ/SsqClyeFObOn7UR4MWxRdGDV1XWIHr/gpA0CsIAQWZICNLw6FgDyClDSu0QBQ/CkRgB0AlVfJ8AHxTyIRd9ADwzynTMCVLsx1xkAqBK5QAdb+CH4w/0lSYGX0wChTMLlvCEoBzwFHEPSqRUb1NJ+CB5AMjbkpHXCWNqFRGQA74sghGDNjhCqWh4uWRQwMNOLYoPH3w9igc/0nEFTdz4qvcH36rLQC39NSqIKIL5qnpYocDEx6G61GAVKv4UZ5+z8xzqjHim/7fgTp1tOmbiqhYA0wr4OooCgdpTgksEBKPIIgDTC8Gl5Aq7sJ6mwFhVK6cTq4CtC0nndYB7EbvjAAWEWZWPsmfzn4OaDQEtjaOC3CxiWk+bZKg9H8XTOQC/aMUVUhv5F0OgVnO7ZlYgd/vL/AAsCALuHGugDUaDTqALwYf8AsOgMASAqkUaAaKZRooFAF31vglsKAYofZojjQbQdKuE3sqx+j+WQkexCsnbn+ohiyrieQhCEhS9n8Ijyav37V5kfMVyB+zIOFu6veEwOxdCNMO9uMmU1aI6Sc30TpJOTkZdQAKQ6RcWSATh+NmUggPIL3PGYAUDpbuKgiNGcp/MRBFOy69ML+7ao6C2GbxQh2kA3LL0qZAQhvSNYUCBy1bzhwHlS8UCeRDQjynKTq6cl9yw6XUDUnfHt8SHDG6YAMjzTHne0gll0bVYgysyBrICUB3PPRQ0xU1SoAOWePJMixyGaAHUalBnkEAM3S1VyAf7yxAKJ5/xUOb4TRAQdQMp/GLAPhn5NZB2CSUzlszS6YAMIcCDyI4BpGzZhVYG4VodgfiK7zEsDVGTcVfPPVbxgFo6d8AMaAGFKSLwDU2op8IUZIPwyNPoXEKheue6aAAXCJEWHZ8hvNagcTP5rBnumKONz0RBYMv0FXo/mndMj6HXJQrfa0EpxOwTzKsBAhCTatHYD/eYUji/HrddvGvki6gTTfMpqsA8R+0DODhoeoCxgpguwHmikwfrxWiEHDv48oCTsHxQeNMIkUw4yOblzY0TeYz7U5kNkg/IG3mabJ4OFU1N8vXNvKBAyDDMqMf0ljMA3K2sIVADXnNWRuwCPT8869KA+fDpMgf3xS8gQTqLVo7FXI6iTADpEqBYLGAJdCyr4pAGk0dVADpIIyi+C8zhLJQ8gPDunLq9fdTAFcjYpnl6e1eYYSu/ft/yosK9tIGeoISoI3Thwh2lwANVoUbGB9F8FEfEAQjCUO1O9f60yCJVqV530XQRtSpUxf7ot+D13og8qefwjbg+HF7wAelX4iRglY5l8bigLJRgaCYgcJvfxIDmcvzAA9fsviIB8frDxjOBDE9XK+UAHkTMZqhJJ8MZ/GiisdEwYPWcwDmYCBMJgw7u+OMhkHUH1xfqjwH6Iy3H3smQHFXCuD0fNnlbBAvkTj8UgJUZEuM1F6lAGAePoZVQ+ww1QwFS8461/agbK+0PMDqcCbIIvIoGGJOi4f0heoG++Sw/78wmiGKup3m+uu6fopc+UX8A/X7wUjcZ+r9IOcBfDqDs/ygGAsCOqIFEcp79KdU6eD0oi4gB5vclEkc3OFeBgELWcohQDu5gSx3uA6Ss/GVgHTkHxsIAcUQVMGQAW+U9dagANiB9AJ8B+gE5gMkIUgeuGhFH8uZ/gwG13V0MOqrePhUBTKiHYxSeX5ZX+D7h9f/G/xM0YIFIIgh6ZoMPBmnbQdcMO+EqQdD7StcddyCAc1QMXXnUlEtTfYRWQ9o/ihQc/pCH7f3RfTh9UDA3GPjqAgPwbMukGdPnDlIPaBnkWQQTnCl/gAhedpL3qwAJuU49aJkAaD15nVrVbDZowTaQhGp/smsCM/RDwYu890GA0AbdXT1Vf78EA6wzybqAggRSYOGsuUAL1BOkBD0MeCAc/wVoo2tHXjKyCAhRAEGN0bLsIff7WQxHKRdMaR3b1WED6/wCuiGyYbcwRn444bNMOpscZxqgR4FhE1TMQ9qsQdPxqmlRkocHYNPPtBosH6IMDOphjXRAZtfPu6LO0+c1+RB4sq4LqB+HW189gD4HqpsBjLcA18AFUbellyQCECtKMwAPYI1G1gAWjFJU4QgCj2uM9qAcVCT5NkApOwGBVAr7shtAGt7crPPAZ+bnoFGyPrWAgPxsorUcJRTmgUuu3/pNnBpWgH8waPyYRcjAp0M86RUxiQJMrSR9M+AFEgNgakoOG6DEXcyMk+f4oE4muMskEQHpx1hdEOKfpv7qkgH1eshJFx2zHir+SKFRwiAOuGcJ7Yixc/WpKx1A2DGa8Eo6rtSqYMbqsP6DEoSE5tGndAt6BzgjYGRx27e0VABrx20+DABoTIvKg8Fm5Ed08YB566AzS/lcxbWYon+TDvP1TxDJiWwyTlxS/7kKopk4pw1VCkA3AssejgRIA1K6neeYgDn+/SnuKmlBxXe9Bnm4Zd12gNAPHno4dVXT0e/xAYH3dsiq3LhUte/oOmikUy0T3gN/1lUAFUsh1KQUgOFGeRgMA2IkxGiQdjamCJGpgFr6JNegOsgUH0pf2BD0Gs4rgAJjq0FzMAv8AHy1EAnbtfigWU87kFuX8Q6cP6DqjWAhx7gPiIAbk3Ew+EGEkLX6tCEQF/dAjOxzYpT/3KS8UUCpGjmBIKYoQclU8q7xCkwLCUDZATJFWkMLm01avn+Bnwm8A7dl3YYuz9EEYOGdEHQLnMQUGm7U531XQmpkUmzLuV6ygexXa6EMAW/gTWFUAJyz/ALIUTdjMp4yJw4L5Z/NUHD3POV0Qvxp5T1mNq5hd690MCAfFolIlRCcdGEow+LWna+UIAUDQubHhTuSw0vfesfCbR7p0guDrj4VRjc8h+fr8QgvZ9LHyrWQFoOsihwpzRBw7jf6og88P/FIU6ftEHCvjThnsz8zQDNt9vmq7y7v+ImcmFFa5qBn4Uxx/iFIPfjWAAAmbqE00ASBf4NQB+bKqkV1NuAyTgS9egiPID9NesvQgHjnUrxBFCV2VA7CVK/MgBOqiQhQYnFuoNFgLr1BOZpaXCQjTCw5eDXDIgjS9FDucecgiwYF3mSXr/qFY2uI+hwVTGJbcc4oFddbS+gQuBm9qe2VfSDeyCYZRMegtbkrgIMqHqvt2Qux9/UhKUZuEaKgaOzzNAQNm6T1xZPCg8q4ogX7U4sgSLuwo4yBMXf36Qk5v5lF3HpXQiNX1QhDYF6lIlaP6dXVARD0idfxFkyPz9wpksBnr1qoADevdNPAe6hu2OmQDJO12oocFyqKaboQH6grs26ZmDs59oGwbv3XIHpSEAxwapnqtG4QMtcfWswu/mingor9XTvY3PaiaAc/Mk87OXzp0uvxIGpyyEkDO+1YMwI1hXsGCTLTEKQqCrRt1sgAoTXzchGi/Be+wBQnCloJcezRY+AKxJE+fzaFA7htKK7gSHclhEIGDdf8Abf5K9cSSK953giU4Ed8UGZwlmEk4IVmBoIXLOeE8M4NMWINUrQmXIBD0/wBKeFHbrHwgY1x+Bqg1+OYQifVp6QQoYbzRAGCMT+yJB6btYTk4u28IH0OLqFAY0mH4hnOggQDiGdhFjyiB/SL7I8YPj8ThGI4tEMFMQe+ERnsW7a2WHAumbyWMBSJjXZAMzT96+0Tw3fYnbuj9v75ZExuBsunJvCLW2YeMq6R384rACnfQAmi8Zx3WCDxZVV0GW6p12CvdATh6Gm7MpUAsS358AAIb+4g445fwmGAOcyrIyANgDCpQQjZQGkg9KDeGMCJjJERBBrdUkSACC1nbDYf+EZZzmRBdDE0xOJVYeciAgALXgzblrU5zIgCHhAqCAEAVR5zOGwfNkMbn88I4m4fvmhDy1JIhODVNO3RRcOuyOMc50Qc4LnZAUBMcPyIBP7LMpMLDvNwocEvgsmM+eQvPDkxjitpjlDFlEHBzDD0u2hNDBAvoKflF9kaBajPWPl07Qh5/vhT/AJbjnZEjA97QMPMDv48oiKACrucXWleOnsMu1WjFGLEa9MvajR1oisr6CC8m/wCIYAL6BMOKdmUGtHboxY68TCKom8CZ/wBQTrTVjTMiYhByf+Tz7lOeJPkCRQQtcE8IBSitGSAFahXCu5gWpeDPpudMsCJARwduhrkE/wBobRF2YOnylM7+eYIPZidWTgomHc5h+J3ys847IjbA/GGP6g7J561KzQeXRMUA8ZujO+QtssWaF+dkdMA+yyGNh4kEfI4o8gfymRsUsxCezjaJ3XtgethQ8Z5ZqKANO/MVXIfyVIUWwo9hkqqQdFbNCgxgpLD5FSy6Qhs3hlpZ2RUAEhRaAEAsAAMsP+cHjyFzFkI3M0ZmOINznzEu3uBlhsB4Yrn4DKkaFlnWgwHS1VlBDA/j7IO6+n+BbLC2zfSE5gHMCzIM8fnuh3J37nZcgcZ6UFiBvGJ+k7+TrnsqUu6shgAzIhcjC/wPovMFZww7L1oe/nRMGAu38wnKDAQScuQTwCQMdFD7gkorgFAcB8EHckbIripQBKlULCmYTHOJMk/9UeGwlEWJpiTeAonhA8HTgmPBqh0+hAlZ5oUCrAZyPggCdCGME8TsVijjDplGqOOjzyyMjJ256THuOblbgW3YpxsMuqORH/53RdQvPNOdFzIOncqigHIq9bqhQgNMTuawCoHPkgsk0zMQvoBMKmgojC9Sd9ZP/dHkkG5hYVimp1R0rThPAzKbVrCqyGQQuW4VPJEnYh6OXUBeagXum2H8A3XovQYpfwn1m2XAT0VWCOgHqqHiSOlyMP2Fx5bARCIPABGsYEXIq4IVEiA4MJFDAMFB/wDBkFAMXmUbahRFERryDwtAJibGRKCxCCQa7EK6mGHRV0Iuz1H2doQOIzc0gYJJigWED1tllAGgAw//AB4//9k=;" vertex="1" parent="1">
          <mxGeometry x="560" y="420" width="180" height="120" as="geometry" />
        </mxCell>
        <mxCell id="Ea116FxkHDpsLCeJhvra-7" value="" style="shape=flexArrow;endArrow=classic;html=1;rounded=0;entryX=0;entryY=0.5;entryDx=0;entryDy=0;exitX=1;exitY=1;exitDx=0;exitDy=0;" edge="1" parent="1" source="Ea116FxkHDpsLCeJhvra-4" target="Ea116FxkHDpsLCeJhvra-6">
          <mxGeometry width="50" height="50" relative="1" as="geometry">
            <mxPoint x="520" y="510" as="sourcePoint" />
            <mxPoint x="570" y="460" as="targetPoint" />
          </mxGeometry>
        </mxCell>
        <mxCell id="Ea116FxkHDpsLCeJhvra-8" value="NVIDIA AGX Xavier" style="rounded=1;whiteSpace=wrap;html=1;fillColor=#d5e8d4;strokeColor=#82b366;" vertex="1" parent="1">
          <mxGeometry x="530" y="310" width="60" height="60" as="geometry" />
        </mxCell>
        <mxCell id="Ea116FxkHDpsLCeJhvra-9" value="8-core ARM v8.2 64bit CPU" style="rounded=1;whiteSpace=wrap;html=1;fillColor=#d5e8d4;strokeColor=#82b366;" vertex="1" parent="1">
          <mxGeometry x="620" y="310" width="60" height="60" as="geometry" />
        </mxCell>
        <mxCell id="Ea116FxkHDpsLCeJhvra-10" value="512-core Volta GPU" style="rounded=1;whiteSpace=wrap;html=1;fillColor=#d5e8d4;strokeColor=#82b366;" vertex="1" parent="1">
          <mxGeometry x="710" y="310" width="60" height="60" as="geometry" />
        </mxCell>
        <mxCell id="Ea116FxkHDpsLCeJhvra-11" value="CANBUS" style="rounded=1;whiteSpace=wrap;html=1;fillColor=#d5e8d4;strokeColor=#82b366;" vertex="1" parent="1">
          <mxGeometry x="620" y="590" width="60" height="60" as="geometry" />
        </mxCell>
        <mxCell id="Ea116FxkHDpsLCeJhvra-12" value="USB 3.2 + 2.0" style="rounded=1;whiteSpace=wrap;html=1;fillColor=#d5e8d4;strokeColor=#82b366;" vertex="1" parent="1">
          <mxGeometry x="710" y="590" width="60" height="60" as="geometry" />
        </mxCell>
        <mxCell id="Ea116FxkHDpsLCeJhvra-13" value="10 / 100 / 1000 Base-TX" style="rounded=1;whiteSpace=wrap;html=1;fillColor=#d5e8d4;strokeColor=#82b366;" vertex="1" parent="1">
          <mxGeometry x="800" y="530" width="60" height="60" as="geometry" />
        </mxCell>
        <mxCell id="Ea116FxkHDpsLCeJhvra-14" value="IEEE 802.11 af PoE LAN" style="rounded=1;whiteSpace=wrap;html=1;fillColor=#d5e8d4;strokeColor=#82b366;" vertex="1" parent="1">
          <mxGeometry x="800" y="450" width="60" height="60" as="geometry" />
        </mxCell>
        <mxCell id="Ea116FxkHDpsLCeJhvra-15" value="32GB 256-Bit LPDDR4x 137GB/s" style="rounded=1;whiteSpace=wrap;html=1;fillColor=#d5e8d4;strokeColor=#82b366;" vertex="1" parent="1">
          <mxGeometry x="800" y="370" width="60" height="60" as="geometry" />
        </mxCell>
        <mxCell id="Ea116FxkHDpsLCeJhvra-16" value="HDMI" style="rounded=1;whiteSpace=wrap;html=1;fillColor=#d5e8d4;strokeColor=#82b366;" vertex="1" parent="1">
          <mxGeometry x="530" y="590" width="60" height="60" as="geometry" />
        </mxCell>
        <mxCell id="Ea116FxkHDpsLCeJhvra-27" value="Boxes in green indicate supported I/O, software, and processing components" style="text;html=1;strokeColor=none;fillColor=none;align=center;verticalAlign=middle;whiteSpace=wrap;rounded=0;" vertex="1" parent="1">
          <mxGeometry x="360" y="590" width="160" height="60" as="geometry" />
        </mxCell>
      </root>
    </mxGraphModel>
  </diagram>
</mxfile>
